<svg width="337" height="124" viewBox="0 0 337 124" fill="none" xmlns="http://www.w3.org/2000/svg">
<mask id="path-1-inside-1_2494_468" fill="white">
<path d="M97.0883 33.1599C94.6157 27.3499 91.0312 22.1324 86.4654 17.6235C81.9486 13.1637 76.5946 9.61091 70.7012 7.16276C64.5979 4.61454 58.0341 3.30867 51.4048 3.32372C45.9233 3.32372 40.5596 4.18686 35.4575 5.90026C23.5395 0.425128 9.77687 0 5.82601 0C5.5382 0 4.85792 -3.93018e-07 4.59627 0.0257649C3.03947 0.0772955 1.6135 0.863139 0.776231 2.13852C-0.0741198 3.4139 -0.231107 5.02424 0.331433 6.45421L8.74336 27.2726C4.21374 34.808 1.82776 43.4053 1.8359 52.1619C1.8359 58.7835 3.14413 65.1733 5.73443 71.1767C8.20699 76.9739 11.7785 82.2042 16.3573 86.7003C20.8968 91.1834 26.2214 94.7004 32.1215 97.161C38.2309 99.7117 44.7198 101 51.4048 101C58.1161 101 64.6049 99.6989 70.7274 97.161C76.6014 94.7262 81.9128 91.1963 86.4785 86.7003C91.0181 82.2171 94.6026 76.9867 97.1014 71.1638C99.6879 65.1487 101.014 58.6811 101 52.149C100.974 45.5531 99.6786 39.1633 97.0883 33.1599ZM88.4016 67.4922C86.3844 72.2102 83.4565 76.4978 79.7804 80.1172C76.065 83.7888 71.7609 86.6487 66.9989 88.6069H66.9859C62.0146 90.6681 56.7424 91.7245 51.3002 91.7245C46.0136 91.7303 40.7781 90.7067 35.8948 88.7124C31.0115 86.7182 26.5769 83.7927 22.8461 80.1043C19.1307 76.4328 16.2265 72.1944 14.2379 67.5051V67.4922C12.1448 62.6226 11.0851 57.418 11.0851 52.0459C11.0851 44.9089 13.0213 37.9136 16.6843 31.8202L18.4112 28.9731L17.1684 25.8941L10.4571 9.27551C12.4064 9.35281 15.1537 9.54605 18.2673 9.99694C23.9974 10.8343 29.0602 12.2514 33.2989 14.1967L35.7845 15.3432L38.3879 14.4672C42.5088 13.0759 46.8653 12.3802 51.3263 12.3802C56.6129 12.3744 61.8484 13.398 66.7317 15.3923C71.615 17.3865 76.0496 20.312 79.7804 24.0004C83.4958 27.6719 86.4 31.9103 88.3885 36.5996L88.4016 36.6125L88.4147 36.6254C90.5079 41.4693 91.5675 46.6738 91.5806 52.0588C91.5675 57.4309 90.4948 62.6226 88.4016 67.4922ZM72.6113 31.4594C69.9425 31.4594 67.7577 33.6108 67.7577 36.2389V43.3372C67.7577 45.9653 69.9294 48.1167 72.6113 48.1167C75.2931 48.1167 77.4648 45.9653 77.4648 43.3372V36.2389C77.4648 33.598 75.2801 31.4594 72.6113 31.4594ZM49.691 31.4594C47.0092 31.4594 44.8375 33.6108 44.8375 36.2389V43.3372C44.8375 45.9653 47.0222 48.1167 49.691 48.1167C52.3729 48.1167 54.5446 45.9653 54.5446 43.3372V36.2389C54.5446 33.598 52.3598 31.4594 49.691 31.4594Z"/>
</mask>
<path d="M97.0883 33.1599C94.6157 27.3499 91.0312 22.1324 86.4654 17.6235C81.9486 13.1637 76.5946 9.61091 70.7012 7.16276C64.5979 4.61454 58.0341 3.30867 51.4048 3.32372C45.9233 3.32372 40.5596 4.18686 35.4575 5.90026C23.5395 0.425128 9.77687 0 5.82601 0C5.5382 0 4.85792 -3.93018e-07 4.59627 0.0257649C3.03947 0.0772955 1.6135 0.863139 0.776231 2.13852C-0.0741198 3.4139 -0.231107 5.02424 0.331433 6.45421L8.74336 27.2726C4.21374 34.808 1.82776 43.4053 1.8359 52.1619C1.8359 58.7835 3.14413 65.1733 5.73443 71.1767C8.20699 76.9739 11.7785 82.2042 16.3573 86.7003C20.8968 91.1834 26.2214 94.7004 32.1215 97.161C38.2309 99.7117 44.7198 101 51.4048 101C58.1161 101 64.6049 99.6989 70.7274 97.161C76.6014 94.7262 81.9128 91.1963 86.4785 86.7003C91.0181 82.2171 94.6026 76.9867 97.1014 71.1638C99.6879 65.1487 101.014 58.6811 101 52.149C100.974 45.5531 99.6786 39.1633 97.0883 33.1599ZM88.4016 67.4922C86.3844 72.2102 83.4565 76.4978 79.7804 80.1172C76.065 83.7888 71.7609 86.6487 66.9989 88.6069H66.9859C62.0146 90.6681 56.7424 91.7245 51.3002 91.7245C46.0136 91.7303 40.7781 90.7067 35.8948 88.7124C31.0115 86.7182 26.5769 83.7927 22.8461 80.1043C19.1307 76.4328 16.2265 72.1944 14.2379 67.5051V67.4922C12.1448 62.6226 11.0851 57.418 11.0851 52.0459C11.0851 44.9089 13.0213 37.9136 16.6843 31.8202L18.4112 28.9731L17.1684 25.8941L10.4571 9.27551C12.4064 9.35281 15.1537 9.54605 18.2673 9.99694C23.9974 10.8343 29.0602 12.2514 33.2989 14.1967L35.7845 15.3432L38.3879 14.4672C42.5088 13.0759 46.8653 12.3802 51.3263 12.3802C56.6129 12.3744 61.8484 13.398 66.7317 15.3923C71.615 17.3865 76.0496 20.312 79.7804 24.0004C83.4958 27.6719 86.4 31.9103 88.3885 36.5996L88.4016 36.6125L88.4147 36.6254C90.5079 41.4693 91.5675 46.6738 91.5806 52.0588C91.5675 57.4309 90.4948 62.6226 88.4016 67.4922ZM72.6113 31.4594C69.9425 31.4594 67.7577 33.6108 67.7577 36.2389V43.3372C67.7577 45.9653 69.9294 48.1167 72.6113 48.1167C75.2931 48.1167 77.4648 45.9653 77.4648 43.3372V36.2389C77.4648 33.598 75.2801 31.4594 72.6113 31.4594ZM49.691 31.4594C47.0092 31.4594 44.8375 33.6108 44.8375 36.2389V43.3372C44.8375 45.9653 47.0222 48.1167 49.691 48.1167C52.3729 48.1167 54.5446 45.9653 54.5446 43.3372V36.2389C54.5446 33.598 52.3598 31.4594 49.691 31.4594Z" fill="#8B45FF" stroke="#8B45FF" stroke-width="2" mask="url(#path-1-inside-1_2494_468)"/>
<mask id="path-2-outside-2_2494_468" maskUnits="userSpaceOnUse" x="70" y="68" width="257" height="56" fill="black">
<rect fill="white" x="70" y="68" width="257" height="56"/>
<path d="M97.3828 88.0386V93.8394H76.8115V88.0386H97.3828ZM78.8257 71.8984V111H71.4404V71.8984H78.8257ZM102.861 71.8984V111H95.4761V71.8984H102.861ZM108.582 96.7666V96.2026C108.582 94.0721 108.886 92.1117 109.495 90.3213C110.103 88.513 110.99 86.9465 112.153 85.6216C113.317 84.2967 114.74 83.2673 116.423 82.5332C118.106 81.7812 120.022 81.4053 122.17 81.4053C124.355 81.4053 126.288 81.7812 127.971 82.5332C129.672 83.2673 131.104 84.2967 132.268 85.6216C133.432 86.9465 134.318 88.513 134.927 90.3213C135.535 92.1117 135.84 94.0721 135.84 96.2026V96.7666C135.84 98.8792 135.535 100.84 134.927 102.648C134.318 104.438 133.432 106.005 132.268 107.348C131.104 108.673 129.681 109.702 127.998 110.436C126.315 111.17 124.39 111.537 122.224 111.537C120.076 111.537 118.151 111.17 116.45 110.436C114.749 109.702 113.317 108.673 112.153 107.348C110.99 106.005 110.103 104.438 109.495 102.648C108.886 100.84 108.582 98.8792 108.582 96.7666ZM115.671 96.2026V96.7666C115.671 98.0378 115.797 99.2284 116.047 100.338C116.298 101.448 116.683 102.424 117.202 103.266C117.721 104.107 118.393 104.77 119.216 105.253C120.058 105.718 121.06 105.951 122.224 105.951C123.37 105.951 124.355 105.718 125.178 105.253C126.002 104.77 126.673 104.107 127.192 103.266C127.729 102.424 128.123 101.448 128.374 100.338C128.625 99.2284 128.75 98.0378 128.75 96.7666V96.2026C128.75 94.9494 128.625 93.7767 128.374 92.6846C128.123 91.5745 127.729 90.5988 127.192 89.7573C126.673 88.8979 125.993 88.2266 125.151 87.7432C124.328 87.2419 123.334 86.9912 122.17 86.9912C121.025 86.9912 120.04 87.2419 119.216 87.7432C118.393 88.2266 117.721 88.8979 117.202 89.7573C116.683 90.5988 116.298 91.5745 116.047 92.6846C115.797 93.7767 115.671 94.9494 115.671 96.2026ZM140.969 69.75H148.086V104.582L147.388 111H140.969V69.75ZM166.777 96.1758V96.7397C166.777 98.9061 166.536 100.893 166.052 102.702C165.587 104.51 164.88 106.076 163.931 107.401C162.982 108.708 161.8 109.729 160.386 110.463C158.989 111.179 157.351 111.537 155.471 111.537C153.681 111.537 152.123 111.188 150.798 110.49C149.491 109.792 148.39 108.807 147.495 107.536C146.6 106.247 145.884 104.734 145.347 102.997C144.81 101.243 144.407 99.3268 144.138 97.25V95.7192C144.407 93.6245 144.81 91.7088 145.347 89.9722C145.884 88.2355 146.6 86.7227 147.495 85.4336C148.39 84.1445 149.491 83.1509 150.798 82.4526C152.105 81.7544 153.645 81.4053 155.417 81.4053C157.315 81.4053 158.971 81.7723 160.386 82.5063C161.818 83.2225 163 84.243 163.931 85.5679C164.88 86.8748 165.587 88.4325 166.052 90.2407C166.536 92.0311 166.777 94.0094 166.777 96.1758ZM159.661 96.7397V96.1758C159.661 94.9404 159.562 93.7767 159.365 92.6846C159.168 91.5745 158.846 90.5988 158.398 89.7573C157.951 88.9159 157.342 88.2534 156.572 87.77C155.802 87.2866 154.836 87.0449 153.672 87.0449C152.562 87.0449 151.613 87.2329 150.825 87.6089C150.055 87.9849 149.411 88.5041 148.892 89.1665C148.39 89.8289 147.996 90.6077 147.71 91.5029C147.441 92.3981 147.262 93.3649 147.173 94.4033V98.5928C147.298 99.9714 147.594 101.216 148.059 102.326C148.525 103.418 149.214 104.286 150.127 104.931C151.058 105.575 152.257 105.897 153.726 105.897C154.871 105.897 155.829 105.674 156.599 105.226C157.369 104.761 157.978 104.116 158.425 103.292C158.873 102.451 159.186 101.475 159.365 100.365C159.562 99.2552 159.661 98.0467 159.661 96.7397ZM171.907 69.75H179.023V104.582L178.325 111H171.907V69.75ZM197.715 96.1758V96.7397C197.715 98.9061 197.473 100.893 196.99 102.702C196.524 104.51 195.817 106.076 194.868 107.401C193.919 108.708 192.738 109.729 191.323 110.463C189.927 111.179 188.289 111.537 186.409 111.537C184.618 111.537 183.061 111.188 181.736 110.49C180.429 109.792 179.328 108.807 178.433 107.536C177.537 106.247 176.821 104.734 176.284 102.997C175.747 101.243 175.344 99.3268 175.076 97.25V95.7192C175.344 93.6245 175.747 91.7088 176.284 89.9722C176.821 88.2355 177.537 86.7227 178.433 85.4336C179.328 84.1445 180.429 83.1509 181.736 82.4526C183.043 81.7544 184.583 81.4053 186.355 81.4053C188.253 81.4053 189.909 81.7723 191.323 82.5063C192.756 83.2225 193.937 84.243 194.868 85.5679C195.817 86.8748 196.524 88.4325 196.99 90.2407C197.473 92.0311 197.715 94.0094 197.715 96.1758ZM190.598 96.7397V96.1758C190.598 94.9404 190.5 93.7767 190.303 92.6846C190.106 91.5745 189.784 90.5988 189.336 89.7573C188.888 88.9159 188.28 88.2534 187.51 87.77C186.74 87.2866 185.773 87.0449 184.609 87.0449C183.499 87.0449 182.55 87.2329 181.763 87.6089C180.993 87.9849 180.348 88.5041 179.829 89.1665C179.328 89.8289 178.934 90.6077 178.647 91.5029C178.379 92.3981 178.2 93.3649 178.11 94.4033V98.5928C178.236 99.9714 178.531 101.216 178.997 102.326C179.462 103.418 180.151 104.286 181.064 104.931C181.995 105.575 183.195 105.897 184.663 105.897C185.809 105.897 186.767 105.674 187.537 105.226C188.306 104.761 188.915 104.116 189.363 103.292C189.81 102.451 190.124 101.475 190.303 100.365C190.5 99.2552 190.598 98.0467 190.598 96.7397ZM211.062 107.777L218.85 81.9424H226.45L214.795 115.404C214.526 116.12 214.177 116.899 213.748 117.741C213.336 118.582 212.781 119.379 212.083 120.131C211.384 120.901 210.507 121.527 209.451 122.011C208.412 122.494 207.15 122.736 205.664 122.736C205.02 122.736 204.447 122.691 203.945 122.602C203.444 122.512 202.916 122.396 202.361 122.252V116.935C202.54 116.953 202.746 116.962 202.979 116.962C203.229 116.98 203.444 116.989 203.623 116.989C204.661 116.989 205.521 116.863 206.201 116.613C206.882 116.38 207.428 115.995 207.839 115.458C208.269 114.939 208.627 114.258 208.914 113.417L211.062 107.777ZM207.222 81.9424L213.801 103.346L214.956 110.839L210.068 111.725L199.568 81.9424H207.222ZM256.367 88.0386V93.8394H235.796V88.0386H256.367ZM237.81 71.8984V111H230.425V71.8984H237.81ZM261.846 71.8984V111H254.46V71.8984H261.846ZM286.123 104.098V81.9424H293.267V111H286.553L286.123 104.098ZM287.036 98.0825L289.238 98.0288C289.238 99.9803 289.023 101.78 288.594 103.427C288.164 105.074 287.493 106.506 286.58 107.724C285.684 108.923 284.548 109.863 283.169 110.543C281.79 111.206 280.161 111.537 278.281 111.537C276.849 111.537 275.542 111.34 274.36 110.946C273.179 110.535 272.158 109.899 271.299 109.04C270.457 108.162 269.804 107.043 269.338 105.683C268.873 104.304 268.64 102.648 268.64 100.714V81.9424H275.73V100.768C275.73 101.735 275.837 102.541 276.052 103.185C276.285 103.83 276.598 104.358 276.992 104.77C277.404 105.163 277.878 105.45 278.416 105.629C278.971 105.79 279.561 105.871 280.188 105.871C281.907 105.871 283.258 105.53 284.243 104.85C285.246 104.152 285.962 103.221 286.392 102.057C286.821 100.875 287.036 99.5506 287.036 98.0825ZM299.524 69.75H306.641V104.582L305.942 111H299.524V69.75ZM325.332 96.1758V96.7397C325.332 98.9061 325.09 100.893 324.607 102.702C324.141 104.51 323.434 106.076 322.485 107.401C321.536 108.708 320.355 109.729 318.94 110.463C317.544 111.179 315.906 111.537 314.026 111.537C312.236 111.537 310.678 111.188 309.353 110.49C308.046 109.792 306.945 108.807 306.05 107.536C305.155 106.247 304.438 104.734 303.901 102.997C303.364 101.243 302.961 99.3268 302.693 97.25V95.7192C302.961 93.6245 303.364 91.7088 303.901 89.9722C304.438 88.2355 305.155 86.7227 306.05 85.4336C306.945 84.1445 308.046 83.1509 309.353 82.4526C310.66 81.7544 312.2 81.4053 313.972 81.4053C315.87 81.4053 317.526 81.7723 318.94 82.5063C320.373 83.2225 321.554 84.243 322.485 85.5679C323.434 86.8748 324.141 88.4325 324.607 90.2407C325.09 92.0311 325.332 94.0094 325.332 96.1758ZM318.215 96.7397V96.1758C318.215 94.9404 318.117 93.7767 317.92 92.6846C317.723 91.5745 317.401 90.5988 316.953 89.7573C316.506 88.9159 315.897 88.2534 315.127 87.77C314.357 87.2866 313.39 87.0449 312.227 87.0449C311.117 87.0449 310.168 87.2329 309.38 87.6089C308.61 87.9849 307.965 88.5041 307.446 89.1665C306.945 89.8289 306.551 90.6077 306.265 91.5029C305.996 92.3981 305.817 93.3649 305.728 94.4033V98.5928C305.853 99.9714 306.148 101.216 306.614 102.326C307.079 103.418 307.769 104.286 308.682 104.931C309.613 105.575 310.812 105.897 312.28 105.897C313.426 105.897 314.384 105.674 315.154 105.226C315.924 104.761 316.532 104.116 316.98 103.292C317.428 102.451 317.741 101.475 317.92 100.365C318.117 99.2552 318.215 98.0467 318.215 96.7397Z"/>
</mask>
<path d="M97.3828 88.0386V93.8394H76.8115V88.0386H97.3828ZM78.8257 71.8984V111H71.4404V71.8984H78.8257ZM102.861 71.8984V111H95.4761V71.8984H102.861ZM108.582 96.7666V96.2026C108.582 94.0721 108.886 92.1117 109.495 90.3213C110.103 88.513 110.99 86.9465 112.153 85.6216C113.317 84.2967 114.74 83.2673 116.423 82.5332C118.106 81.7812 120.022 81.4053 122.17 81.4053C124.355 81.4053 126.288 81.7812 127.971 82.5332C129.672 83.2673 131.104 84.2967 132.268 85.6216C133.432 86.9465 134.318 88.513 134.927 90.3213C135.535 92.1117 135.84 94.0721 135.84 96.2026V96.7666C135.84 98.8792 135.535 100.84 134.927 102.648C134.318 104.438 133.432 106.005 132.268 107.348C131.104 108.673 129.681 109.702 127.998 110.436C126.315 111.17 124.39 111.537 122.224 111.537C120.076 111.537 118.151 111.17 116.45 110.436C114.749 109.702 113.317 108.673 112.153 107.348C110.99 106.005 110.103 104.438 109.495 102.648C108.886 100.84 108.582 98.8792 108.582 96.7666ZM115.671 96.2026V96.7666C115.671 98.0378 115.797 99.2284 116.047 100.338C116.298 101.448 116.683 102.424 117.202 103.266C117.721 104.107 118.393 104.77 119.216 105.253C120.058 105.718 121.06 105.951 122.224 105.951C123.37 105.951 124.355 105.718 125.178 105.253C126.002 104.77 126.673 104.107 127.192 103.266C127.729 102.424 128.123 101.448 128.374 100.338C128.625 99.2284 128.75 98.0378 128.75 96.7666V96.2026C128.75 94.9494 128.625 93.7767 128.374 92.6846C128.123 91.5745 127.729 90.5988 127.192 89.7573C126.673 88.8979 125.993 88.2266 125.151 87.7432C124.328 87.2419 123.334 86.9912 122.17 86.9912C121.025 86.9912 120.04 87.2419 119.216 87.7432C118.393 88.2266 117.721 88.8979 117.202 89.7573C116.683 90.5988 116.298 91.5745 116.047 92.6846C115.797 93.7767 115.671 94.9494 115.671 96.2026ZM140.969 69.75H148.086V104.582L147.388 111H140.969V69.75ZM166.777 96.1758V96.7397C166.777 98.9061 166.536 100.893 166.052 102.702C165.587 104.51 164.88 106.076 163.931 107.401C162.982 108.708 161.8 109.729 160.386 110.463C158.989 111.179 157.351 111.537 155.471 111.537C153.681 111.537 152.123 111.188 150.798 110.49C149.491 109.792 148.39 108.807 147.495 107.536C146.6 106.247 145.884 104.734 145.347 102.997C144.81 101.243 144.407 99.3268 144.138 97.25V95.7192C144.407 93.6245 144.81 91.7088 145.347 89.9722C145.884 88.2355 146.6 86.7227 147.495 85.4336C148.39 84.1445 149.491 83.1509 150.798 82.4526C152.105 81.7544 153.645 81.4053 155.417 81.4053C157.315 81.4053 158.971 81.7723 160.386 82.5063C161.818 83.2225 163 84.243 163.931 85.5679C164.88 86.8748 165.587 88.4325 166.052 90.2407C166.536 92.0311 166.777 94.0094 166.777 96.1758ZM159.661 96.7397V96.1758C159.661 94.9404 159.562 93.7767 159.365 92.6846C159.168 91.5745 158.846 90.5988 158.398 89.7573C157.951 88.9159 157.342 88.2534 156.572 87.77C155.802 87.2866 154.836 87.0449 153.672 87.0449C152.562 87.0449 151.613 87.2329 150.825 87.6089C150.055 87.9849 149.411 88.5041 148.892 89.1665C148.39 89.8289 147.996 90.6077 147.71 91.5029C147.441 92.3981 147.262 93.3649 147.173 94.4033V98.5928C147.298 99.9714 147.594 101.216 148.059 102.326C148.525 103.418 149.214 104.286 150.127 104.931C151.058 105.575 152.257 105.897 153.726 105.897C154.871 105.897 155.829 105.674 156.599 105.226C157.369 104.761 157.978 104.116 158.425 103.292C158.873 102.451 159.186 101.475 159.365 100.365C159.562 99.2552 159.661 98.0467 159.661 96.7397ZM171.907 69.75H179.023V104.582L178.325 111H171.907V69.75ZM197.715 96.1758V96.7397C197.715 98.9061 197.473 100.893 196.99 102.702C196.524 104.51 195.817 106.076 194.868 107.401C193.919 108.708 192.738 109.729 191.323 110.463C189.927 111.179 188.289 111.537 186.409 111.537C184.618 111.537 183.061 111.188 181.736 110.49C180.429 109.792 179.328 108.807 178.433 107.536C177.537 106.247 176.821 104.734 176.284 102.997C175.747 101.243 175.344 99.3268 175.076 97.25V95.7192C175.344 93.6245 175.747 91.7088 176.284 89.9722C176.821 88.2355 177.537 86.7227 178.433 85.4336C179.328 84.1445 180.429 83.1509 181.736 82.4526C183.043 81.7544 184.583 81.4053 186.355 81.4053C188.253 81.4053 189.909 81.7723 191.323 82.5063C192.756 83.2225 193.937 84.243 194.868 85.5679C195.817 86.8748 196.524 88.4325 196.99 90.2407C197.473 92.0311 197.715 94.0094 197.715 96.1758ZM190.598 96.7397V96.1758C190.598 94.9404 190.5 93.7767 190.303 92.6846C190.106 91.5745 189.784 90.5988 189.336 89.7573C188.888 88.9159 188.28 88.2534 187.51 87.77C186.74 87.2866 185.773 87.0449 184.609 87.0449C183.499 87.0449 182.55 87.2329 181.763 87.6089C180.993 87.9849 180.348 88.5041 179.829 89.1665C179.328 89.8289 178.934 90.6077 178.647 91.5029C178.379 92.3981 178.2 93.3649 178.11 94.4033V98.5928C178.236 99.9714 178.531 101.216 178.997 102.326C179.462 103.418 180.151 104.286 181.064 104.931C181.995 105.575 183.195 105.897 184.663 105.897C185.809 105.897 186.767 105.674 187.537 105.226C188.306 104.761 188.915 104.116 189.363 103.292C189.81 102.451 190.124 101.475 190.303 100.365C190.5 99.2552 190.598 98.0467 190.598 96.7397ZM211.062 107.777L218.85 81.9424H226.45L214.795 115.404C214.526 116.12 214.177 116.899 213.748 117.741C213.336 118.582 212.781 119.379 212.083 120.131C211.384 120.901 210.507 121.527 209.451 122.011C208.412 122.494 207.15 122.736 205.664 122.736C205.02 122.736 204.447 122.691 203.945 122.602C203.444 122.512 202.916 122.396 202.361 122.252V116.935C202.54 116.953 202.746 116.962 202.979 116.962C203.229 116.98 203.444 116.989 203.623 116.989C204.661 116.989 205.521 116.863 206.201 116.613C206.882 116.38 207.428 115.995 207.839 115.458C208.269 114.939 208.627 114.258 208.914 113.417L211.062 107.777ZM207.222 81.9424L213.801 103.346L214.956 110.839L210.068 111.725L199.568 81.9424H207.222ZM256.367 88.0386V93.8394H235.796V88.0386H256.367ZM237.81 71.8984V111H230.425V71.8984H237.81ZM261.846 71.8984V111H254.46V71.8984H261.846ZM286.123 104.098V81.9424H293.267V111H286.553L286.123 104.098ZM287.036 98.0825L289.238 98.0288C289.238 99.9803 289.023 101.78 288.594 103.427C288.164 105.074 287.493 106.506 286.58 107.724C285.684 108.923 284.548 109.863 283.169 110.543C281.79 111.206 280.161 111.537 278.281 111.537C276.849 111.537 275.542 111.34 274.36 110.946C273.179 110.535 272.158 109.899 271.299 109.04C270.457 108.162 269.804 107.043 269.338 105.683C268.873 104.304 268.64 102.648 268.64 100.714V81.9424H275.73V100.768C275.73 101.735 275.837 102.541 276.052 103.185C276.285 103.83 276.598 104.358 276.992 104.77C277.404 105.163 277.878 105.45 278.416 105.629C278.971 105.79 279.561 105.871 280.188 105.871C281.907 105.871 283.258 105.53 284.243 104.85C285.246 104.152 285.962 103.221 286.392 102.057C286.821 100.875 287.036 99.5506 287.036 98.0825ZM299.524 69.75H306.641V104.582L305.942 111H299.524V69.75ZM325.332 96.1758V96.7397C325.332 98.9061 325.09 100.893 324.607 102.702C324.141 104.51 323.434 106.076 322.485 107.401C321.536 108.708 320.355 109.729 318.94 110.463C317.544 111.179 315.906 111.537 314.026 111.537C312.236 111.537 310.678 111.188 309.353 110.49C308.046 109.792 306.945 108.807 306.05 107.536C305.155 106.247 304.438 104.734 303.901 102.997C303.364 101.243 302.961 99.3268 302.693 97.25V95.7192C302.961 93.6245 303.364 91.7088 303.901 89.9722C304.438 88.2355 305.155 86.7227 306.05 85.4336C306.945 84.1445 308.046 83.1509 309.353 82.4526C310.66 81.7544 312.2 81.4053 313.972 81.4053C315.87 81.4053 317.526 81.7723 318.94 82.5063C320.373 83.2225 321.554 84.243 322.485 85.5679C323.434 86.8748 324.141 88.4325 324.607 90.2407C325.09 92.0311 325.332 94.0094 325.332 96.1758ZM318.215 96.7397V96.1758C318.215 94.9404 318.117 93.7767 317.92 92.6846C317.723 91.5745 317.401 90.5988 316.953 89.7573C316.506 88.9159 315.897 88.2534 315.127 87.77C314.357 87.2866 313.39 87.0449 312.227 87.0449C311.117 87.0449 310.168 87.2329 309.38 87.6089C308.61 87.9849 307.965 88.5041 307.446 89.1665C306.945 89.8289 306.551 90.6077 306.265 91.5029C305.996 92.3981 305.817 93.3649 305.728 94.4033V98.5928C305.853 99.9714 306.148 101.216 306.614 102.326C307.079 103.418 307.769 104.286 308.682 104.931C309.613 105.575 310.812 105.897 312.28 105.897C313.426 105.897 314.384 105.674 315.154 105.226C315.924 104.761 316.532 104.116 316.98 103.292C317.428 102.451 317.741 101.475 317.92 100.365C318.117 99.2552 318.215 98.0467 318.215 96.7397Z" fill="black"/>
<path d="M97.3828 88.0386H98.3828V87.0386H97.3828V88.0386ZM97.3828 93.8394V94.8394H98.3828V93.8394H97.3828ZM76.8115 93.8394H75.8115V94.8394H76.8115V93.8394ZM76.8115 88.0386V87.0386H75.8115V88.0386H76.8115ZM78.8257 71.8984H79.8257V70.8984H78.8257V71.8984ZM78.8257 111V112H79.8257V111H78.8257ZM71.4404 111H70.4404V112H71.4404V111ZM71.4404 71.8984V70.8984H70.4404V71.8984H71.4404ZM102.861 71.8984H103.861V70.8984H102.861V71.8984ZM102.861 111V112H103.861V111H102.861ZM95.4761 111H94.4761V112H95.4761V111ZM95.4761 71.8984V70.8984H94.4761V71.8984H95.4761ZM96.3828 88.0386V93.8394H98.3828V88.0386H96.3828ZM97.3828 92.8394H76.8115V94.8394H97.3828V92.8394ZM77.8115 93.8394V88.0386H75.8115V93.8394H77.8115ZM76.8115 89.0386H97.3828V87.0386H76.8115V89.0386ZM77.8257 71.8984V111H79.8257V71.8984H77.8257ZM78.8257 110H71.4404V112H78.8257V110ZM72.4404 111V71.8984H70.4404V111H72.4404ZM71.4404 72.8984H78.8257V70.8984H71.4404V72.8984ZM101.861 71.8984V111H103.861V71.8984H101.861ZM102.861 110H95.4761V112H102.861V110ZM96.4761 111V71.8984H94.4761V111H96.4761ZM95.4761 72.8984H102.861V70.8984H95.4761V72.8984ZM109.495 90.3213L110.441 90.6432L110.442 90.6403L109.495 90.3213ZM116.423 82.5332L116.823 83.4498L116.831 83.4462L116.423 82.5332ZM127.971 82.5332L127.563 83.4463L127.575 83.4513L127.971 82.5332ZM134.927 90.3213L133.979 90.6403L133.98 90.6432L134.927 90.3213ZM134.927 102.648L135.874 102.97L135.874 102.967L134.927 102.648ZM132.268 107.348L133.019 108.008L133.024 108.003L132.268 107.348ZM112.153 107.348L111.398 108.003L111.402 108.008L112.153 107.348ZM109.495 102.648L108.547 102.967L108.548 102.97L109.495 102.648ZM119.216 105.253L118.71 106.115L118.721 106.122L118.732 106.128L119.216 105.253ZM125.178 105.253L125.67 106.123L125.677 106.119L125.684 106.115L125.178 105.253ZM127.192 103.266L126.349 102.728L126.345 102.734L126.341 102.741L127.192 103.266ZM128.374 92.6846L127.399 92.9048L127.399 92.9083L128.374 92.6846ZM127.192 89.7573L126.336 90.2744L126.343 90.285L126.349 90.2954L127.192 89.7573ZM125.151 87.7432L124.631 88.5974L124.642 88.604L124.653 88.6103L125.151 87.7432ZM119.216 87.7432L119.723 88.6056L119.729 88.6015L119.736 88.5974L119.216 87.7432ZM117.202 89.7573L118.053 90.2825L118.058 90.2744L117.202 89.7573ZM116.047 92.6846L117.022 92.9083L117.023 92.9048L116.047 92.6846ZM109.582 96.7666V96.2026H107.582V96.7666H109.582ZM109.582 96.2026C109.582 94.1679 109.872 92.3177 110.441 90.6432L108.548 89.9994C107.9 91.9056 107.582 93.9763 107.582 96.2026H109.582ZM110.442 90.6403C111.012 88.9472 111.835 87.499 112.905 86.2815L111.402 84.9616C110.144 86.3939 109.194 88.0788 108.547 90.0022L110.442 90.6403ZM112.905 86.2815C113.967 85.0716 115.269 84.1276 116.823 83.4498L116.024 81.6166C114.212 82.4069 112.667 83.5219 111.402 84.9616L112.905 86.2815ZM116.831 83.4462C118.366 82.7603 120.139 82.4053 122.17 82.4053V80.4053C119.904 80.4053 117.846 80.8022 116.015 81.6202L116.831 83.4462ZM122.17 82.4053C124.24 82.4053 126.03 82.7612 127.563 83.4462L128.379 81.6202C126.546 80.8013 124.47 80.4053 122.17 80.4053V82.4053ZM127.575 83.4513C129.147 84.1297 130.456 85.0736 131.517 86.2815L133.019 84.9616C131.753 83.5198 130.197 82.4048 128.367 81.6151L127.575 83.4513ZM131.517 86.2815C132.586 87.499 133.409 88.9472 133.979 90.6403L135.874 90.0022C135.227 88.0788 134.277 86.3939 133.019 84.9616L131.517 86.2815ZM133.98 90.6432C134.549 92.3177 134.84 94.1679 134.84 96.2026H136.84C136.84 93.9763 136.522 91.9056 135.874 89.9994L133.98 90.6432ZM134.84 96.2026V96.7666H136.84V96.2026H134.84ZM134.84 96.7666C134.84 98.7823 134.55 100.634 133.979 102.329L135.874 102.967C136.521 101.046 136.84 98.9762 136.84 96.7666H134.84ZM133.98 102.326C133.41 104.002 132.586 105.454 131.512 106.693L133.024 108.003C134.277 106.556 135.226 104.875 135.874 102.97L133.98 102.326ZM131.517 106.688C130.454 107.898 129.152 108.842 127.598 109.519L128.398 111.353C130.21 110.562 131.755 109.447 133.019 108.008L131.517 106.688ZM127.598 109.519C126.062 110.189 124.277 110.537 122.224 110.537V112.537C124.504 112.537 126.568 112.151 128.398 111.353L127.598 109.519ZM122.224 110.537C120.19 110.537 118.404 110.19 116.846 109.518L116.054 111.354C117.898 112.15 119.961 112.537 122.224 112.537V110.537ZM116.846 109.518C115.275 108.84 113.966 107.896 112.905 106.688L111.402 108.008C112.668 109.449 114.224 110.564 116.054 111.354L116.846 109.518ZM112.909 106.693C111.835 105.454 111.011 104.002 110.441 102.326L108.548 102.97C109.195 104.875 110.144 106.556 111.398 108.003L112.909 106.693ZM110.442 102.329C109.872 100.634 109.582 98.7823 109.582 96.7666H107.582C107.582 98.9762 107.9 101.046 108.547 102.967L110.442 102.329ZM114.671 96.2026V96.7666H116.671V96.2026H114.671ZM114.671 96.7666C114.671 98.1034 114.803 99.3685 115.072 100.559L117.023 100.118C116.79 99.0882 116.671 97.9722 116.671 96.7666H114.671ZM115.072 100.559C115.343 101.76 115.766 102.842 116.351 103.791L118.053 102.741C117.6 102.006 117.253 101.136 117.023 100.118L115.072 100.559ZM116.351 103.791C116.953 104.766 117.741 105.546 118.71 106.115L119.723 104.391C119.045 103.993 118.49 103.448 118.053 102.741L116.351 103.791ZM118.732 106.128C119.75 106.691 120.926 106.951 122.224 106.951V104.951C121.194 104.951 120.366 104.746 119.7 104.378L118.732 106.128ZM122.224 106.951C123.506 106.951 124.668 106.69 125.67 106.123L124.686 104.382C124.041 104.747 123.234 104.951 122.224 104.951V106.951ZM125.684 106.115C126.654 105.546 127.442 104.766 128.043 103.791L126.341 102.741C125.905 103.448 125.35 103.993 124.672 104.391L125.684 106.115ZM128.035 103.804C128.643 102.852 129.077 101.766 129.349 100.559L127.399 100.118C127.17 101.131 126.816 101.996 126.349 102.728L128.035 103.804ZM129.349 100.559C129.618 99.3685 129.75 98.1034 129.75 96.7666H127.75C127.75 97.9722 127.631 99.0882 127.399 100.118L129.349 100.559ZM129.75 96.7666V96.2026H127.75V96.7666H129.75ZM129.75 96.2026C129.75 94.8828 129.618 93.6344 129.349 92.4609L127.399 92.9083C127.631 93.919 127.75 95.0159 127.75 96.2026H129.75ZM129.349 92.4643C129.077 91.2571 128.643 90.1708 128.035 89.2193L126.349 90.2954C126.816 91.0268 127.17 91.892 127.399 92.9048L129.349 92.4643ZM128.048 89.2402C127.445 88.241 126.643 87.4469 125.649 86.8761L124.653 88.6103C125.343 89.0062 125.902 89.5549 126.336 90.2744L128.048 89.2402ZM125.671 86.889C124.661 86.2743 123.479 85.9912 122.17 85.9912V87.9912C123.189 87.9912 123.994 88.2095 124.631 88.5974L125.671 86.889ZM122.17 85.9912C120.876 85.9912 119.704 86.2757 118.696 86.889L119.736 88.5974C120.376 88.2081 121.173 87.9912 122.17 87.9912V85.9912ZM118.71 86.8807C117.736 87.4527 116.947 88.246 116.346 89.2402L118.058 90.2744C118.496 89.5499 119.05 89.0004 119.723 88.6056L118.71 86.8807ZM116.351 89.2322C115.766 90.1807 115.343 91.2625 115.072 92.4643L117.023 92.9048C117.253 91.8866 117.6 91.0169 118.053 90.2824L116.351 89.2322ZM115.073 92.4609C114.803 93.6344 114.671 94.8828 114.671 96.2026H116.671C116.671 95.0159 116.79 93.919 117.022 92.9083L115.073 92.4609ZM140.969 69.75V68.75H139.969V69.75H140.969ZM148.086 69.75H149.086V68.75H148.086V69.75ZM148.086 104.582L149.08 104.69L149.086 104.636V104.582H148.086ZM147.388 111V112H148.285L148.382 111.108L147.388 111ZM140.969 111H139.969V112H140.969V111ZM166.052 102.702L165.086 102.443L165.084 102.452L166.052 102.702ZM163.931 107.401L164.74 107.989L164.744 107.984L163.931 107.401ZM160.386 110.463L160.842 111.353L160.846 111.35L160.386 110.463ZM150.798 110.49L150.327 111.372L150.332 111.374L150.798 110.49ZM147.495 107.536L146.674 108.106L146.678 108.111L147.495 107.536ZM145.347 102.997L144.39 103.29L144.391 103.293L145.347 102.997ZM144.138 97.25H143.138V97.3144L143.146 97.3782L144.138 97.25ZM144.138 95.7192L143.146 95.5921L143.138 95.6554V95.7192H144.138ZM160.386 82.5063L159.925 83.3939L159.932 83.3974L159.939 83.4008L160.386 82.5063ZM163.931 85.5679L163.112 86.1428L163.117 86.1491L163.121 86.1554L163.931 85.5679ZM166.052 90.2407L165.084 90.49L165.087 90.5014L166.052 90.2407ZM159.365 92.6846L158.381 92.8593L158.381 92.862L159.365 92.6846ZM150.825 87.6089L150.394 86.7064L150.386 86.7103L150.825 87.6089ZM148.892 89.1665L148.105 88.5496L148.099 88.5563L148.094 88.5631L148.892 89.1665ZM147.71 91.5029L146.758 91.1982L146.755 91.2068L146.752 91.2156L147.71 91.5029ZM147.173 94.4033L146.177 94.3174L146.173 94.3603V94.4033H147.173ZM147.173 98.5928H146.173V98.6381L146.177 98.6833L147.173 98.5928ZM148.059 102.326L147.137 102.712L147.139 102.718L148.059 102.326ZM150.127 104.931L149.55 105.748L149.558 105.753L150.127 104.931ZM156.599 105.226L157.102 106.091L157.109 106.086L157.117 106.082L156.599 105.226ZM158.425 103.292L159.304 103.77L159.308 103.762L158.425 103.292ZM159.365 100.365L158.381 100.191L158.379 100.198L158.378 100.206L159.365 100.365ZM140.969 70.75H148.086V68.75H140.969V70.75ZM147.086 69.75V104.582H149.086V69.75H147.086ZM147.092 104.473L146.394 110.892L148.382 111.108L149.08 104.69L147.092 104.473ZM147.388 110H140.969V112H147.388V110ZM141.969 111V69.75H139.969V111H141.969ZM165.777 96.1758V96.7397H167.777V96.1758H165.777ZM165.777 96.7397C165.777 98.8322 165.544 100.731 165.086 102.443L167.018 102.96C167.527 101.055 167.777 98.9799 167.777 96.7397H165.777ZM165.084 102.452C164.645 104.158 163.985 105.608 163.118 106.819L164.744 107.984C165.774 106.545 166.529 104.862 167.021 102.951L165.084 102.452ZM163.121 106.814C162.263 107.997 161.2 108.914 159.925 109.575L160.846 111.35C162.401 110.544 163.701 109.42 164.74 107.989L163.121 106.814ZM159.929 109.573C158.699 110.204 157.224 110.537 155.471 110.537V112.537C157.479 112.537 159.279 112.154 160.842 111.353L159.929 109.573ZM155.471 110.537C153.812 110.537 152.42 110.214 151.265 109.605L150.332 111.374C151.826 112.162 153.55 112.537 155.471 112.537V110.537ZM151.27 109.608C150.107 108.987 149.123 108.11 148.313 106.96L146.678 108.111C147.658 109.504 148.876 110.596 150.327 111.372L151.27 109.608ZM148.316 106.965C147.488 105.773 146.814 104.355 146.302 102.702L144.391 103.293C144.954 105.112 145.712 106.721 146.674 108.106L148.316 106.965ZM146.303 102.704C145.784 101.01 145.392 99.1505 145.13 97.1218L143.146 97.3782C143.421 99.5032 143.835 101.475 144.39 103.29L146.303 102.704ZM145.138 97.25V95.7192H143.138V97.25H145.138ZM145.13 95.8464C145.392 93.7998 145.784 91.9414 146.302 90.2676L144.391 89.6767C143.835 91.4763 143.421 93.4492 143.146 95.5921L145.13 95.8464ZM146.302 90.2676C146.814 88.6138 147.488 87.1967 148.316 86.004L146.674 84.8632C145.712 86.2486 144.954 87.8572 144.391 89.6767L146.302 90.2676ZM148.316 86.004C149.127 84.8372 150.111 83.9538 151.27 83.3347L150.327 81.5706C148.872 82.3479 147.654 83.4519 146.674 84.8632L148.316 86.004ZM151.27 83.3347C152.406 82.7277 153.777 82.4053 155.417 82.4053V80.4053C153.513 80.4053 151.805 80.7811 150.327 81.5706L151.27 83.3347ZM155.417 82.4053C157.185 82.4053 158.678 82.7466 159.925 83.3939L160.846 81.6188C159.265 80.798 157.445 80.4053 155.417 80.4053V82.4053ZM159.939 83.4008C161.221 84.0419 162.276 84.9519 163.112 86.1428L164.749 84.9929C163.724 83.5341 162.415 82.403 160.833 81.6119L159.939 83.4008ZM163.121 86.1554C163.986 87.346 164.645 88.7847 165.084 90.49L167.021 89.9914C166.529 88.0802 165.773 86.4036 164.74 84.9804L163.121 86.1554ZM165.087 90.5014C165.544 92.1939 165.777 94.0831 165.777 96.1758H167.777C167.777 93.9358 167.527 91.8682 167.018 89.9801L165.087 90.5014ZM160.661 96.7397V96.1758H158.661V96.7397H160.661ZM160.661 96.1758C160.661 94.8875 160.558 93.6639 160.349 92.5071L158.381 92.862C158.566 93.8895 158.661 94.9934 158.661 96.1758H160.661ZM160.35 92.5099C160.138 91.3151 159.786 90.2367 159.281 89.2877L157.516 90.2269C157.906 90.9609 158.199 91.8339 158.381 92.8593L160.35 92.5099ZM159.281 89.2877C158.756 88.2997 158.029 87.504 157.104 86.9231L156.04 88.6169C156.655 89.0028 157.146 89.532 157.516 90.2269L159.281 89.2877ZM157.104 86.9231C156.136 86.3152 154.972 86.0449 153.672 86.0449V88.0449C154.7 88.0449 155.469 88.258 156.04 88.6169L157.104 86.9231ZM153.672 86.0449C152.452 86.0449 151.348 86.2512 150.394 86.7064L151.256 88.5114C151.878 88.2146 152.672 88.0449 153.672 88.0449V86.0449ZM150.386 86.7103C149.483 87.1514 148.719 87.766 148.105 88.5496L149.679 89.7834C150.103 89.2422 150.628 88.8183 151.264 88.5075L150.386 86.7103ZM148.094 88.5631C147.516 89.3266 147.074 90.2093 146.758 91.1982L148.662 91.8077C148.919 91.0061 149.264 90.3313 149.689 89.7699L148.094 88.5631ZM146.752 91.2156C146.462 92.1834 146.271 93.2184 146.177 94.3174L148.169 94.4892C148.253 93.5114 148.421 92.6128 148.668 91.7903L146.752 91.2156ZM146.173 94.4033V98.5928H148.173V94.4033H146.173ZM146.177 98.6833C146.31 100.149 146.626 101.495 147.137 102.712L148.981 101.939C148.561 100.936 148.286 99.7939 148.169 98.5022L146.177 98.6833ZM147.139 102.718C147.673 103.97 148.476 104.989 149.55 105.748L150.704 104.114C149.952 103.583 149.376 102.866 148.979 101.934L147.139 102.718ZM149.558 105.753C150.699 106.543 152.114 106.897 153.726 106.897V104.897C152.401 104.897 151.417 104.607 150.696 104.108L149.558 105.753ZM153.726 106.897C154.998 106.897 156.141 106.649 157.102 106.091L156.097 104.362C155.517 104.698 154.744 104.897 153.726 104.897V106.897ZM157.117 106.082C158.045 105.521 158.775 104.743 159.304 103.77L157.547 102.815C157.18 103.489 156.693 104.001 156.082 104.37L157.117 106.082ZM159.308 103.762C159.816 102.808 160.159 101.724 160.352 100.524L158.378 100.206C158.213 101.227 157.93 102.094 157.542 102.823L159.308 103.762ZM160.35 100.54C160.558 99.364 160.661 98.0963 160.661 96.7397H158.661C158.661 97.9972 158.566 99.1464 158.381 100.191L160.35 100.54ZM171.907 69.75V68.75H170.907V69.75H171.907ZM179.023 69.75H180.023V68.75H179.023V69.75ZM179.023 104.582L180.018 104.69L180.023 104.636V104.582H179.023ZM178.325 111V112H179.222L179.319 111.108L178.325 111ZM171.907 111H170.907V112H171.907V111ZM196.99 102.702L196.024 102.443L196.021 102.452L196.99 102.702ZM194.868 107.401L195.677 107.989L195.681 107.984L194.868 107.401ZM191.323 110.463L191.78 111.353L191.784 111.35L191.323 110.463ZM181.736 110.49L181.265 111.372L181.27 111.374L181.736 110.49ZM178.433 107.536L177.611 108.106L177.615 108.111L178.433 107.536ZM176.284 102.997L175.328 103.29L175.329 103.293L176.284 102.997ZM175.076 97.25H174.076V97.3144L174.084 97.3782L175.076 97.25ZM175.076 95.7192L174.084 95.5921L174.076 95.6554V95.7192H175.076ZM191.323 82.5063L190.863 83.3939L190.869 83.3974L190.876 83.4008L191.323 82.5063ZM194.868 85.5679L194.05 86.1428L194.054 86.1491L194.059 86.1554L194.868 85.5679ZM196.99 90.2407L196.021 90.49L196.024 90.5014L196.99 90.2407ZM190.303 92.6846L189.318 92.8593L189.319 92.862L190.303 92.6846ZM181.763 87.6089L181.332 86.7064L181.324 86.7103L181.763 87.6089ZM179.829 89.1665L179.042 88.5496L179.037 88.5563L179.032 88.5631L179.829 89.1665ZM178.647 91.5029L177.695 91.1982L177.692 91.2068L177.69 91.2156L178.647 91.5029ZM178.11 94.4033L177.114 94.3174L177.11 94.3603V94.4033H178.11ZM178.11 98.5928H177.11V98.6381L177.114 98.6833L178.11 98.5928ZM178.997 102.326L178.074 102.712L178.077 102.718L178.997 102.326ZM181.064 104.931L180.488 105.748L180.495 105.753L181.064 104.931ZM187.537 105.226L188.039 106.091L188.047 106.086L188.054 106.082L187.537 105.226ZM189.363 103.292L190.241 103.77L190.246 103.762L189.363 103.292ZM190.303 100.365L189.318 100.191L189.317 100.198L189.315 100.206L190.303 100.365ZM171.907 70.75H179.023V68.75H171.907V70.75ZM178.023 69.75V104.582H180.023V69.75H178.023ZM178.029 104.473L177.331 110.892L179.319 111.108L180.018 104.69L178.029 104.473ZM178.325 110H171.907V112H178.325V110ZM172.907 111V69.75H170.907V111H172.907ZM196.715 96.1758V96.7397H198.715V96.1758H196.715ZM196.715 96.7397C196.715 98.8322 196.481 100.731 196.024 102.443L197.956 102.96C198.465 101.055 198.715 98.9799 198.715 96.7397H196.715ZM196.021 102.452C195.582 104.158 194.922 105.608 194.055 106.819L195.681 107.984C196.712 106.545 197.466 104.862 197.958 102.951L196.021 102.452ZM194.059 106.814C193.2 107.997 192.137 108.914 190.863 109.575L191.784 111.35C193.338 110.544 194.638 109.42 195.677 107.989L194.059 106.814ZM190.867 109.573C189.637 110.204 188.161 110.537 186.409 110.537V112.537C188.416 112.537 190.217 112.154 191.78 111.353L190.867 109.573ZM186.409 110.537C184.749 110.537 183.358 110.214 182.202 109.605L181.27 111.374C182.764 112.162 184.487 112.537 186.409 112.537V110.537ZM182.207 109.608C181.045 108.987 180.06 108.11 179.25 106.96L177.615 108.111C178.596 109.504 179.813 110.596 181.265 111.372L182.207 109.608ZM179.254 106.965C178.426 105.773 177.751 104.355 177.24 102.702L175.329 103.293C175.892 105.112 176.649 106.721 177.611 108.106L179.254 106.965ZM177.24 102.704C176.722 101.01 176.33 99.1505 176.067 97.1218L174.084 97.3782C174.359 99.5032 174.772 101.475 175.328 103.29L177.24 102.704ZM176.076 97.25V95.7192H174.076V97.25H176.076ZM176.068 95.8464C176.33 93.7998 176.722 91.9414 177.24 90.2676L175.329 89.6767C174.772 91.4763 174.359 93.4492 174.084 95.5921L176.068 95.8464ZM177.24 90.2676C177.751 88.6138 178.426 87.1967 179.254 86.004L177.611 84.8632C176.649 86.2486 175.892 87.8572 175.329 89.6767L177.24 90.2676ZM179.254 86.004C180.064 84.8372 181.048 83.9538 182.207 83.3347L181.265 81.5706C179.81 82.3479 178.591 83.4519 177.611 84.8632L179.254 86.004ZM182.207 83.3347C183.343 82.7277 184.715 82.4053 186.355 82.4053V80.4053C184.45 80.4053 182.742 80.7811 181.265 81.5706L182.207 83.3347ZM186.355 82.4053C188.123 82.4053 189.615 82.7466 190.863 83.3939L191.784 81.6188C190.202 80.798 188.383 80.4053 186.355 80.4053V82.4053ZM190.876 83.4008C192.158 84.0419 193.213 84.9519 194.05 86.1428L195.686 84.9929C194.661 83.5341 193.353 82.403 191.77 81.6119L190.876 83.4008ZM194.059 86.1554C194.923 87.346 195.582 88.7847 196.021 90.49L197.958 89.9914C197.466 88.0802 196.711 86.4036 195.677 84.9804L194.059 86.1554ZM196.024 90.5014C196.481 92.1939 196.715 94.0831 196.715 96.1758H198.715C198.715 93.9358 198.465 91.8682 197.955 89.9801L196.024 90.5014ZM191.598 96.7397V96.1758H189.598V96.7397H191.598ZM191.598 96.1758C191.598 94.8875 191.495 93.6639 191.287 92.5071L189.319 92.862C189.504 93.8895 189.598 94.9934 189.598 96.1758H191.598ZM191.287 92.5099C191.075 91.3151 190.724 90.2367 190.219 89.2877L188.453 90.2269C188.843 90.9609 189.136 91.8339 189.318 92.8593L191.287 92.5099ZM190.219 89.2877C189.693 88.2997 188.967 87.504 188.042 86.9231L186.978 88.6169C187.593 89.0028 188.083 89.532 188.453 90.2269L190.219 89.2877ZM188.042 86.9231C187.073 86.3152 185.909 86.0449 184.609 86.0449V88.0449C185.637 88.0449 186.406 88.258 186.978 88.6169L188.042 86.9231ZM184.609 86.0449C183.39 86.0449 182.286 86.2512 181.332 86.7064L182.193 88.5114C182.815 88.2146 183.609 88.0449 184.609 88.0449V86.0449ZM181.324 86.7103C180.421 87.1514 179.656 87.766 179.042 88.5496L180.616 89.7834C181.04 89.2422 181.565 88.8183 182.202 88.5075L181.324 86.7103ZM179.032 88.5631C178.454 89.3266 178.011 90.2093 177.695 91.1982L179.6 91.8077C179.856 91.0061 180.202 90.3313 180.627 89.7699L179.032 88.5631ZM177.69 91.2156C177.399 92.1834 177.209 93.2184 177.114 94.3174L179.107 94.4892C179.191 93.5114 179.359 92.6128 179.605 91.7903L177.69 91.2156ZM177.11 94.4033V98.5928H179.11V94.4033H177.11ZM177.114 98.6833C177.248 100.149 177.564 101.495 178.074 102.712L179.919 101.939C179.498 100.936 179.224 99.7939 179.106 98.5022L177.114 98.6833ZM178.077 102.718C178.61 103.97 179.414 104.989 180.488 105.748L181.641 104.114C180.889 103.583 180.314 102.866 179.917 101.934L178.077 102.718ZM180.495 105.753C181.637 106.543 183.052 106.897 184.663 106.897V104.897C183.338 104.897 182.354 104.607 181.634 104.108L180.495 105.753ZM184.663 106.897C185.936 106.897 187.079 106.649 188.039 106.091L187.034 104.362C186.455 104.698 185.682 104.897 184.663 104.897V106.897ZM188.054 106.082C188.982 105.521 189.713 104.743 190.241 103.77L188.484 102.815C188.118 103.489 187.631 104.001 187.019 104.37L188.054 106.082ZM190.246 103.762C190.753 102.808 191.097 101.724 191.29 100.524L189.315 100.206C189.151 101.227 188.868 102.094 188.48 102.823L190.246 103.762ZM191.287 100.54C191.496 99.364 191.598 98.0963 191.598 96.7397H189.598C189.598 97.9972 189.503 99.1464 189.318 100.191L191.287 100.54ZM211.062 107.777L211.996 108.133L212.009 108.1L212.019 108.066L211.062 107.777ZM218.85 81.9424V80.9424H218.107L217.893 81.6538L218.85 81.9424ZM226.45 81.9424L227.395 82.2713L227.857 80.9424H226.45V81.9424ZM214.795 115.404L215.731 115.755L215.735 115.744L215.739 115.733L214.795 115.404ZM213.748 117.741L212.857 117.286L212.853 117.294L212.849 117.301L213.748 117.741ZM212.083 120.131L211.35 119.45L211.342 119.459L212.083 120.131ZM209.451 122.011L209.035 121.101L209.029 121.104L209.451 122.011ZM202.361 122.252H201.361V123.027L202.111 123.221L202.361 122.252ZM202.361 116.935L202.46 115.94L201.361 115.83V116.935H202.361ZM202.979 116.962L203.05 115.964L203.014 115.962H202.979V116.962ZM206.201 116.613L205.877 115.667L205.866 115.67L205.855 115.674L206.201 116.613ZM207.839 115.458L207.069 114.82L207.057 114.835L207.046 114.85L207.839 115.458ZM208.914 113.417L207.979 113.061L207.973 113.078L207.967 113.095L208.914 113.417ZM207.222 81.9424L208.178 81.6485L207.96 80.9424H207.222V81.9424ZM213.801 103.346L214.79 103.194L214.779 103.122L214.757 103.052L213.801 103.346ZM214.956 110.839L215.134 111.823L216.093 111.649L215.944 110.687L214.956 110.839ZM210.068 111.725L209.125 112.058L209.409 112.861L210.247 112.709L210.068 111.725ZM199.568 81.9424V80.9424H198.155L198.625 82.2749L199.568 81.9424ZM212.019 108.066L219.808 82.231L217.893 81.6538L210.105 107.489L212.019 108.066ZM218.85 82.9424H226.45V80.9424H218.85V82.9424ZM225.506 81.6135L213.851 115.075L215.739 115.733L227.395 82.2713L225.506 81.6135ZM213.859 115.053C213.606 115.727 213.273 116.471 212.857 117.286L214.638 118.195C215.081 117.328 215.447 116.514 215.731 115.755L213.859 115.053ZM212.849 117.301C212.484 118.047 211.988 118.763 211.35 119.45L212.815 120.811C213.574 119.994 214.187 119.118 214.646 118.18L212.849 117.301ZM211.342 119.459C210.745 120.117 209.982 120.668 209.035 121.101L209.867 122.92C211.032 122.387 212.024 121.684 212.823 120.803L211.342 119.459ZM209.029 121.104C208.156 121.511 207.046 121.736 205.664 121.736V123.736C207.254 123.736 208.669 123.478 209.873 122.917L209.029 121.104ZM205.664 121.736C205.064 121.736 204.551 121.694 204.121 121.617L203.77 123.586C204.342 123.688 204.975 123.736 205.664 123.736V121.736ZM204.121 121.617C203.648 121.533 203.144 121.422 202.611 121.284L202.111 123.221C202.687 123.369 203.24 123.492 203.77 123.586L204.121 121.617ZM203.361 122.252V116.935H201.361V122.252H203.361ZM202.261 117.93C202.481 117.952 202.722 117.962 202.979 117.962V115.962C202.77 115.962 202.598 115.954 202.46 115.94L202.261 117.93ZM202.907 117.959C203.173 117.978 203.413 117.989 203.623 117.989V115.989C203.475 115.989 203.285 115.981 203.05 115.964L202.907 117.959ZM203.623 117.989C204.733 117.989 205.719 117.856 206.547 117.551L205.855 115.674C205.323 115.871 204.59 115.989 203.623 115.989V117.989ZM206.525 117.559C207.379 117.267 208.094 116.77 208.633 116.066L207.046 114.85C206.762 115.22 206.384 115.493 205.877 115.667L206.525 117.559ZM208.61 116.096C209.137 115.458 209.546 114.661 209.86 113.739L207.967 113.095C207.708 113.856 207.401 114.419 207.069 114.82L208.61 116.096ZM209.848 113.773L211.996 108.133L210.128 107.421L207.979 113.061L209.848 113.773ZM206.266 82.2362L212.845 103.64L214.757 103.052L208.178 81.6485L206.266 82.2362ZM212.813 103.499L213.968 110.991L215.944 110.687L214.79 103.194L212.813 103.499ZM214.778 109.855L209.89 110.741L210.247 112.709L215.134 111.823L214.778 109.855ZM211.011 111.393L200.511 81.6099L198.625 82.2749L209.125 112.058L211.011 111.393ZM199.568 82.9424H207.222V80.9424H199.568V82.9424ZM256.367 88.0386H257.367V87.0386H256.367V88.0386ZM256.367 93.8394V94.8394H257.367V93.8394H256.367ZM235.796 93.8394H234.796V94.8394H235.796V93.8394ZM235.796 88.0386V87.0386H234.796V88.0386H235.796ZM237.81 71.8984H238.81V70.8984H237.81V71.8984ZM237.81 111V112H238.81V111H237.81ZM230.425 111H229.425V112H230.425V111ZM230.425 71.8984V70.8984H229.425V71.8984H230.425ZM261.846 71.8984H262.846V70.8984H261.846V71.8984ZM261.846 111V112H262.846V111H261.846ZM254.46 111H253.46V112H254.46V111ZM254.46 71.8984V70.8984H253.46V71.8984H254.46ZM255.367 88.0386V93.8394H257.367V88.0386H255.367ZM256.367 92.8394H235.796V94.8394H256.367V92.8394ZM236.796 93.8394V88.0386H234.796V93.8394H236.796ZM235.796 89.0386H256.367V87.0386H235.796V89.0386ZM236.81 71.8984V111H238.81V71.8984H236.81ZM237.81 110H230.425V112H237.81V110ZM231.425 111V71.8984H229.425V111H231.425ZM230.425 72.8984H237.81V70.8984H230.425V72.8984ZM260.846 71.8984V111H262.846V71.8984H260.846ZM261.846 110H254.46V112H261.846V110ZM255.46 111V71.8984H253.46V111H255.46ZM254.46 72.8984H261.846V70.8984H254.46V72.8984ZM286.123 104.098H285.123V104.129L285.125 104.16L286.123 104.098ZM286.123 81.9424V80.9424H285.123V81.9424H286.123ZM293.267 81.9424H294.267V80.9424H293.267V81.9424ZM293.267 111V112H294.267V111H293.267ZM286.553 111L285.555 111.062L285.613 112H286.553V111ZM287.036 98.0825L287.012 97.0828L286.036 97.1066V98.0825H287.036ZM289.238 98.0288H290.238V97.0041L289.214 97.0291L289.238 98.0288ZM286.58 107.724L285.78 107.124L285.778 107.126L286.58 107.724ZM283.169 110.543L283.602 111.445L283.611 111.44L283.169 110.543ZM274.36 110.946L274.031 111.891L274.044 111.895L274.36 110.946ZM271.299 109.04L270.577 109.732L270.584 109.739L270.592 109.747L271.299 109.04ZM269.338 105.683L268.391 106.003L268.392 106.006L269.338 105.683ZM268.64 81.9424V80.9424H267.64V81.9424H268.64ZM275.73 81.9424H276.73V80.9424H275.73V81.9424ZM276.052 103.185L275.104 103.501L275.107 103.513L275.112 103.525L276.052 103.185ZM276.992 104.77L276.27 105.461L276.285 105.477L276.301 105.492L276.992 104.77ZM278.416 105.629L278.099 106.578L278.118 106.584L278.137 106.589L278.416 105.629ZM284.243 104.85L284.812 105.673L284.815 105.671L284.243 104.85ZM286.392 102.057L287.33 102.404L287.331 102.399L286.392 102.057ZM287.123 104.098V81.9424H285.123V104.098H287.123ZM286.123 82.9424H293.267V80.9424H286.123V82.9424ZM292.267 81.9424V111H294.267V81.9424H292.267ZM293.267 110H286.553V112H293.267V110ZM287.551 110.938L287.121 104.036L285.125 104.16L285.555 111.062L287.551 110.938ZM287.061 99.0822L289.263 99.0285L289.214 97.0291L287.012 97.0828L287.061 99.0822ZM288.238 98.0288C288.238 99.9073 288.031 101.621 287.626 103.174L289.561 103.679C290.015 101.939 290.238 100.053 290.238 98.0288H288.238ZM287.626 103.174C287.225 104.711 286.606 106.022 285.78 107.124L287.38 108.324C288.379 106.991 289.103 105.437 289.561 103.679L287.626 103.174ZM285.778 107.126C284.98 108.195 283.967 109.034 282.726 109.647L283.611 111.44C285.128 110.692 286.389 109.651 287.381 108.322L285.778 107.126ZM282.736 109.642C281.52 110.226 280.045 110.537 278.281 110.537V112.537C280.277 112.537 282.061 112.185 283.602 111.445L282.736 109.642ZM278.281 110.537C276.941 110.537 275.742 110.353 274.677 109.998L274.044 111.895C275.342 112.328 276.757 112.537 278.281 112.537V110.537ZM274.689 110.002C273.646 109.638 272.756 109.082 272.006 108.332L270.592 109.747C271.561 110.716 272.712 111.431 274.031 111.891L274.689 110.002ZM272.021 108.347C271.297 107.593 270.711 106.607 270.285 105.359L268.392 106.006C268.896 107.48 269.618 108.732 270.577 109.732L272.021 108.347ZM270.286 105.363C269.864 104.115 269.64 102.573 269.64 100.714H267.64C267.64 102.723 267.881 104.493 268.391 106.003L270.286 105.363ZM269.64 100.714V81.9424H267.64V100.714H269.64ZM268.64 82.9424H275.73V80.9424H268.64V82.9424ZM274.73 81.9424V100.768H276.73V81.9424H274.73ZM274.73 100.768C274.73 101.801 274.844 102.722 275.104 103.501L277.001 102.869C276.831 102.359 276.73 101.669 276.73 100.768H274.73ZM275.112 103.525C275.382 104.274 275.762 104.93 276.27 105.461L277.715 104.078C277.435 103.786 277.188 103.385 276.993 102.845L275.112 103.525ZM276.301 105.492C276.819 105.987 277.421 106.352 278.099 106.578L278.732 104.68C278.336 104.548 277.989 104.339 277.683 104.047L276.301 105.492ZM278.137 106.589C278.79 106.779 279.475 106.871 280.188 106.871V104.871C279.648 104.871 279.151 104.801 278.694 104.669L278.137 106.589ZM280.188 106.871C282.025 106.871 283.601 106.509 284.812 105.673L283.675 104.027C282.915 104.552 281.788 104.871 280.188 104.871V106.871ZM284.815 105.671C285.988 104.854 286.83 103.756 287.33 102.404L285.454 101.711C285.093 102.686 284.504 103.45 283.672 104.029L284.815 105.671ZM287.331 102.399C287.807 101.091 288.036 99.648 288.036 98.0825H286.036C286.036 99.4532 285.836 100.66 285.452 101.715L287.331 102.399ZM299.524 69.75V68.75H298.524V69.75H299.524ZM306.641 69.75H307.641V68.75H306.641V69.75ZM306.641 104.582L307.635 104.69L307.641 104.636V104.582H306.641ZM305.942 111V112H306.839L306.937 111.108L305.942 111ZM299.524 111H298.524V112H299.524V111ZM324.607 102.702L323.641 102.443L323.639 102.452L324.607 102.702ZM322.485 107.401L323.295 107.989L323.298 107.984L322.485 107.401ZM318.94 110.463L319.397 111.353L319.401 111.35L318.94 110.463ZM309.353 110.49L308.882 111.372L308.887 111.374L309.353 110.49ZM306.05 107.536L305.228 108.106L305.232 108.111L306.05 107.536ZM303.901 102.997L302.945 103.29L302.946 103.293L303.901 102.997ZM302.693 97.25H301.693V97.3144L301.701 97.3782L302.693 97.25ZM302.693 95.7192L301.701 95.5921L301.693 95.6554V95.7192H302.693ZM318.94 82.5063L318.48 83.3939L318.486 83.3974L318.493 83.4008L318.94 82.5063ZM322.485 85.5679L321.667 86.1428L321.672 86.1491L321.676 86.1554L322.485 85.5679ZM324.607 90.2407L323.638 90.49L323.642 90.5014L324.607 90.2407ZM317.92 92.6846L316.935 92.8593L316.936 92.862L317.92 92.6846ZM309.38 87.6089L308.949 86.7064L308.941 86.7103L309.38 87.6089ZM307.446 89.1665L306.659 88.5496L306.654 88.5563L306.649 88.5631L307.446 89.1665ZM306.265 91.5029L305.312 91.1982L305.309 91.2068L305.307 91.2156L306.265 91.5029ZM305.728 94.4033L304.731 94.3174L304.728 94.3603V94.4033H305.728ZM305.728 98.5928H304.728V98.6381L304.732 98.6833L305.728 98.5928ZM306.614 102.326L305.692 102.712L305.694 102.718L306.614 102.326ZM308.682 104.931L308.105 105.748L308.112 105.753L308.682 104.931ZM315.154 105.226L315.656 106.091L315.664 106.086L315.671 106.082L315.154 105.226ZM316.98 103.292L317.859 103.77L317.863 103.762L316.98 103.292ZM317.92 100.365L316.935 100.191L316.934 100.198L316.933 100.206L317.92 100.365ZM299.524 70.75H306.641V68.75H299.524V70.75ZM305.641 69.75V104.582H307.641V69.75H305.641ZM305.646 104.473L304.948 110.892L306.937 111.108L307.635 104.69L305.646 104.473ZM305.942 110H299.524V112H305.942V110ZM300.524 111V69.75H298.524V111H300.524ZM324.332 96.1758V96.7397H326.332V96.1758H324.332ZM324.332 96.7397C324.332 98.8322 324.099 100.731 323.641 102.443L325.573 102.96C326.082 101.055 326.332 98.9799 326.332 96.7397H324.332ZM323.639 102.452C323.199 104.158 322.54 105.608 321.672 106.819L323.298 107.984C324.329 106.545 325.084 104.862 325.575 102.951L323.639 102.452ZM321.676 106.814C320.817 107.997 319.754 108.914 318.48 109.575L319.401 111.35C320.955 110.544 322.256 109.42 323.295 107.989L321.676 106.814ZM318.484 109.573C317.254 110.204 315.778 110.537 314.026 110.537V112.537C316.033 112.537 317.834 112.154 319.397 111.353L318.484 109.573ZM314.026 110.537C312.366 110.537 310.975 110.214 309.819 109.605L308.887 111.374C310.381 112.162 312.105 112.537 314.026 112.537V110.537ZM309.824 109.608C308.662 108.987 307.677 108.11 306.867 106.96L305.232 108.111C306.213 109.504 307.43 110.596 308.882 111.372L309.824 109.608ZM306.871 106.965C306.043 105.773 305.368 104.355 304.857 102.702L302.946 103.293C303.509 105.112 304.266 106.721 305.228 108.106L306.871 106.965ZM304.858 102.704C304.339 101.01 303.947 99.1505 303.685 97.1218L301.701 97.3782C301.976 99.5032 302.39 101.475 302.945 103.29L304.858 102.704ZM303.693 97.25V95.7192H301.693V97.25H303.693ZM303.685 95.8464C303.947 93.7998 304.339 91.9414 304.857 90.2676L302.946 89.6767C302.389 91.4763 301.976 93.4492 301.701 95.5921L303.685 95.8464ZM304.857 90.2676C305.368 88.6138 306.043 87.1967 306.871 86.004L305.228 84.8632C304.266 86.2486 303.509 87.8572 302.946 89.6767L304.857 90.2676ZM306.871 86.004C307.681 84.8372 308.665 83.9538 309.824 83.3347L308.882 81.5706C307.427 82.3479 306.209 83.4519 305.228 84.8632L306.871 86.004ZM309.824 83.3347C310.96 82.7277 312.332 82.4053 313.972 82.4053V80.4053C312.067 80.4053 310.36 80.7811 308.882 81.5706L309.824 83.3347ZM313.972 82.4053C315.74 82.4053 317.232 82.7466 318.48 83.3939L319.401 81.6188C317.82 80.798 316 80.4053 313.972 80.4053V82.4053ZM318.493 83.4008C319.776 84.0419 320.83 84.9519 321.667 86.1428L323.304 84.9929C322.278 83.5341 320.97 82.403 319.388 81.6119L318.493 83.4008ZM321.676 86.1554C322.541 87.346 323.2 88.7847 323.639 90.49L325.575 89.9914C325.083 88.0802 324.328 86.4036 323.295 84.9804L321.676 86.1554ZM323.642 90.5014C324.098 92.1939 324.332 94.0831 324.332 96.1758H326.332C326.332 93.9358 326.082 91.8682 325.572 89.9801L323.642 90.5014ZM319.215 96.7397V96.1758H317.215V96.7397H319.215ZM319.215 96.1758C319.215 94.8875 319.113 93.6639 318.904 92.5071L316.936 92.862C317.121 93.8895 317.215 94.9934 317.215 96.1758H319.215ZM318.905 92.5099C318.693 91.3151 318.341 90.2367 317.836 89.2877L316.07 90.2269C316.461 90.9609 316.753 91.8339 316.935 92.8593L318.905 92.5099ZM317.836 89.2877C317.31 88.2997 316.584 87.504 315.659 86.9231L314.595 88.6169C315.21 89.0028 315.701 89.532 316.07 90.2269L317.836 89.2877ZM315.659 86.9231C314.691 86.3152 313.526 86.0449 312.227 86.0449V88.0449C313.254 88.0449 314.024 88.258 314.595 88.6169L315.659 86.9231ZM312.227 86.0449C311.007 86.0449 309.903 86.2512 308.949 86.7064L309.811 88.5114C310.432 88.2146 311.226 88.0449 312.227 88.0449V86.0449ZM308.941 86.7103C308.038 87.1514 307.273 87.766 306.659 88.5496L308.233 89.7834C308.658 89.2422 309.182 88.8183 309.819 88.5075L308.941 86.7103ZM306.649 88.5631C306.071 89.3266 305.629 90.2093 305.312 91.1982L307.217 91.8077C307.474 91.0061 307.819 90.3313 308.244 89.7699L306.649 88.5631ZM305.307 91.2156C305.016 92.1834 304.826 93.2184 304.731 94.3174L306.724 94.4892C306.808 93.5114 306.976 92.6128 307.222 91.7903L305.307 91.2156ZM304.728 94.4033V98.5928H306.728V94.4033H304.728ZM304.732 98.6833C304.865 100.149 305.181 101.495 305.692 102.712L307.536 101.939C307.115 100.936 306.841 99.7939 306.723 98.5022L304.732 98.6833ZM305.694 102.718C306.227 103.97 307.031 104.989 308.105 105.748L309.258 104.114C308.506 103.583 307.931 102.866 307.534 101.934L305.694 102.718ZM308.112 105.753C309.254 106.543 310.669 106.897 312.28 106.897V104.897C310.956 104.897 309.971 104.607 309.251 104.108L308.112 105.753ZM312.28 106.897C313.553 106.897 314.696 106.649 315.656 106.091L314.651 104.362C314.072 104.698 313.299 104.897 312.28 104.897V106.897ZM315.671 106.082C316.599 105.521 317.33 104.743 317.859 103.77L316.101 102.815C315.735 103.489 315.248 104.001 314.636 104.37L315.671 106.082ZM317.863 103.762C318.37 102.808 318.714 101.724 318.907 100.524L316.933 100.206C316.768 101.227 316.485 102.094 316.097 102.823L317.863 103.762ZM318.905 100.54C319.113 99.364 319.215 98.0963 319.215 96.7397H317.215C317.215 97.9972 317.121 99.1464 316.935 100.191L318.905 100.54Z" fill="black" mask="url(#path-2-outside-2_2494_468)"/>
</svg>
