<svg width="51" height="51" viewBox="0 0 51 51" fill="none" xmlns="http://www.w3.org/2000/svg">
<path d="M45.3023 42.5581L32.3681 29.6238C34.3752 27.029 35.4609 23.8564 35.4609 20.5195C35.4609 16.5252 33.9021 12.7799 31.0831 9.95596C28.2642 7.13203 24.5089 5.57812 20.5195 5.57812C16.5302 5.57812 12.7749 7.13701 9.95596 9.95596C7.13203 12.7749 5.57812 16.5252 5.57812 20.5195C5.57812 24.5089 7.13701 28.2642 9.95596 31.0831C12.7749 33.907 16.5252 35.4609 20.5195 35.4609C23.8564 35.4609 27.024 34.3752 29.6189 32.373L42.5531 45.3023C42.5911 45.3403 42.6361 45.3704 42.6856 45.3909C42.7352 45.4115 42.7883 45.4221 42.842 45.4221C42.8956 45.4221 42.9488 45.4115 42.9983 45.3909C43.0479 45.3704 43.0929 45.3403 43.1309 45.3023L45.3023 43.1358C45.3403 43.0979 45.3704 43.0529 45.3909 43.0033C45.4115 42.9538 45.4221 42.9006 45.4221 42.847C45.4221 42.7933 45.4115 42.7402 45.3909 42.6906C45.3704 42.6411 45.3403 42.596 45.3023 42.5581ZM28.4086 28.4086C26.2969 30.5153 23.4979 31.6758 20.5195 31.6758C17.5412 31.6758 14.7422 30.5153 12.6305 28.4086C10.5237 26.2969 9.36328 23.4979 9.36328 20.5195C9.36328 17.5412 10.5237 14.7372 12.6305 12.6305C14.7422 10.5237 17.5412 9.36328 20.5195 9.36328C23.4979 9.36328 26.3019 10.5188 28.4086 12.6305C30.5153 14.7422 31.6758 17.5412 31.6758 20.5195C31.6758 23.4979 30.5153 26.3019 28.4086 28.4086Z" fill="#8B45FF"/>
</svg>
