<svg width="11" height="21" viewBox="0 0 11 21" fill="none" xmlns="http://www.w3.org/2000/svg">
    <path fill-rule="evenodd" clip-rule="evenodd" d="M0.366513 20.6929C0.771506 21.1024 1.42649 21.1024 1.83049 20.6929L10.3933 12.0161C10.585 11.8249 10.7376 11.5947 10.8419 11.3395C10.9462 11.0844 11 10.8097 11 10.532C11 10.2544 10.9462 9.97965 10.8419 9.72452C10.7376 9.46938 10.585 9.23919 10.3933 9.04793L1.76849 0.307119C1.57274 0.111773 1.31353 0.00197651 1.04348 2.6426e-05C0.773429 -0.00192366 0.512798 0.104119 0.314514 0.296619C0.216287 0.391682 0.137693 0.506905 0.0835986 0.635153C0.0295039 0.763401 0.00106025 0.901944 2.90797e-05 1.0422C-0.00100209 1.18246 0.0254012 1.32145 0.0776038 1.45056C0.129806 1.57967 0.206697 1.69615 0.303514 1.79279L8.19737 9.79024C8.29329 9.88588 8.36967 10.001 8.42186 10.1286C8.47405 10.2562 8.50097 10.3937 8.50097 10.5326C8.50097 10.6714 8.47405 10.8089 8.42186 10.9365C8.36967 11.0641 8.29329 11.1792 8.19737 11.2749L0.366513 19.2093C0.270625 19.3049 0.194264 19.4199 0.142083 19.5474C0.0899014 19.675 0.0629912 19.8123 0.0629912 19.9511C0.0629912 20.0899 0.0899014 20.2272 0.142083 20.3548C0.194264 20.4823 0.270625 20.5973 0.366513 20.6929Z" fill="#8B45FF"/>
</svg>
