<svg width="14" height="15" viewBox="0 0 14 15" fill="none" xmlns="http://www.w3.org/2000/svg">
    <path d="M2.24266 9.25733C2.47764 9.5061 2.61192 10.0036 2.53807 10.3519L2.18895 11.9512C2.18895 11.9512 1.67869 13.9058 2.41722 14.3692C3.15575 14.8326 3.46457 14.6109 4.2098 14.1489L6.17694 12.9121C6.48577 12.7202 6.99602 12.7202 7.30485 12.9121L9.27199 14.1489C9.7151 14.4261 10.1179 14.5611 10.4603 14.5611C10.676 14.5673 10.8878 14.5 11.0646 14.3692C11.4808 14.0494 11.6017 13.3812 11.407 12.4928L10.9437 10.3533C10.8632 10.0051 10.9974 9.51463 11.2391 9.25875L12.8639 7.53158C13.3741 6.99139 13.5755 6.41567 13.4278 5.91813C13.2734 5.42059 12.7967 5.07942 12.0851 4.95148L11.407 4.83065C10.984 4.75247 9.64796 4.4312 9.64796 4.4312C9.45326 4.31037 9.27199 4.13267 9.18471 3.94787L8.02994 1.49571C7.69425 0.792047 7.23771 0.401123 6.74089 0.401123C6.24407 0.401123 5.78754 0.792047 5.45185 1.49571L4.29708 3.94787C4.15609 4.23929 3.78683 4.5236 3.48471 4.58046L1.39001 4.95006C0.678351 5.078 0.201673 5.41917 0.0472558 5.91671C-0.100447 6.41425 0.100966 6.98997 0.611213 7.53016L2.24266 9.25733Z" fill="#8B45FF"/>
</svg>
