<svg width="36" height="36" viewBox="0 0 36 36" fill="none" xmlns="http://www.w3.org/2000/svg">
    <path d="M7.75516 25.4093L7.75518 25.4093L7.75655 25.4032C7.90105 24.7576 7.83293 24.0479 7.65724 23.4312C7.48186 22.8155 7.16608 22.1762 6.69964 21.7083L2.34106 17.337C1.10754 16.0999 0.846249 15.0165 1.07858 14.2647C1.32826 13.5124 2.15967 12.7924 3.87997 12.4991C3.88046 12.499 3.88095 12.4989 3.88145 12.4988L9.47462 11.5639L9.47463 11.564L9.48528 11.5621C10.0807 11.4559 10.6693 11.1577 11.1486 10.8054C11.6277 10.4533 12.0916 9.97782 12.3707 9.43138L12.3707 9.43141L12.3755 9.42169L15.4583 3.22009C15.4587 3.21933 15.4591 3.21857 15.4594 3.21782C16.284 1.58163 17.2369 1 18.009 1C18.7811 1 19.7339 1.58162 20.5585 3.2178C20.5589 3.21856 20.5593 3.21932 20.5596 3.22009L23.6424 9.42169L23.6429 9.42272C23.9903 10.1196 24.6451 10.6952 25.2687 11.0619L25.4023 11.1404L25.5534 11.1748L25.7755 10.1998L25.5534 11.1749L25.5536 11.1749L25.5541 11.175L25.5561 11.1755L25.5639 11.1772L25.5942 11.1841L25.71 11.2104C25.8102 11.2331 25.9545 11.2658 26.1312 11.3055C26.4844 11.3851 26.9674 11.4932 27.486 11.6076C28.5128 11.8341 29.7112 12.0923 30.3024 12.1958L30.3024 12.1958L30.3084 12.1969L32.1186 12.5024C32.1186 12.5024 32.1187 12.5025 32.1188 12.5025C33.84 12.7957 34.6717 13.5159 34.9214 14.2684C35.1537 15.0202 34.8924 16.1035 33.6589 17.3406L33.6575 17.3421L29.3183 21.7119C29.3181 21.7122 29.3178 21.7124 29.3176 21.7126C28.8477 22.1843 28.5253 22.8193 28.3476 23.4404C28.1708 24.0583 28.107 24.7677 28.2639 25.4177L29.5 30.8259L29.5006 30.8284C29.996 32.9702 29.5747 34.0983 28.9785 34.5386C28.6833 34.7431 28.3312 34.848 27.973 34.8382L27.9594 34.8379H27.9458C27.2705 34.8379 26.372 34.5808 25.2813 33.9345C25.2812 33.9344 25.281 33.9343 25.2809 33.9342L20.0274 30.8052L20.0229 30.8026C19.4189 30.4471 18.6849 30.3001 18.009 30.3001C17.3331 30.3001 16.599 30.4471 15.995 30.8026L15.9906 30.8052L10.7405 33.9322L10.7352 33.9353L10.6927 33.9603C9.65701 34.5686 9.13723 34.8739 8.6502 34.9709C8.27896 35.0449 7.83553 35.0078 6.96883 34.4926C6.80285 34.3939 6.62119 34.1661 6.50299 33.6696C6.38644 33.1799 6.36685 32.5648 6.41072 31.9203C6.45391 31.2858 6.55457 30.6763 6.64619 30.2208C6.6917 29.9945 6.73427 29.8098 6.76501 29.6832C6.78036 29.62 6.79272 29.5716 6.80095 29.54L6.81004 29.5055L6.81199 29.4982L6.81207 29.4979L6.81216 29.4976L6.81223 29.4974L6.81227 29.4972L6.8177 29.4775L6.82246 29.4568L7.75516 25.4093Z" fill="white" stroke="#8B45FF" stroke-width="2"/>
</svg>
