<svg width="49" height="49" viewBox="0 0 49 49" fill="none" xmlns="http://www.w3.org/2000/svg">
    <rect width="48.0367" height="48.0367" rx="6" fill="#8B45FF"/>
    <path d="M15.3003 15.0117C13.339 17.0633 12.6431 19.8414 13.2504 22.7757C10.7757 23.5959 9.54875 25.7893 9.40416 27.8528C9.38988 28.0131 9.38989 28.1575 9.38989 28.2797L9.38989 28.2867C9.38989 30.8835 11.1041 33.8351 14.9007 34.1122L14.9189 34.1135H14.9371H28.1335C30.0619 34.1135 31.9097 33.3943 33.3235 32.1046C35.5491 30.1494 36.3566 27.1086 35.4645 24.175C35.1136 23.0145 34.5313 21.9949 33.7546 21.1619C32.8251 20.1073 31.6134 19.3619 30.2545 18.9895C29.466 15.8172 27.4332 13.4883 24.5432 12.6037C21.3351 11.6067 17.6297 12.5746 15.3003 15.0117ZM15.3003 15.0117L15.6617 15.3572L15.3003 15.0117Z" fill="white" stroke="white"/>
</svg>
