<svg width="48" height="48" viewBox="0 0 48 48" fill="none" xmlns="http://www.w3.org/2000/svg">
    <rect width="48" height="48" rx="6" fill="#8B45FF"/>
    <path d="M34.5832 21.2833C34.7508 21.1542 35 21.275 35 21.4792V30C35 31.1042 34.0762 32 32.9375 32H15.0625C13.9238 32 13 31.1042 13 30V21.4833C13 21.275 13.2449 21.1583 13.4168 21.2875C14.3793 22.0125 15.6555 22.9333 20.0383 26.0208C20.9449 26.6625 22.4746 28.0125 24 28.0042C25.534 28.0167 27.0937 26.6375 27.966 26.0208C32.3488 22.9333 33.6207 22.0083 34.5832 21.2833ZM24 26.6667C24.9969 26.6833 26.432 25.45 27.1539 24.9417C32.8559 20.9292 33.2898 20.5792 34.6047 19.5792C34.8539 19.3917 35 19.1 35 18.7917V18C35 16.8958 34.0762 16 32.9375 16H15.0625C13.9238 16 13 16.8958 13 18V18.7917C13 19.1 13.1461 19.3875 13.3953 19.5792C14.7102 20.575 15.1441 20.9292 20.8461 24.9417C21.568 25.45 23.0031 26.6833 24 26.6667Z" fill="white"/>
</svg>
