<svg width="48" height="48" viewBox="0 0 48 48" fill="none" xmlns="http://www.w3.org/2000/svg">
    <rect width="48" height="48" rx="6" fill="#8B45FF"/>
    <path d="M22.9999 29.6663C26.1295 29.6663 28.6666 27.1293 28.6666 23.9997C28.6666 20.8701 26.1295 18.333 22.9999 18.333C19.8703 18.333 17.3333 20.8701 17.3333 23.9997C17.3333 27.1293 19.8703 29.6663 22.9999 29.6663Z" fill="white"/>
    <path d="M24.4166 12.7641V9.83301H21.5833V12.7641C19.0903 13.0824 16.7736 14.2193 14.9966 15.9963C13.2195 17.7734 12.0826 20.0901 11.7643 22.583H8.83325V25.4163H11.7643C12.0826 27.9093 13.2195 30.226 14.9966 32.003C16.7736 33.7801 19.0903 34.917 21.5833 35.2353V38.1663H24.4166V35.2353C26.9095 34.917 29.2262 33.7801 31.0033 32.003C32.7803 30.226 33.9172 27.9093 34.2355 25.4163H37.1666V22.583H34.2355C33.9172 20.0901 32.7803 17.7734 31.0033 15.9963C29.2262 14.2193 26.9095 13.0824 24.4166 12.7641ZM22.9999 32.4997C18.3122 32.4997 14.4999 28.6874 14.4999 23.9997C14.4999 19.3119 18.3122 15.4997 22.9999 15.4997C27.6877 15.4997 31.4999 19.3119 31.4999 23.9997C31.4999 28.6874 27.6877 32.4997 22.9999 32.4997Z" fill="white"/>
</svg>
