<svg width="48" height="48" viewBox="0 0 48 48" fill="none" xmlns="http://www.w3.org/2000/svg">
    <rect width="48" height="48" rx="6" fill="#8B45FF"/>
    <path d="M33.7865 14.0751L30.2626 10.5545C29.8325 10.1244 29.2567 9.88281 28.6479 9.88281C28.0391 9.88281 27.4633 10.121 27.0332 10.5545L23.238 14.3431C22.8078 14.7733 22.5663 15.3523 22.5663 15.9611C22.5663 16.5733 22.8045 17.1457 23.238 17.5791L26.2027 20.5471C25.5273 22.1208 24.5569 23.5505 23.3439 24.7593C22.1295 25.9802 20.71 26.9431 19.135 27.6247L16.1703 24.6567C15.7402 24.2266 15.1645 23.985 14.5556 23.985C14.2553 23.9839 13.9578 24.0427 13.6806 24.1581C13.4033 24.2734 13.1518 24.4429 12.9409 24.6567L9.14239 28.4453C8.71225 28.8755 8.4707 29.4545 8.4707 30.0633C8.4707 30.6755 8.70894 31.2479 9.14239 31.6813L12.663 35.2019C13.3975 35.9365 14.41 36.3567 15.449 36.3567C15.6641 36.3567 15.8725 36.3402 16.0843 36.3038C20.4652 35.5824 24.813 33.2497 28.3236 29.7424C31.831 26.2284 34.1604 21.8806 34.8883 17.4964C35.0968 16.2523 34.6799 14.9718 33.7865 14.0751ZM32.5424 17.1027C31.8972 21.0038 29.7994 24.8949 26.6395 28.0549C23.4795 31.2148 19.5917 33.3126 15.6906 33.9578C15.2009 34.0405 14.6979 33.8751 14.3406 33.521L10.8828 30.0633L14.549 26.3938L18.513 30.3644L18.5428 30.3942L19.2575 30.1295C21.4245 29.3328 23.3924 28.0743 25.0247 26.4414C26.657 24.8085 27.9148 22.8402 28.7108 20.6729L28.9755 19.9582L24.9784 15.9644L28.6446 12.2949L32.1023 15.7527C32.4597 16.11 32.6251 16.613 32.5424 17.1027Z" fill="white"/>
</svg>
