<svg width="49" height="49" viewBox="0 0 49 49" fill="none" xmlns="http://www.w3.org/2000/svg">
    <rect width="48.0317" height="48.0317" rx="6" fill="#8B45FF"/>
    <path d="M16.6467 27.3824C17.0587 27.7944 17.2942 28.6185 17.1647 29.1954L16.5525 31.8442C16.5525 31.8442 15.6578 35.0816 16.9528 35.8492C18.2478 36.6167 18.7893 36.2494 20.096 35.4842L23.5454 33.4358C24.0869 33.1179 24.9816 33.1179 25.5232 33.4358L28.9725 35.4842C29.7495 35.9433 30.4558 36.167 31.0562 36.167C31.4343 36.1773 31.8057 36.0659 32.1157 35.8492C32.8456 35.3194 33.0575 34.2128 32.7161 32.7412L31.9038 29.1977C31.7626 28.6209 31.998 27.8086 32.4218 27.3847L35.2708 24.524C36.1655 23.6293 36.5187 22.6757 36.2597 21.8517C35.9889 21.0276 35.153 20.4625 33.9052 20.2506L32.7161 20.0505C31.9745 19.921 29.6318 19.3889 29.6318 19.3889C29.2904 19.1887 28.9725 18.8944 28.8195 18.5883L26.7946 14.5268C26.206 13.3614 25.4054 12.7139 24.5343 12.7139C23.6631 12.7139 22.8626 13.3614 22.2739 14.5268L20.2491 18.5883C20.0019 19.071 19.3544 19.5419 18.8246 19.6361L15.1516 20.2483C13.9037 20.4602 13.0679 21.0252 12.7971 21.8493C12.5381 22.6734 12.8913 23.627 13.786 24.5217L16.6467 27.3824Z" fill="white"/>
</svg>
