<svg width="610" height="702" viewBox="0 0 610 702" fill="none" xmlns="http://www.w3.org/2000/svg">
<mask id="path-1-inside-1_2494_467" fill="white">
<path d="M144.736 41.2708L297.384 125.521L136.382 215.424L144.736 41.2708Z"/>
<path d="M609.12 384.635C606.772 345.822 596.75 308.151 579.572 272.565C562.576 237.365 538.851 205.698 509.716 179.326C479.569 151.94 444.186 130.811 405.695 117.21C373.894 105.891 340.994 99.8234 307.856 99.2285C250.019 42.8556 171.053 11.9713 148.133 3.81334C146.463 3.21905 142.516 1.81436 140.945 1.42357C131.807 -1.49204 121.911 0.122587 114.421 5.79287C106.854 11.4361 102.618 20.4543 102.929 29.9119L108.743 168.059C66.9053 202.423 35.3109 247.373 17.2769 298.191C3.60407 336.607 -2.00027 376.379 0.631335 416.555C3.00547 455.293 12.9254 493.012 30.2057 528.55C47.2848 563.933 70.9129 595.331 100.062 621.789C130.239 649.202 165.223 670.075 204.007 683.878C242.942 697.736 283.274 703.586 324.034 701.505C363.139 699.508 401.242 689.997 437.014 673.341C472.607 656.705 504.203 633.763 530.723 605.141C558.149 575.585 579.197 540.801 592.603 502.876C606.071 464.556 611.751 424.811 609.12 384.635ZM487.833 565.877C466.388 589.082 440.548 607.911 411.748 621.319C382.612 634.947 351.736 642.652 320.066 644.18L319.99 644.153C286.893 645.846 254.126 641.088 222.552 629.851C191.87 618.968 163.61 602.219 139.398 580.566C115.185 558.913 95.4984 532.784 81.4703 503.683C67.4968 474.71 59.3993 444.124 57.5457 412.814L57.5723 412.739C55.4839 380.165 60.083 347.783 71.1756 316.617C85.9125 275.212 111.59 238.627 145.423 210.839L161.32 197.887L155.847 67.1879C166.997 71.6612 182.536 78.4551 199.668 87.5001C231.182 104.19 257.628 122.865 278.202 142.903L290.255 154.687L307.168 154.981C333.948 155.418 360.658 160.378 386.539 169.589C417.221 180.471 445.481 197.221 469.694 218.873C493.906 240.526 513.593 266.655 527.621 295.757C541.595 324.729 549.692 355.315 551.546 386.626L551.644 386.83C553.786 419.253 549.187 451.636 538.143 482.904C526.975 514.043 510.031 541.947 487.833 565.877ZM470.628 324.227C455.145 318.717 438.027 326.687 432.601 341.934L417.944 383.115C412.517 398.361 420.674 415.327 436.233 420.865C451.792 426.402 468.833 418.405 474.259 403.158L488.917 361.977C494.37 346.656 486.111 329.738 470.628 324.227ZM337.656 276.9C322.097 271.363 305.056 279.36 299.629 294.607L284.972 335.788C279.546 351.034 287.778 368.027 303.261 373.537C318.82 379.075 335.861 371.078 341.288 355.831L355.945 314.65C361.398 299.329 353.139 282.411 337.656 276.9Z"/>
<path d="M144.736 41.2708L297.384 125.521L136.382 215.424L144.736 41.2708Z"/>
<path d="M583.782 397.365C583.782 546.482 462.899 667.365 313.782 667.365C164.665 667.365 43.7819 546.482 43.7819 397.365C43.7819 248.248 164.665 127.365 313.782 127.365C462.899 127.365 583.782 248.248 583.782 397.365Z"/>
<path d="M609.12 384.635C606.772 345.822 596.75 308.151 579.572 272.565C562.576 237.365 538.851 205.698 509.716 179.326C479.569 151.94 444.186 130.811 405.695 117.21C373.894 105.891 340.994 99.8234 307.856 99.2285C250.019 42.8556 171.053 11.9713 148.133 3.81334C146.463 3.21905 142.516 1.81436 140.945 1.42357C131.807 -1.49204 121.911 0.122587 114.421 5.79287C106.854 11.4361 102.618 20.4543 102.929 29.9119L108.743 168.059C66.9053 202.423 35.3109 247.373 17.2769 298.191C3.60407 336.607 -2.00027 376.379 0.631335 416.555C3.00547 455.293 12.9254 493.012 30.2057 528.55C47.2848 563.933 70.9129 595.331 100.062 621.789C130.239 649.202 165.223 670.075 204.007 683.878C242.942 697.736 283.274 703.586 324.034 701.505C363.139 699.508 401.242 689.997 437.014 673.341C472.607 656.705 504.203 633.763 530.723 605.141C558.149 575.585 579.197 540.801 592.603 502.876C606.071 464.556 611.751 424.811 609.12 384.635ZM487.833 565.877C466.388 589.082 440.548 607.911 411.748 621.319C382.612 634.947 351.736 642.652 320.066 644.18L319.99 644.153C286.893 645.846 254.126 641.088 222.552 629.851C191.87 618.968 163.61 602.219 139.398 580.566C115.185 558.913 95.4984 532.784 81.4703 503.683C67.4968 474.71 59.3993 444.124 57.5457 412.814L57.5723 412.739C55.4839 380.165 60.083 347.783 71.1756 316.617C85.9125 275.212 111.59 238.627 145.423 210.839L161.32 197.887L155.847 67.1879C166.997 71.6612 182.536 78.4551 199.668 87.5001C231.182 104.19 257.628 122.865 278.202 142.903L290.255 154.687L307.168 154.981C333.948 155.418 360.658 160.378 386.539 169.589C417.221 180.471 445.481 197.221 469.694 218.873C493.906 240.526 513.593 266.655 527.621 295.757C541.595 324.729 549.692 355.315 551.546 386.626L551.644 386.83C553.786 419.253 549.187 451.636 538.143 482.904C526.975 514.043 510.031 541.947 487.833 565.877ZM470.628 324.227C455.145 318.717 438.027 326.687 432.601 341.934L417.944 383.115C412.517 398.361 420.674 415.327 436.233 420.865C451.792 426.402 468.833 418.405 474.259 403.158L488.917 361.977C494.37 346.656 486.111 329.738 470.628 324.227ZM337.656 276.9C322.097 271.363 305.056 279.36 299.629 294.607L284.972 335.788C279.546 351.034 287.778 368.027 303.261 373.537C318.82 379.075 335.861 371.078 341.288 355.831L355.945 314.65C361.398 299.329 353.139 282.411 337.656 276.9Z"/>
</mask>
<path d="M144.736 41.2708L297.384 125.521L136.382 215.424L144.736 41.2708Z" fill="#8B45FF"/>
<path d="M609.12 384.635C606.772 345.822 596.75 308.151 579.572 272.565C562.576 237.365 538.851 205.698 509.716 179.326C479.569 151.94 444.186 130.811 405.695 117.21C373.894 105.891 340.994 99.8234 307.856 99.2285C250.019 42.8556 171.053 11.9713 148.133 3.81334C146.463 3.21905 142.516 1.81436 140.945 1.42357C131.807 -1.49204 121.911 0.122587 114.421 5.79287C106.854 11.4361 102.618 20.4543 102.929 29.9119L108.743 168.059C66.9053 202.423 35.3109 247.373 17.2769 298.191C3.60407 336.607 -2.00027 376.379 0.631335 416.555C3.00547 455.293 12.9254 493.012 30.2057 528.55C47.2848 563.933 70.9129 595.331 100.062 621.789C130.239 649.202 165.223 670.075 204.007 683.878C242.942 697.736 283.274 703.586 324.034 701.505C363.139 699.508 401.242 689.997 437.014 673.341C472.607 656.705 504.203 633.763 530.723 605.141C558.149 575.585 579.197 540.801 592.603 502.876C606.071 464.556 611.751 424.811 609.12 384.635ZM487.833 565.877C466.388 589.082 440.548 607.911 411.748 621.319C382.612 634.947 351.736 642.652 320.066 644.18L319.99 644.153C286.893 645.846 254.126 641.088 222.552 629.851C191.87 618.968 163.61 602.219 139.398 580.566C115.185 558.913 95.4984 532.784 81.4703 503.683C67.4968 474.71 59.3993 444.124 57.5457 412.814L57.5723 412.739C55.4839 380.165 60.083 347.783 71.1756 316.617C85.9125 275.212 111.59 238.627 145.423 210.839L161.32 197.887L155.847 67.1879C166.997 71.6612 182.536 78.4551 199.668 87.5001C231.182 104.19 257.628 122.865 278.202 142.903L290.255 154.687L307.168 154.981C333.948 155.418 360.658 160.378 386.539 169.589C417.221 180.471 445.481 197.221 469.694 218.873C493.906 240.526 513.593 266.655 527.621 295.757C541.595 324.729 549.692 355.315 551.546 386.626L551.644 386.83C553.786 419.253 549.187 451.636 538.143 482.904C526.975 514.043 510.031 541.947 487.833 565.877ZM470.628 324.227C455.145 318.717 438.027 326.687 432.601 341.934L417.944 383.115C412.517 398.361 420.674 415.327 436.233 420.865C451.792 426.402 468.833 418.405 474.259 403.158L488.917 361.977C494.37 346.656 486.111 329.738 470.628 324.227ZM337.656 276.9C322.097 271.363 305.056 279.36 299.629 294.607L284.972 335.788C279.546 351.034 287.778 368.027 303.261 373.537C318.82 379.075 335.861 371.078 341.288 355.831L355.945 314.65C361.398 299.329 353.139 282.411 337.656 276.9Z" fill="#8B45FF"/>
<path d="M144.736 41.2708L297.384 125.521L136.382 215.424L144.736 41.2708Z" fill="#8B45FF"/>
<path d="M583.782 397.365C583.782 546.482 462.899 667.365 313.782 667.365C164.665 667.365 43.7819 546.482 43.7819 397.365C43.7819 248.248 164.665 127.365 313.782 127.365C462.899 127.365 583.782 248.248 583.782 397.365Z" fill="#8B45FF"/>
<path d="M609.12 384.635C606.772 345.822 596.75 308.151 579.572 272.565C562.576 237.365 538.851 205.698 509.716 179.326C479.569 151.94 444.186 130.811 405.695 117.21C373.894 105.891 340.994 99.8234 307.856 99.2285C250.019 42.8556 171.053 11.9713 148.133 3.81334C146.463 3.21905 142.516 1.81436 140.945 1.42357C131.807 -1.49204 121.911 0.122587 114.421 5.79287C106.854 11.4361 102.618 20.4543 102.929 29.9119L108.743 168.059C66.9053 202.423 35.3109 247.373 17.2769 298.191C3.60407 336.607 -2.00027 376.379 0.631335 416.555C3.00547 455.293 12.9254 493.012 30.2057 528.55C47.2848 563.933 70.9129 595.331 100.062 621.789C130.239 649.202 165.223 670.075 204.007 683.878C242.942 697.736 283.274 703.586 324.034 701.505C363.139 699.508 401.242 689.997 437.014 673.341C472.607 656.705 504.203 633.763 530.723 605.141C558.149 575.585 579.197 540.801 592.603 502.876C606.071 464.556 611.751 424.811 609.12 384.635ZM487.833 565.877C466.388 589.082 440.548 607.911 411.748 621.319C382.612 634.947 351.736 642.652 320.066 644.18L319.99 644.153C286.893 645.846 254.126 641.088 222.552 629.851C191.87 618.968 163.61 602.219 139.398 580.566C115.185 558.913 95.4984 532.784 81.4703 503.683C67.4968 474.71 59.3993 444.124 57.5457 412.814L57.5723 412.739C55.4839 380.165 60.083 347.783 71.1756 316.617C85.9125 275.212 111.59 238.627 145.423 210.839L161.32 197.887L155.847 67.1879C166.997 71.6612 182.536 78.4551 199.668 87.5001C231.182 104.19 257.628 122.865 278.202 142.903L290.255 154.687L307.168 154.981C333.948 155.418 360.658 160.378 386.539 169.589C417.221 180.471 445.481 197.221 469.694 218.873C493.906 240.526 513.593 266.655 527.621 295.757C541.595 324.729 549.692 355.315 551.546 386.626L551.644 386.83C553.786 419.253 549.187 451.636 538.143 482.904C526.975 514.043 510.031 541.947 487.833 565.877ZM470.628 324.227C455.145 318.717 438.027 326.687 432.601 341.934L417.944 383.115C412.517 398.361 420.674 415.327 436.233 420.865C451.792 426.402 468.833 418.405 474.259 403.158L488.917 361.977C494.37 346.656 486.111 329.738 470.628 324.227ZM337.656 276.9C322.097 271.363 305.056 279.36 299.629 294.607L284.972 335.788C279.546 351.034 287.778 368.027 303.261 373.537C318.82 379.075 335.861 371.078 341.288 355.831L355.945 314.65C361.398 299.329 353.139 282.411 337.656 276.9Z" fill="#8B45FF"/>
<path d="M144.736 41.2708L297.384 125.521L136.382 215.424L144.736 41.2708Z" stroke="#8B45FF" stroke-width="2" mask="url(#path-1-inside-1_2494_467)"/>
<path d="M609.12 384.635C606.772 345.822 596.75 308.151 579.572 272.565C562.576 237.365 538.851 205.698 509.716 179.326C479.569 151.94 444.186 130.811 405.695 117.21C373.894 105.891 340.994 99.8234 307.856 99.2285C250.019 42.8556 171.053 11.9713 148.133 3.81334C146.463 3.21905 142.516 1.81436 140.945 1.42357C131.807 -1.49204 121.911 0.122587 114.421 5.79287C106.854 11.4361 102.618 20.4543 102.929 29.9119L108.743 168.059C66.9053 202.423 35.3109 247.373 17.2769 298.191C3.60407 336.607 -2.00027 376.379 0.631335 416.555C3.00547 455.293 12.9254 493.012 30.2057 528.55C47.2848 563.933 70.9129 595.331 100.062 621.789C130.239 649.202 165.223 670.075 204.007 683.878C242.942 697.736 283.274 703.586 324.034 701.505C363.139 699.508 401.242 689.997 437.014 673.341C472.607 656.705 504.203 633.763 530.723 605.141C558.149 575.585 579.197 540.801 592.603 502.876C606.071 464.556 611.751 424.811 609.12 384.635ZM487.833 565.877C466.388 589.082 440.548 607.911 411.748 621.319C382.612 634.947 351.736 642.652 320.066 644.18L319.99 644.153C286.893 645.846 254.126 641.088 222.552 629.851C191.87 618.968 163.61 602.219 139.398 580.566C115.185 558.913 95.4984 532.784 81.4703 503.683C67.4968 474.71 59.3993 444.124 57.5457 412.814L57.5723 412.739C55.4839 380.165 60.083 347.783 71.1756 316.617C85.9125 275.212 111.59 238.627 145.423 210.839L161.32 197.887L155.847 67.1879C166.997 71.6612 182.536 78.4551 199.668 87.5001C231.182 104.19 257.628 122.865 278.202 142.903L290.255 154.687L307.168 154.981C333.948 155.418 360.658 160.378 386.539 169.589C417.221 180.471 445.481 197.221 469.694 218.873C493.906 240.526 513.593 266.655 527.621 295.757C541.595 324.729 549.692 355.315 551.546 386.626L551.644 386.83C553.786 419.253 549.187 451.636 538.143 482.904C526.975 514.043 510.031 541.947 487.833 565.877ZM470.628 324.227C455.145 318.717 438.027 326.687 432.601 341.934L417.944 383.115C412.517 398.361 420.674 415.327 436.233 420.865C451.792 426.402 468.833 418.405 474.259 403.158L488.917 361.977C494.37 346.656 486.111 329.738 470.628 324.227ZM337.656 276.9C322.097 271.363 305.056 279.36 299.629 294.607L284.972 335.788C279.546 351.034 287.778 368.027 303.261 373.537C318.82 379.075 335.861 371.078 341.288 355.831L355.945 314.65C361.398 299.329 353.139 282.411 337.656 276.9Z" stroke="#8B45FF" stroke-width="2" mask="url(#path-1-inside-1_2494_467)"/>
<path d="M144.736 41.2708L297.384 125.521L136.382 215.424L144.736 41.2708Z" stroke="#8B45FF" stroke-width="2" mask="url(#path-1-inside-1_2494_467)"/>
<path d="M583.782 397.365C583.782 546.482 462.899 667.365 313.782 667.365C164.665 667.365 43.7819 546.482 43.7819 397.365C43.7819 248.248 164.665 127.365 313.782 127.365C462.899 127.365 583.782 248.248 583.782 397.365Z" stroke="#8B45FF" stroke-width="2" mask="url(#path-1-inside-1_2494_467)"/>
<path d="M609.12 384.635C606.772 345.822 596.75 308.151 579.572 272.565C562.576 237.365 538.851 205.698 509.716 179.326C479.569 151.94 444.186 130.811 405.695 117.21C373.894 105.891 340.994 99.8234 307.856 99.2285C250.019 42.8556 171.053 11.9713 148.133 3.81334C146.463 3.21905 142.516 1.81436 140.945 1.42357C131.807 -1.49204 121.911 0.122587 114.421 5.79287C106.854 11.4361 102.618 20.4543 102.929 29.9119L108.743 168.059C66.9053 202.423 35.3109 247.373 17.2769 298.191C3.60407 336.607 -2.00027 376.379 0.631335 416.555C3.00547 455.293 12.9254 493.012 30.2057 528.55C47.2848 563.933 70.9129 595.331 100.062 621.789C130.239 649.202 165.223 670.075 204.007 683.878C242.942 697.736 283.274 703.586 324.034 701.505C363.139 699.508 401.242 689.997 437.014 673.341C472.607 656.705 504.203 633.763 530.723 605.141C558.149 575.585 579.197 540.801 592.603 502.876C606.071 464.556 611.751 424.811 609.12 384.635ZM487.833 565.877C466.388 589.082 440.548 607.911 411.748 621.319C382.612 634.947 351.736 642.652 320.066 644.18L319.99 644.153C286.893 645.846 254.126 641.088 222.552 629.851C191.87 618.968 163.61 602.219 139.398 580.566C115.185 558.913 95.4984 532.784 81.4703 503.683C67.4968 474.71 59.3993 444.124 57.5457 412.814L57.5723 412.739C55.4839 380.165 60.083 347.783 71.1756 316.617C85.9125 275.212 111.59 238.627 145.423 210.839L161.32 197.887L155.847 67.1879C166.997 71.6612 182.536 78.4551 199.668 87.5001C231.182 104.19 257.628 122.865 278.202 142.903L290.255 154.687L307.168 154.981C333.948 155.418 360.658 160.378 386.539 169.589C417.221 180.471 445.481 197.221 469.694 218.873C493.906 240.526 513.593 266.655 527.621 295.757C541.595 324.729 549.692 355.315 551.546 386.626L551.644 386.83C553.786 419.253 549.187 451.636 538.143 482.904C526.975 514.043 510.031 541.947 487.833 565.877ZM470.628 324.227C455.145 318.717 438.027 326.687 432.601 341.934L417.944 383.115C412.517 398.361 420.674 415.327 436.233 420.865C451.792 426.402 468.833 418.405 474.259 403.158L488.917 361.977C494.37 346.656 486.111 329.738 470.628 324.227ZM337.656 276.9C322.097 271.363 305.056 279.36 299.629 294.607L284.972 335.788C279.546 351.034 287.778 368.027 303.261 373.537C318.82 379.075 335.861 371.078 341.288 355.831L355.945 314.65C361.398 299.329 353.139 282.411 337.656 276.9Z" stroke="#8B45FF" stroke-width="2" mask="url(#path-1-inside-1_2494_467)"/>
</svg>
