<svg width="30" height="29" viewBox="0 0 30 29" fill="none" xmlns="http://www.w3.org/2000/svg">
<path d="M12.5 12.0476H12.75V11.7976V2.35952C12.75 1.80486 12.9833 1.26977 13.4038 0.872897C13.8248 0.47556 14.3987 0.25 15 0.25C15.6013 0.25 16.1752 0.47556 16.5962 0.872897C17.0167 1.26977 17.25 1.80486 17.25 2.35952V11.7976V12.0476H17.5H27.5C28.1013 12.0476 28.6752 12.2731 29.0962 12.6705C29.5167 13.0673 29.75 13.6024 29.75 14.1571C29.75 14.7118 29.5167 15.2468 29.0962 15.6437C28.6752 16.041 28.1013 16.2666 27.5 16.2666H17.5H17.25V16.5166V25.9547C17.25 26.5093 17.0167 27.0444 16.5962 27.4413C16.1752 27.8386 15.6013 28.0642 15 28.0642C14.3987 28.0642 13.8248 27.8386 13.4038 27.4413C12.9833 27.0444 12.75 26.5093 12.75 25.9547V16.5166V16.2666H12.5H2.5C1.89875 16.2666 1.32482 16.041 0.903828 15.6437C0.483323 15.2468 0.25 14.7118 0.25 14.1571C0.25 13.6024 0.483323 13.0673 0.903828 12.6705C1.32482 12.2731 1.89875 12.0476 2.5 12.0476H12.5Z" fill="#8B45FF" stroke="#7623FD" stroke-width="0.5"/>
</svg>
