<svg width="561" height="705" viewBox="0 0 611 705" fill="none" xmlns="http://www.w3.org/2000/svg">
<path d="M609.686 390.977C607.821 352.138 598.268 314.345 581.535 278.548C564.979 243.14 541.649 211.18 512.844 184.448C483.04 156.689 447.922 135.121 409.604 121.042C377.946 109.328 345.124 102.852 311.997 101.845C254.866 44.7563 176.29 12.892 153.472 4.44949C151.81 3.83447 147.881 2.38079 146.315 1.97049C137.214 -1.0586 127.299 0.432793 119.738 6.00944C112.102 11.5581 107.754 20.5229 107.947 29.9836L112.043 168.192C69.7805 202.033 37.6292 246.587 18.9644 297.177C4.81465 335.419 -1.28408 375.118 0.847445 415.324C2.73944 454.089 12.1893 491.928 29.0261 527.679C45.6637 563.271 68.8993 594.961 97.7166 621.779C127.55 649.566 162.273 670.872 200.881 685.157C239.641 699.498 279.897 705.85 320.68 704.276C359.807 702.766 398.025 693.729 434.001 677.519C469.799 661.328 501.678 638.781 528.552 610.49C556.343 581.278 577.822 546.759 591.699 509.004C605.643 470.854 611.817 431.183 609.686 390.977ZM486.153 570.696C464.421 593.633 438.35 612.139 409.384 625.187C380.081 638.452 349.112 645.772 317.426 646.905L317.35 646.877C284.234 648.159 251.528 642.994 220.098 631.364C189.553 620.101 161.504 603.001 137.562 581.049C113.621 559.096 94.261 532.725 80.5961 503.451C66.9842 474.307 59.2678 443.622 57.8039 412.291L57.8314 412.217C56.1485 379.62 61.1501 347.297 72.6296 316.271C87.8805 275.053 114.011 238.79 148.187 211.425L164.244 198.673L163.646 178.235L160.398 67.9151C171.491 72.5268 186.944 79.5135 203.963 88.771C235.267 105.852 261.478 124.854 281.802 145.147L293.707 157.08L310.614 157.584C337.387 158.354 364.034 163.646 389.798 173.179C420.342 184.442 448.392 201.541 472.333 223.494C496.274 245.446 515.634 271.818 529.299 301.092C542.911 330.236 550.628 360.92 552.092 392.252L552.14 392.354L552.188 392.456C553.926 424.904 548.924 457.227 537.492 488.355C525.937 519.353 508.648 547.045 486.153 570.696ZM471.956 328.851C456.543 323.148 439.328 330.905 433.712 346.083L418.544 387.078C412.928 402.256 420.873 419.322 436.361 425.053C451.85 430.784 468.99 422.999 474.606 407.821L489.774 366.826C495.417 351.573 487.369 334.554 471.956 328.851ZM339.584 279.873C324.095 274.143 306.955 281.927 301.339 297.105L286.171 338.101C280.555 353.279 288.576 370.372 303.989 376.075C319.478 381.806 336.617 374.021 342.233 358.843L357.401 317.848C363.045 302.596 354.997 285.576 339.584 279.873Z" fill="#8B45FF" fill-opacity="0.27"/>
<path d="M409.604 121.042C447.922 135.121 483.04 156.689 512.844 184.448C541.649 211.18 564.979 243.14 581.535 278.548C598.268 314.345 607.821 352.138 609.686 390.977L409.604 121.042ZM409.604 121.042C377.946 109.328 345.124 102.852 311.997 101.845L409.604 121.042ZM609.186 391.001L609.187 391.003C611.314 431.14 605.151 470.744 591.23 508.831C577.376 546.522 555.934 580.983 528.189 610.146L528.552 610.49L528.189 610.146C501.36 638.389 469.535 660.898 433.796 677.064C397.878 693.247 359.723 702.268 320.66 703.776C279.943 705.347 239.753 699.007 201.055 684.688C162.507 670.426 127.842 649.154 98.0574 621.413C69.286 594.637 46.0889 563 29.479 527.467L29.4784 527.466C12.6692 491.773 3.23561 453.998 1.34686 415.3L1.34674 415.298C-0.781127 375.161 5.30686 335.53 19.4333 297.35C38.0667 246.845 70.1637 202.367 112.355 168.583L112.55 168.427L112.543 168.178L108.447 29.9734C108.447 29.9726 108.447 29.9719 108.447 29.9711C108.258 20.6708 112.532 11.8636 120.032 6.41394L120.032 6.41395L120.035 6.41183C127.461 0.934649 137.206 -0.534439 146.157 2.4449L146.173 2.45004L146.189 2.45416C147.724 2.85648 151.622 4.29786 153.299 4.91842C176.101 13.3553 254.592 45.1895 311.643 102.198L311.783 102.338L311.981 102.344C345.054 103.35 377.822 109.816 409.43 121.511L409.432 121.511C447.688 135.567 482.748 157.1 512.503 184.814L512.504 184.814C541.262 211.503 564.553 243.41 581.082 278.76C597.789 314.5 607.325 352.229 609.186 391.001ZM219.924 631.833C251.385 643.474 284.123 648.65 317.27 647.381L317.345 647.409L317.443 647.405C349.196 646.269 380.228 638.934 409.59 625.643C438.614 612.568 464.739 594.025 486.516 571.04C509.057 547.34 526.383 519.59 537.961 488.53L537.962 488.528C549.416 457.338 554.429 424.948 552.687 392.43L552.682 392.332L552.64 392.244L552.592 392.142L552.586 392.129C551.108 360.765 543.377 330.051 529.752 300.881C516.06 271.547 496.66 245.122 472.671 223.125C448.682 201.129 420.576 183.995 389.971 172.709C364.158 163.159 337.458 157.856 310.629 157.084L293.921 156.586L282.155 144.794L282.155 144.793C261.791 124.46 235.539 105.43 204.203 88.3321L204.202 88.3317C187.165 79.0644 171.695 72.0704 160.59 67.4534L159.876 67.1563L159.899 67.9298L163.146 178.249L163.737 198.437L147.876 211.034L147.875 211.035C113.627 238.457 87.443 274.794 72.1607 316.098C60.6701 347.153 55.6561 379.509 57.3268 412.14L57.2997 412.213L57.3045 412.314C58.7715 443.713 66.5045 474.461 80.143 503.662C93.8358 532.996 113.235 559.421 137.224 581.417C161.214 603.414 189.319 620.548 219.924 631.833ZM552.092 392.252L552.387 392.238L552.092 392.252ZM434.181 346.256C439.698 331.344 456.621 323.711 471.783 329.32C486.944 334.93 494.85 351.666 489.305 366.652L474.137 407.648C468.619 422.561 451.771 430.221 436.535 424.584C421.299 418.947 413.495 402.165 419.013 387.252L434.181 346.256ZM301.808 297.279C307.326 282.366 324.174 274.705 339.41 280.342C354.572 285.952 362.477 302.689 356.932 317.674L341.764 358.67C336.246 373.583 319.398 381.243 304.162 375.606C289.001 369.997 281.123 353.186 286.64 338.274L301.808 297.279Z" stroke="#8B45FF" stroke-opacity="0.19"/>
</svg>
