<svg width="20" height="24" viewBox="0 0 20 34" fill="none" xmlns="http://www.w3.org/2000/svg">
<path fill-rule="evenodd" clip-rule="evenodd" d="M19.3336 0.497223C18.5973 -0.165741 17.4064 -0.165741 16.6718 0.497223L1.10303 14.5453C0.754528 14.855 0.47703 15.2277 0.287407 15.6407C0.097784 16.0538 0 16.4986 0 16.9481C0 17.3977 0.097784 17.8425 0.287407 18.2555C0.47703 18.6686 0.754528 19.0413 1.10303 19.351L16.7846 33.5028C17.1405 33.819 17.6118 33.9968 18.1028 34C18.5938 34.0031 19.0676 33.8314 19.4282 33.5198C19.6068 33.3658 19.7496 33.1793 19.848 32.9717C19.9464 32.764 19.9981 32.5397 19.9999 32.3126C20.0018 32.0855 19.9538 31.8605 19.8589 31.6515C19.764 31.4424 19.6242 31.2539 19.4482 31.0974L5.09569 18.1491C4.92129 17.9943 4.78242 17.8079 4.68753 17.6013C4.59263 17.3947 4.54369 17.1722 4.54369 16.9473C4.54369 16.7224 4.59263 16.4999 4.68753 16.2933C4.78242 16.0867 4.92129 15.9003 5.09569 15.7455L19.3336 2.8992C19.508 2.74451 19.6468 2.55826 19.7417 2.35178C19.8365 2.14531 19.8855 1.92294 19.8855 1.69822C19.8855 1.47349 19.8365 1.25112 19.7417 1.04465C19.6468 0.838173 19.508 0.651917 19.3336 0.497223Z" fill="#8B45FF"/>
</svg>
