<svg width="21" height="21" viewBox="0 0 21 21" fill="none" xmlns="http://www.w3.org/2000/svg">
<path d="M4.25122 0.170898H6.25122V2.1709H4.25122V0.170898ZM6.25122 3.1709H4.25122V6.1709H0.251221V15.1709H6.25122V13.1709H8.25122V15.1709H12.2512V13.1709H14.2512V15.1709H20.2512V6.1709H16.2512V3.1709H14.2512V6.1709H11.2512V3.1709H9.25122V6.1709H6.25122V3.1709ZM18.2512 13.1709H14.2512V10.1709H12.2512V13.1709H8.25122V10.1709H6.25122V13.1709H2.25122V8.1709H18.2512V13.1709ZM0.251221 18.1709H20.2512V20.1709H0.251221V18.1709ZM11.2512 0.170898H9.25122V2.1709H11.2512V0.170898ZM14.2512 0.170898H16.2512V2.1709H14.2512V0.170898ZM0.251221 15.1709H2.25122V18.1709H0.251221V15.1709ZM18.2512 15.1709H20.2512V18.1709H18.2512V15.1709Z" fill="#8B45FF"/>
</svg>
