<svg width="24" height="24" viewBox="0 0 26 26" fill="none" xmlns="http://www.w3.org/2000/svg">
<path d="M5.22402 21.4C5.99202 18.76 7.43202 17.8 9.08802 17.8H16.912C18.568 17.8 20.008 18.76 20.776 21.4M16.6 10.6C16.6 12.5882 14.9882 14.2 13 14.2C11.0118 14.2 9.4 12.5882 9.4 10.6C9.4 8.61178 11.0118 7 13 7C14.9882 7 16.6 8.61178 16.6 10.6ZM25 13C25 19.6274 19.6274 25 13 25C6.37258 25 1 19.6274 1 13C1 6.37258 6.37258 1 13 1C19.6274 1 25 6.37258 25 13Z" stroke="#8B45FF" stroke-width="2"/>
</svg>

