<svg width="243" height="71" viewBox="0 0 243 71" fill="none" xmlns="http://www.w3.org/2000/svg">
<path d="M58.6375 20.0273C57.1441 16.5182 54.9792 13.3671 52.2217 10.6439C49.4937 7.95034 46.2601 5.80461 42.7007 4.32602C39.0146 2.787 35.0503 1.9983 31.0465 2.0074C27.7359 2.0074 24.4964 2.5287 21.4149 3.56352C14.2169 0.25676 5.90484 0 3.51868 0C3.34485 0 2.93399 -2.37487e-07 2.77596 0.015561C1.83572 0.0466834 0.97449 0.521302 0.468813 1.29158C-0.0447654 2.06186 -0.139579 3.03444 0.200172 3.89809L5.28065 16.4716C2.54493 21.0226 1.10389 26.2151 1.10881 31.5037C1.10881 35.5029 1.89893 39.3621 3.46337 42.9879C4.9567 46.4892 7.11373 49.6481 9.87915 52.3635C12.6209 55.0712 15.8367 57.1953 19.4001 58.6814C23.09 60.2219 27.009 61 31.0465 61C35.0998 61 39.0188 60.2142 42.7165 58.6814C46.2642 57.2108 49.4721 55.079 52.2296 52.3635C54.9713 49.6559 57.1362 46.4969 58.6454 42.9801C60.2075 39.3472 61.0084 35.4411 60.9999 31.4959C60.9841 27.5122 60.2019 23.6531 58.6375 20.0273ZM53.3911 40.7626C52.1727 43.6121 50.4044 46.2016 48.1842 48.3876C45.9402 50.6051 43.3407 52.3324 40.4647 53.515H40.4568C37.4543 54.7599 34.2702 55.398 30.9833 55.398C27.7904 55.4015 24.6283 54.7832 21.679 53.5788C18.7297 52.3743 16.0514 50.6075 13.7981 48.3798C11.5542 46.1624 9.80013 43.6026 8.59915 40.7704V40.7626C7.33496 37.8216 6.69496 34.6782 6.69496 31.4337C6.69496 27.1232 7.86434 22.8983 10.0767 19.2181L11.1196 17.4986L6.3157 5.60204C7.49298 5.64872 9.15224 5.76543 11.0327 6.03776C14.4935 6.5435 17.5512 7.39936 20.1112 8.57423L21.6124 9.26671L23.1848 8.73763C25.6737 7.89732 28.3048 7.47717 30.9991 7.47717C34.1919 7.47364 37.354 8.09188 40.3033 9.29633C43.2526 10.5008 45.9309 12.2676 48.1842 14.4953C50.4281 16.7128 52.1822 19.2726 53.3832 22.1047L53.399 22.1203C54.6632 25.0458 55.3032 28.1892 55.3111 31.4415C55.3032 34.686 54.6553 37.8216 53.3911 40.7626ZM43.8543 19.0003C42.2425 19.0003 40.923 20.2996 40.923 21.8869V26.174C40.923 27.7612 42.2346 29.0606 43.8543 29.0606C45.4741 29.0606 46.7857 27.7612 46.7857 26.174V21.8869C46.7857 20.2918 45.4662 19.0003 43.8543 19.0003ZM30.0114 19.0003C28.3917 19.0003 27.0801 20.2996 27.0801 21.8869V26.174C27.0801 27.7612 28.3996 29.0606 30.0114 29.0606C31.6312 29.0606 32.9428 27.7612 32.9428 26.174V21.8869C32.9428 20.2918 31.6233 19.0003 30.0114 19.0003Z" fill="white"/>
<path d="M55.1919 42.0376V47.1792H38.4927V42.0376H55.1919ZM40.4482 29.0078V61H33.8564V29.0078H40.4482ZM59.894 29.0078V61H53.3242V29.0078H59.894Z" fill="white"/>
<path d="M64.2227 49.3545V48.8931C64.2227 47.1499 64.4717 45.5459 64.9697 44.0811C65.4678 42.6016 66.1929 41.3198 67.145 40.2358C68.0972 39.1519 69.269 38.3096 70.6606 37.709C72.0522 37.0938 73.6489 36.7861 75.4507 36.7861C77.2524 36.7861 78.8564 37.0938 80.2627 37.709C81.6689 38.3096 82.8481 39.1519 83.8003 40.2358C84.7671 41.3198 85.4995 42.6016 85.9976 44.0811C86.4956 45.5459 86.7446 47.1499 86.7446 48.8931V49.3545C86.7446 51.083 86.4956 52.687 85.9976 54.1665C85.4995 55.6313 84.7671 56.9131 83.8003 58.0117C82.8481 59.0957 81.6763 59.938 80.2847 60.5386C78.8931 61.1392 77.2964 61.4395 75.4946 61.4395C73.6929 61.4395 72.0889 61.1392 70.6826 60.5386C69.291 59.938 68.1118 59.0957 67.145 58.0117C66.1929 56.9131 65.4678 55.6313 64.9697 54.1665C64.4717 52.687 64.2227 51.083 64.2227 49.3545ZM70.5508 48.8931V49.3545C70.5508 50.3506 70.6387 51.2808 70.8145 52.145C70.9902 53.0093 71.2686 53.771 71.6494 54.4302C72.0449 55.0747 72.5576 55.5801 73.1875 55.9463C73.8174 56.3125 74.5864 56.4956 75.4946 56.4956C76.3735 56.4956 77.1279 56.3125 77.7578 55.9463C78.3877 55.5801 78.8931 55.0747 79.2739 54.4302C79.6548 53.771 79.9331 53.0093 80.1089 52.145C80.2993 51.2808 80.3945 50.3506 80.3945 49.3545V48.8931C80.3945 47.9263 80.2993 47.0181 80.1089 46.1685C79.9331 45.3042 79.6475 44.5425 79.252 43.8833C78.8711 43.2095 78.3657 42.6821 77.7358 42.3013C77.106 41.9204 76.3442 41.73 75.4507 41.73C74.5571 41.73 73.7954 41.9204 73.1655 42.3013C72.5503 42.6821 72.0449 43.2095 71.6494 43.8833C71.2686 44.5425 70.9902 45.3042 70.8145 46.1685C70.6387 47.0181 70.5508 47.9263 70.5508 48.8931Z" fill="white"/>
<path d="M90.6338 27.25H96.9619V55.5508L96.3247 61H90.6338V27.25ZM112.013 48.8711V49.3325C112.013 51.105 111.823 52.731 111.442 54.2104C111.076 55.6899 110.504 56.9717 109.728 58.0557C108.952 59.125 107.985 59.96 106.828 60.5605C105.685 61.1465 104.337 61.4395 102.785 61.4395C101.334 61.4395 100.075 61.1465 99.0054 60.5605C97.9507 59.9746 97.0645 59.147 96.3467 58.0776C95.6289 57.0083 95.0503 55.7559 94.6108 54.3203C94.1714 52.8848 93.8418 51.3174 93.6221 49.6182V48.6074C93.8418 46.9082 94.1714 45.3408 94.6108 43.9053C95.0503 42.4697 95.6289 41.2173 96.3467 40.1479C97.0645 39.0786 97.9507 38.251 99.0054 37.665C100.06 37.0791 101.305 36.7861 102.741 36.7861C104.308 36.7861 105.67 37.0864 106.828 37.687C108 38.2729 108.966 39.1079 109.728 40.1919C110.504 41.2612 111.076 42.5356 111.442 44.0151C111.823 45.48 112.013 47.0986 112.013 48.8711ZM105.685 49.3325V48.8711C105.685 47.9043 105.612 46.9961 105.465 46.1465C105.333 45.2822 105.099 44.5278 104.762 43.8833C104.425 43.2241 103.964 42.7041 103.378 42.3232C102.807 41.9424 102.067 41.752 101.159 41.752C100.294 41.752 99.562 41.8984 98.9614 42.1914C98.3608 42.4844 97.8628 42.8945 97.4673 43.4219C97.0864 43.9492 96.8008 44.5791 96.6104 45.3115C96.4199 46.0293 96.3027 46.8203 96.2588 47.6846V50.563C96.3027 51.7202 96.4932 52.7456 96.8301 53.6392C97.1816 54.5181 97.709 55.2139 98.4121 55.7266C99.1299 56.2246 100.06 56.4736 101.203 56.4736C102.096 56.4736 102.836 56.2979 103.422 55.9463C104.008 55.5947 104.462 55.0967 104.784 54.4521C105.121 53.8076 105.355 53.0532 105.487 52.189C105.619 51.3101 105.685 50.3579 105.685 49.3325Z" fill="white"/>
<path d="M115.946 27.25H122.274V55.5508L121.637 61H115.946V27.25ZM137.326 48.8711V49.3325C137.326 51.105 137.135 52.731 136.754 54.2104C136.388 55.6899 135.817 56.9717 135.041 58.0557C134.264 59.125 133.297 59.96 132.14 60.5605C130.998 61.1465 129.65 61.4395 128.097 61.4395C126.647 61.4395 125.387 61.1465 124.318 60.5605C123.263 59.9746 122.377 59.147 121.659 58.0776C120.941 57.0083 120.363 55.7559 119.923 54.3203C119.484 52.8848 119.154 51.3174 118.935 49.6182V48.6074C119.154 46.9082 119.484 45.3408 119.923 43.9053C120.363 42.4697 120.941 41.2173 121.659 40.1479C122.377 39.0786 123.263 38.251 124.318 37.665C125.373 37.0791 126.618 36.7861 128.053 36.7861C129.621 36.7861 130.983 37.0864 132.14 37.687C133.312 38.2729 134.279 39.1079 135.041 40.1919C135.817 41.2612 136.388 42.5356 136.754 44.0151C137.135 45.48 137.326 47.0986 137.326 48.8711ZM130.998 49.3325V48.8711C130.998 47.9043 130.924 46.9961 130.778 46.1465C130.646 45.2822 130.412 44.5278 130.075 43.8833C129.738 43.2241 129.276 42.7041 128.69 42.3232C128.119 41.9424 127.379 41.752 126.471 41.752C125.607 41.752 124.875 41.8984 124.274 42.1914C123.673 42.4844 123.175 42.8945 122.78 43.4219C122.399 43.9492 122.113 44.5791 121.923 45.3115C121.732 46.0293 121.615 46.8203 121.571 47.6846V50.563C121.615 51.7202 121.806 52.7456 122.143 53.6392C122.494 54.5181 123.021 55.2139 123.725 55.7266C124.442 56.2246 125.373 56.4736 126.515 56.4736C127.409 56.4736 128.148 56.2979 128.734 55.9463C129.32 55.5947 129.774 55.0967 130.097 54.4521C130.434 53.8076 130.668 53.0532 130.8 52.189C130.932 51.3101 130.998 50.3579 130.998 49.3325Z" fill="white"/>
<path d="M148.048 58.3193L154.354 37.2256H161.144L151.586 64.5815C151.381 65.1821 151.103 65.8267 150.751 66.5151C150.414 67.2036 149.953 67.8555 149.367 68.4707C148.795 69.1006 148.07 69.6133 147.191 70.0088C146.327 70.4043 145.265 70.6021 144.005 70.6021C143.405 70.6021 142.914 70.5654 142.533 70.4922C142.152 70.4189 141.698 70.3164 141.171 70.1846V65.5483C141.332 65.5483 141.5 65.5483 141.676 65.5483C141.852 65.563 142.021 65.5703 142.182 65.5703C143.017 65.5703 143.698 65.4751 144.225 65.2847C144.752 65.0942 145.177 64.8013 145.5 64.4058C145.822 64.0249 146.078 63.5269 146.269 62.9116L148.048 58.3193ZM145.412 37.2256L150.575 54.4521L151.476 61.1538L147.169 61.6152L138.622 37.2256H145.412Z" fill="white"/>
<path d="M185.402 42.0376V47.1792H168.703V42.0376H185.402ZM170.658 29.0078V61H164.066V29.0078H170.658ZM190.104 29.0078V61H183.534V29.0078H190.104Z" fill="white"/>
<path d="M209.506 55.3091V37.2256H215.834V61H209.879L209.506 55.3091ZM210.209 50.4312L212.077 50.3872C212.077 51.9692 211.894 53.4414 211.527 54.8037C211.161 56.1514 210.612 57.3232 209.879 58.3193C209.147 59.3008 208.224 60.0698 207.111 60.6265C205.998 61.1685 204.687 61.4395 203.178 61.4395C202.021 61.4395 200.951 61.2783 199.97 60.9561C199.003 60.6191 198.168 60.0991 197.465 59.396C196.776 58.6782 196.234 57.7627 195.839 56.6494C195.458 55.5215 195.268 54.1665 195.268 52.5845V37.2256H201.596V52.6284C201.596 53.3315 201.676 53.9248 201.837 54.4082C202.013 54.8916 202.255 55.2871 202.562 55.5947C202.87 55.9023 203.229 56.1221 203.639 56.2539C204.064 56.3857 204.533 56.4517 205.045 56.4517C206.349 56.4517 207.375 56.188 208.122 55.6606C208.883 55.1333 209.418 54.4155 209.726 53.5073C210.048 52.5845 210.209 51.5591 210.209 50.4312Z" fill="white"/>
<path d="M220.668 27.25H226.996V55.5508L226.359 61H220.668V27.25ZM242.047 48.8711V49.3325C242.047 51.105 241.857 52.731 241.476 54.2104C241.11 55.6899 240.539 56.9717 239.762 58.0557C238.986 59.125 238.019 59.96 236.862 60.5605C235.719 61.1465 234.372 61.4395 232.819 61.4395C231.369 61.4395 230.109 61.1465 229.04 60.5605C227.985 59.9746 227.099 59.147 226.381 58.0776C225.663 57.0083 225.084 55.7559 224.645 54.3203C224.206 52.8848 223.876 51.3174 223.656 49.6182V48.6074C223.876 46.9082 224.206 45.3408 224.645 43.9053C225.084 42.4697 225.663 41.2173 226.381 40.1479C227.099 39.0786 227.985 38.251 229.04 37.665C230.094 37.0791 231.339 36.7861 232.775 36.7861C234.342 36.7861 235.705 37.0864 236.862 37.687C238.034 38.2729 239 39.1079 239.762 40.1919C240.539 41.2612 241.11 42.5356 241.476 44.0151C241.857 45.48 242.047 47.0986 242.047 48.8711ZM235.719 49.3325V48.8711C235.719 47.9043 235.646 46.9961 235.5 46.1465C235.368 45.2822 235.133 44.5278 234.796 43.8833C234.459 43.2241 233.998 42.7041 233.412 42.3232C232.841 41.9424 232.101 41.752 231.193 41.752C230.329 41.752 229.596 41.8984 228.996 42.1914C228.395 42.4844 227.897 42.8945 227.501 43.4219C227.121 43.9492 226.835 44.5791 226.645 45.3115C226.454 46.0293 226.337 46.8203 226.293 47.6846V50.563C226.337 51.7202 226.527 52.7456 226.864 53.6392C227.216 54.5181 227.743 55.2139 228.446 55.7266C229.164 56.2246 230.094 56.4736 231.237 56.4736C232.13 56.4736 232.87 56.2979 233.456 55.9463C234.042 55.5947 234.496 55.0967 234.818 54.4521C235.155 53.8076 235.39 53.0532 235.521 52.189C235.653 51.3101 235.719 50.3579 235.719 49.3325Z" fill="white"/>
<path d="M58.6375 20.0273C57.1441 16.5182 54.9792 13.3671 52.2217 10.6439C49.4937 7.95034 46.2601 5.80461 42.7007 4.32602C39.0146 2.787 35.0503 1.9983 31.0465 2.0074C27.7359 2.0074 24.4964 2.5287 21.4149 3.56352C14.2169 0.25676 5.90484 0 3.51868 0C3.34485 0 2.93399 -2.37487e-07 2.77596 0.015561C1.83572 0.0466834 0.97449 0.521302 0.468813 1.29158C-0.0447654 2.06186 -0.139579 3.03444 0.200172 3.89809L5.28065 16.4716C2.54493 21.0226 1.10389 26.2151 1.10881 31.5037C1.10881 35.5029 1.89893 39.3621 3.46337 42.9879C4.9567 46.4892 7.11373 49.6481 9.87915 52.3635C12.6209 55.0712 15.8367 57.1953 19.4001 58.6814C23.09 60.2219 27.009 61 31.0465 61C35.0998 61 39.0188 60.2142 42.7165 58.6814C46.2642 57.2108 49.4721 55.079 52.2296 52.3635C54.9713 49.6559 57.1362 46.4969 58.6454 42.9801C60.2075 39.3472 61.0084 35.4411 60.9999 31.4959C60.9841 27.5122 60.2019 23.6531 58.6375 20.0273ZM53.3911 40.7626C52.1727 43.6121 50.4044 46.2016 48.1842 48.3876C45.9402 50.6051 43.3407 52.3324 40.4647 53.515H40.4568C37.4543 54.7599 34.2702 55.398 30.9833 55.398C27.7904 55.4015 24.6283 54.7832 21.679 53.5788C18.7297 52.3743 16.0514 50.6075 13.7981 48.3798C11.5542 46.1624 9.80013 43.6026 8.59915 40.7704V40.7626C7.33496 37.8216 6.69496 34.6782 6.69496 31.4337C6.69496 27.1232 7.86434 22.8983 10.0767 19.2181L11.1196 17.4986L6.3157 5.60204C7.49298 5.64872 9.15224 5.76543 11.0327 6.03776C14.4935 6.5435 17.5512 7.39936 20.1112 8.57423L21.6124 9.26671L23.1848 8.73763C25.6737 7.89732 28.3048 7.47717 30.9991 7.47717C34.1919 7.47364 37.354 8.09188 40.3033 9.29633C43.2526 10.5008 45.9309 12.2676 48.1842 14.4953C50.4281 16.7128 52.1822 19.2726 53.3832 22.1047L53.399 22.1203C54.6632 25.0458 55.3032 28.1892 55.3111 31.4415C55.3032 34.686 54.6553 37.8216 53.3911 40.7626ZM43.8543 19.0003C42.2425 19.0003 40.923 20.2996 40.923 21.8869V26.174C40.923 27.7612 42.2346 29.0606 43.8543 29.0606C45.4741 29.0606 46.7857 27.7612 46.7857 26.174V21.8869C46.7857 20.2918 45.4662 19.0003 43.8543 19.0003ZM30.0114 19.0003C28.3917 19.0003 27.0801 20.2996 27.0801 21.8869V26.174C27.0801 27.7612 28.3996 29.0606 30.0114 29.0606C31.6312 29.0606 32.9428 27.7612 32.9428 26.174V21.8869C32.9428 20.2918 31.6233 19.0003 30.0114 19.0003Z" stroke="white"/>
<path d="M55.1919 42.0376V47.1792H38.4927V42.0376H55.1919ZM40.4482 29.0078V61H33.8564V29.0078H40.4482ZM59.894 29.0078V61H53.3242V29.0078H59.894Z" stroke="white"/>
<path d="M64.2227 49.3545V48.8931C64.2227 47.1499 64.4717 45.5459 64.9697 44.0811C65.4678 42.6016 66.1929 41.3198 67.145 40.2358C68.0972 39.1519 69.269 38.3096 70.6606 37.709C72.0522 37.0938 73.6489 36.7861 75.4507 36.7861C77.2524 36.7861 78.8564 37.0938 80.2627 37.709C81.6689 38.3096 82.8481 39.1519 83.8003 40.2358C84.7671 41.3198 85.4995 42.6016 85.9976 44.0811C86.4956 45.5459 86.7446 47.1499 86.7446 48.8931V49.3545C86.7446 51.083 86.4956 52.687 85.9976 54.1665C85.4995 55.6313 84.7671 56.9131 83.8003 58.0117C82.8481 59.0957 81.6763 59.938 80.2847 60.5386C78.8931 61.1392 77.2964 61.4395 75.4946 61.4395C73.6929 61.4395 72.0889 61.1392 70.6826 60.5386C69.291 59.938 68.1118 59.0957 67.145 58.0117C66.1929 56.9131 65.4678 55.6313 64.9697 54.1665C64.4717 52.687 64.2227 51.083 64.2227 49.3545ZM70.5508 48.8931V49.3545C70.5508 50.3506 70.6387 51.2808 70.8145 52.145C70.9902 53.0093 71.2686 53.771 71.6494 54.4302C72.0449 55.0747 72.5576 55.5801 73.1875 55.9463C73.8174 56.3125 74.5864 56.4956 75.4946 56.4956C76.3735 56.4956 77.1279 56.3125 77.7578 55.9463C78.3877 55.5801 78.8931 55.0747 79.2739 54.4302C79.6548 53.771 79.9331 53.0093 80.1089 52.145C80.2993 51.2808 80.3945 50.3506 80.3945 49.3545V48.8931C80.3945 47.9263 80.2993 47.0181 80.1089 46.1685C79.9331 45.3042 79.6475 44.5425 79.252 43.8833C78.8711 43.2095 78.3657 42.6821 77.7358 42.3013C77.106 41.9204 76.3442 41.73 75.4507 41.73C74.5571 41.73 73.7954 41.9204 73.1655 42.3013C72.5503 42.6821 72.0449 43.2095 71.6494 43.8833C71.2686 44.5425 70.9902 45.3042 70.8145 46.1685C70.6387 47.0181 70.5508 47.9263 70.5508 48.8931Z" stroke="white"/>
<path d="M90.6338 27.25H96.9619V55.5508L96.3247 61H90.6338V27.25ZM112.013 48.8711V49.3325C112.013 51.105 111.823 52.731 111.442 54.2104C111.076 55.6899 110.504 56.9717 109.728 58.0557C108.952 59.125 107.985 59.96 106.828 60.5605C105.685 61.1465 104.337 61.4395 102.785 61.4395C101.334 61.4395 100.075 61.1465 99.0054 60.5605C97.9507 59.9746 97.0645 59.147 96.3467 58.0776C95.6289 57.0083 95.0503 55.7559 94.6108 54.3203C94.1714 52.8848 93.8418 51.3174 93.6221 49.6182V48.6074C93.8418 46.9082 94.1714 45.3408 94.6108 43.9053C95.0503 42.4697 95.6289 41.2173 96.3467 40.1479C97.0645 39.0786 97.9507 38.251 99.0054 37.665C100.06 37.0791 101.305 36.7861 102.741 36.7861C104.308 36.7861 105.67 37.0864 106.828 37.687C108 38.2729 108.966 39.1079 109.728 40.1919C110.504 41.2612 111.076 42.5356 111.442 44.0151C111.823 45.48 112.013 47.0986 112.013 48.8711ZM105.685 49.3325V48.8711C105.685 47.9043 105.612 46.9961 105.465 46.1465C105.333 45.2822 105.099 44.5278 104.762 43.8833C104.425 43.2241 103.964 42.7041 103.378 42.3232C102.807 41.9424 102.067 41.752 101.159 41.752C100.294 41.752 99.562 41.8984 98.9614 42.1914C98.3608 42.4844 97.8628 42.8945 97.4673 43.4219C97.0864 43.9492 96.8008 44.5791 96.6104 45.3115C96.4199 46.0293 96.3027 46.8203 96.2588 47.6846V50.563C96.3027 51.7202 96.4932 52.7456 96.8301 53.6392C97.1816 54.5181 97.709 55.2139 98.4121 55.7266C99.1299 56.2246 100.06 56.4736 101.203 56.4736C102.096 56.4736 102.836 56.2979 103.422 55.9463C104.008 55.5947 104.462 55.0967 104.784 54.4521C105.121 53.8076 105.355 53.0532 105.487 52.189C105.619 51.3101 105.685 50.3579 105.685 49.3325Z" stroke="white"/>
<path d="M115.946 27.25H122.274V55.5508L121.637 61H115.946V27.25ZM137.326 48.8711V49.3325C137.326 51.105 137.135 52.731 136.754 54.2104C136.388 55.6899 135.817 56.9717 135.041 58.0557C134.264 59.125 133.297 59.96 132.14 60.5605C130.998 61.1465 129.65 61.4395 128.097 61.4395C126.647 61.4395 125.387 61.1465 124.318 60.5605C123.263 59.9746 122.377 59.147 121.659 58.0776C120.941 57.0083 120.363 55.7559 119.923 54.3203C119.484 52.8848 119.154 51.3174 118.935 49.6182V48.6074C119.154 46.9082 119.484 45.3408 119.923 43.9053C120.363 42.4697 120.941 41.2173 121.659 40.1479C122.377 39.0786 123.263 38.251 124.318 37.665C125.373 37.0791 126.618 36.7861 128.053 36.7861C129.621 36.7861 130.983 37.0864 132.14 37.687C133.312 38.2729 134.279 39.1079 135.041 40.1919C135.817 41.2612 136.388 42.5356 136.754 44.0151C137.135 45.48 137.326 47.0986 137.326 48.8711ZM130.998 49.3325V48.8711C130.998 47.9043 130.924 46.9961 130.778 46.1465C130.646 45.2822 130.412 44.5278 130.075 43.8833C129.738 43.2241 129.276 42.7041 128.69 42.3232C128.119 41.9424 127.379 41.752 126.471 41.752C125.607 41.752 124.875 41.8984 124.274 42.1914C123.673 42.4844 123.175 42.8945 122.78 43.4219C122.399 43.9492 122.113 44.5791 121.923 45.3115C121.732 46.0293 121.615 46.8203 121.571 47.6846V50.563C121.615 51.7202 121.806 52.7456 122.143 53.6392C122.494 54.5181 123.021 55.2139 123.725 55.7266C124.442 56.2246 125.373 56.4736 126.515 56.4736C127.409 56.4736 128.148 56.2979 128.734 55.9463C129.32 55.5947 129.774 55.0967 130.097 54.4521C130.434 53.8076 130.668 53.0532 130.8 52.189C130.932 51.3101 130.998 50.3579 130.998 49.3325Z" stroke="white"/>
<path d="M148.048 58.3193L154.354 37.2256H161.144L151.586 64.5815C151.381 65.1821 151.103 65.8267 150.751 66.5151C150.414 67.2036 149.953 67.8555 149.367 68.4707C148.795 69.1006 148.07 69.6133 147.191 70.0088C146.327 70.4043 145.265 70.6021 144.005 70.6021C143.405 70.6021 142.914 70.5654 142.533 70.4922C142.152 70.4189 141.698 70.3164 141.171 70.1846V65.5483C141.332 65.5483 141.5 65.5483 141.676 65.5483C141.852 65.563 142.021 65.5703 142.182 65.5703C143.017 65.5703 143.698 65.4751 144.225 65.2847C144.752 65.0942 145.177 64.8013 145.5 64.4058C145.822 64.0249 146.078 63.5269 146.269 62.9116L148.048 58.3193ZM145.412 37.2256L150.575 54.4521L151.476 61.1538L147.169 61.6152L138.622 37.2256H145.412Z" stroke="white"/>
<path d="M185.402 42.0376V47.1792H168.703V42.0376H185.402ZM170.658 29.0078V61H164.066V29.0078H170.658ZM190.104 29.0078V61H183.534V29.0078H190.104Z" stroke="white"/>
<path d="M209.506 55.3091V37.2256H215.834V61H209.879L209.506 55.3091ZM210.209 50.4312L212.077 50.3872C212.077 51.9692 211.894 53.4414 211.527 54.8037C211.161 56.1514 210.612 57.3232 209.879 58.3193C209.147 59.3008 208.224 60.0698 207.111 60.6265C205.998 61.1685 204.687 61.4395 203.178 61.4395C202.021 61.4395 200.951 61.2783 199.97 60.9561C199.003 60.6191 198.168 60.0991 197.465 59.396C196.776 58.6782 196.234 57.7627 195.839 56.6494C195.458 55.5215 195.268 54.1665 195.268 52.5845V37.2256H201.596V52.6284C201.596 53.3315 201.676 53.9248 201.837 54.4082C202.013 54.8916 202.255 55.2871 202.562 55.5947C202.87 55.9023 203.229 56.1221 203.639 56.2539C204.064 56.3857 204.533 56.4517 205.045 56.4517C206.349 56.4517 207.375 56.188 208.122 55.6606C208.883 55.1333 209.418 54.4155 209.726 53.5073C210.048 52.5845 210.209 51.5591 210.209 50.4312Z" stroke="white"/>
<path d="M220.668 27.25H226.996V55.5508L226.359 61H220.668V27.25ZM242.047 48.8711V49.3325C242.047 51.105 241.857 52.731 241.476 54.2104C241.11 55.6899 240.539 56.9717 239.762 58.0557C238.986 59.125 238.019 59.96 236.862 60.5605C235.719 61.1465 234.372 61.4395 232.819 61.4395C231.369 61.4395 230.109 61.1465 229.04 60.5605C227.985 59.9746 227.099 59.147 226.381 58.0776C225.663 57.0083 225.084 55.7559 224.645 54.3203C224.206 52.8848 223.876 51.3174 223.656 49.6182V48.6074C223.876 46.9082 224.206 45.3408 224.645 43.9053C225.084 42.4697 225.663 41.2173 226.381 40.1479C227.099 39.0786 227.985 38.251 229.04 37.665C230.094 37.0791 231.339 36.7861 232.775 36.7861C234.342 36.7861 235.705 37.0864 236.862 37.687C238.034 38.2729 239 39.1079 239.762 40.1919C240.539 41.2612 241.11 42.5356 241.476 44.0151C241.857 45.48 242.047 47.0986 242.047 48.8711ZM235.719 49.3325V48.8711C235.719 47.9043 235.646 46.9961 235.5 46.1465C235.368 45.2822 235.133 44.5278 234.796 43.8833C234.459 43.2241 233.998 42.7041 233.412 42.3232C232.841 41.9424 232.101 41.752 231.193 41.752C230.329 41.752 229.596 41.8984 228.996 42.1914C228.395 42.4844 227.897 42.8945 227.501 43.4219C227.121 43.9492 226.835 44.5791 226.645 45.3115C226.454 46.0293 226.337 46.8203 226.293 47.6846V50.563C226.337 51.7202 226.527 52.7456 226.864 53.6392C227.216 54.5181 227.743 55.2139 228.446 55.7266C229.164 56.2246 230.094 56.4736 231.237 56.4736C232.13 56.4736 232.87 56.2979 233.456 55.9463C234.042 55.5947 234.496 55.0967 234.818 54.4521C235.155 53.8076 235.39 53.0532 235.521 52.189C235.653 51.3101 235.719 50.3579 235.719 49.3325Z" stroke="white"/>
</svg>
