<svg width="44" height="44" viewBox="0 0 44 44" fill="none" xmlns="http://www.w3.org/2000/svg">
<mask id="path-1-inside-1_2476_466" fill="white">
<path d="M42.2959 14.4459C41.2187 11.9148 39.6571 9.64184 37.6681 7.67755C35.7004 5.73467 33.368 4.18693 30.8005 3.12041C28.1417 2.0103 25.2822 1.4414 22.3942 1.44796C20.0062 1.44796 17.6695 1.82398 15.4468 2.57041C10.2548 0.185204 4.25923 0 2.53806 0C2.41268 0 2.11632 -1.71439e-07 2.00233 0.0112243C1.32413 0.0336733 0.702911 0.376021 0.33816 0.931633C-0.0322898 1.48725 -0.10068 2.18878 0.144387 2.81174L3.80899 11.8811C1.83569 15.1639 0.796251 18.9092 0.799798 22.724C0.799798 25.6087 1.36972 28.3923 2.49817 31.0077C3.57532 33.5332 5.13121 35.8117 7.12594 37.7704C9.10357 39.7235 11.4232 41.2556 13.9935 42.3276C16.6551 43.4388 19.4819 44 22.3942 44C25.3179 44 28.1447 43.4332 30.8119 42.3276C33.3709 41.2668 35.6848 39.7291 37.6738 37.7704C39.6514 35.8173 41.213 33.5388 42.3016 31.002C43.4284 28.3816 44.006 25.564 44 22.7184C43.9886 19.8449 43.4243 17.0612 42.2959 14.4459ZM38.5116 29.4026C37.6328 31.4579 36.3573 33.3258 34.7558 34.9026C33.1372 36.502 31.2622 37.748 29.1877 38.601H29.182C27.0162 39.499 24.7195 39.9592 22.3486 39.9592C20.0455 39.9617 17.7647 39.5158 15.6373 38.647C13.51 37.7782 11.578 36.5038 9.95276 34.8969C8.33418 33.2974 7.06895 31.451 6.20267 29.4082V29.4026C5.29079 27.2811 4.82915 25.0138 4.82915 22.6735C4.82915 19.5643 5.67264 16.5168 7.26842 13.8622L8.02072 12.6219L7.47929 11.2806L4.55559 4.04082C5.40477 4.07449 6.60161 4.15867 7.95803 4.3551C10.4543 4.7199 12.6599 5.33724 14.5064 6.18469L15.5893 6.68418L16.7234 6.30255C18.5187 5.69643 20.4165 5.39337 22.36 5.39337C24.663 5.39082 26.9439 5.83677 29.0712 6.70555C31.1986 7.57433 33.1305 8.8488 34.7558 10.4556C36.3744 12.0551 37.6396 13.9015 38.5059 15.9444L38.5116 15.95L38.5173 15.9556C39.4292 18.0658 39.8908 20.3332 39.8965 22.6791C39.8908 25.0194 39.4235 27.2811 38.5116 29.4026ZM31.6326 13.7051C30.47 13.7051 29.5182 14.6423 29.5182 15.7872V18.8796C29.5182 20.0245 30.4643 20.9617 31.6326 20.9617C32.801 20.9617 33.747 20.0245 33.747 18.8796V15.7872C33.747 14.6367 32.7953 13.7051 31.6326 13.7051ZM21.6476 13.7051C20.4792 13.7051 19.5332 14.6423 19.5332 15.7872V18.8796C19.5332 20.0245 20.4849 20.9617 21.6476 20.9617C22.8159 20.9617 23.762 20.0245 23.762 18.8796V15.7872C23.762 14.6367 22.8102 13.7051 21.6476 13.7051Z"/>
</mask>
<path d="M42.2959 14.4459C41.2187 11.9148 39.6571 9.64184 37.6681 7.67755C35.7004 5.73467 33.368 4.18693 30.8005 3.12041C28.1417 2.0103 25.2822 1.4414 22.3942 1.44796C20.0062 1.44796 17.6695 1.82398 15.4468 2.57041C10.2548 0.185204 4.25923 0 2.53806 0C2.41268 0 2.11632 -1.71439e-07 2.00233 0.0112243C1.32413 0.0336733 0.702911 0.376021 0.33816 0.931633C-0.0322898 1.48725 -0.10068 2.18878 0.144387 2.81174L3.80899 11.8811C1.83569 15.1639 0.796251 18.9092 0.799798 22.724C0.799798 25.6087 1.36972 28.3923 2.49817 31.0077C3.57532 33.5332 5.13121 35.8117 7.12594 37.7704C9.10357 39.7235 11.4232 41.2556 13.9935 42.3276C16.6551 43.4388 19.4819 44 22.3942 44C25.3179 44 28.1447 43.4332 30.8119 42.3276C33.3709 41.2668 35.6848 39.7291 37.6738 37.7704C39.6514 35.8173 41.213 33.5388 42.3016 31.002C43.4284 28.3816 44.006 25.564 44 22.7184C43.9886 19.8449 43.4243 17.0612 42.2959 14.4459ZM38.5116 29.4026C37.6328 31.4579 36.3573 33.3258 34.7558 34.9026C33.1372 36.502 31.2622 37.748 29.1877 38.601H29.182C27.0162 39.499 24.7195 39.9592 22.3486 39.9592C20.0455 39.9617 17.7647 39.5158 15.6373 38.647C13.51 37.7782 11.578 36.5038 9.95276 34.8969C8.33418 33.2974 7.06895 31.451 6.20267 29.4082V29.4026C5.29079 27.2811 4.82915 25.0138 4.82915 22.6735C4.82915 19.5643 5.67264 16.5168 7.26842 13.8622L8.02072 12.6219L7.47929 11.2806L4.55559 4.04082C5.40477 4.07449 6.60161 4.15867 7.95803 4.3551C10.4543 4.7199 12.6599 5.33724 14.5064 6.18469L15.5893 6.68418L16.7234 6.30255C18.5187 5.69643 20.4165 5.39337 22.36 5.39337C24.663 5.39082 26.9439 5.83677 29.0712 6.70555C31.1986 7.57433 33.1305 8.8488 34.7558 10.4556C36.3744 12.0551 37.6396 13.9015 38.5059 15.9444L38.5116 15.95L38.5173 15.9556C39.4292 18.0658 39.8908 20.3332 39.8965 22.6791C39.8908 25.0194 39.4235 27.2811 38.5116 29.4026ZM31.6326 13.7051C30.47 13.7051 29.5182 14.6423 29.5182 15.7872V18.8796C29.5182 20.0245 30.4643 20.9617 31.6326 20.9617C32.801 20.9617 33.747 20.0245 33.747 18.8796V15.7872C33.747 14.6367 32.7953 13.7051 31.6326 13.7051ZM21.6476 13.7051C20.4792 13.7051 19.5332 14.6423 19.5332 15.7872V18.8796C19.5332 20.0245 20.4849 20.9617 21.6476 20.9617C22.8159 20.9617 23.762 20.0245 23.762 18.8796V15.7872C23.762 14.6367 22.8102 13.7051 21.6476 13.7051Z" fill="#8B45FF" stroke="#8B45FF" stroke-width="2" mask="url(#path-1-inside-1_2476_466)"/>
</svg>
