<svg width="46" height="47" viewBox="0 0 46 47" fill="none" xmlns="http://www.w3.org/2000/svg">
<path d="M4.6039 5.42644L18.1848 8.86676L10.2098 18.2659L4.6039 5.42644Z" fill="#8B45FF"/>
<ellipse cx="23.9995" cy="27.353" rx="19" ry="19.5" fill="#8B45FF"/>
<g filter="url(#filter0_b_2390_42)">
<mask id="path-3-inside-1_2390_42" fill="white">
<path d="M44.2954 17.2989C43.2182 14.7678 41.6567 12.4948 39.6676 10.5306C37.6999 8.58769 35.3675 7.03994 32.8001 5.97342C30.1412 4.86331 27.2817 4.29441 24.3937 4.30097C22.0057 4.30097 19.669 4.67699 17.4463 5.42342C12.2543 3.03822 6.25874 2.85301 4.53758 2.85301C4.41219 2.85301 4.11583 2.85301 4.00185 2.86424C3.32364 2.88669 2.70242 3.22903 2.33767 3.78465C1.96722 4.34026 1.89883 5.04179 2.1439 5.66475L5.8085 14.7341C3.8352 18.0169 2.79576 21.7622 2.79931 25.577C2.79931 28.4617 3.36923 31.2454 4.49768 33.8607C5.57483 36.3862 7.13073 38.6647 9.12545 40.6234C11.1031 42.5765 13.4227 44.1086 15.993 45.1806C18.6546 46.2918 21.4814 46.853 24.3937 46.853C27.3174 46.853 30.1442 46.2862 32.8115 45.1806C35.3704 44.1199 37.6843 42.5821 39.6733 40.6234C41.651 38.6704 43.2125 36.3918 44.3011 33.8551C45.4279 31.2346 46.0056 28.4171 45.9995 25.5714C45.9881 22.6979 45.4238 19.9142 44.2954 17.2989ZM40.5111 32.2556C39.6323 34.3109 38.3568 36.1788 36.7553 37.7556C35.1367 39.3551 33.2617 40.601 31.1872 41.454H31.1815C29.0158 42.352 26.719 42.8122 24.3481 42.8122C22.045 42.8147 19.7642 42.3688 17.6368 41.5C15.5095 40.6312 13.5776 39.3568 11.9523 37.75C10.3337 36.1505 9.06846 34.304 8.20218 32.2612V32.2556C7.2903 30.1341 6.82866 27.8668 6.82866 25.5265C6.82866 22.4173 7.67215 19.3698 9.26794 16.7153L10.0202 15.475L9.47881 14.1336L6.5551 6.89383C7.40429 6.9275 8.60113 7.01169 9.95754 7.20811C12.4538 7.57291 14.6594 8.19026 16.506 9.03771L17.5888 9.5372L18.723 9.15556C20.5182 8.54944 22.4161 8.24638 24.3595 8.24638C26.6625 8.24383 28.9434 8.68978 31.0708 9.55856C33.1981 10.4273 35.13 11.7018 36.7553 13.3086C38.3739 14.9081 39.6391 16.7545 40.5054 18.7974L40.5111 18.803L40.5168 18.8086C41.4287 20.9188 41.8903 23.1862 41.896 25.5321C41.8903 27.8724 41.423 30.1341 40.5111 32.2556Z"/>
</mask>
<path d="M44.2954 17.2989C43.2182 14.7678 41.6567 12.4948 39.6676 10.5306C37.6999 8.58769 35.3675 7.03994 32.8001 5.97342C30.1412 4.86331 27.2817 4.29441 24.3937 4.30097C22.0057 4.30097 19.669 4.67699 17.4463 5.42342C12.2543 3.03822 6.25874 2.85301 4.53758 2.85301C4.41219 2.85301 4.11583 2.85301 4.00185 2.86424C3.32364 2.88669 2.70242 3.22903 2.33767 3.78465C1.96722 4.34026 1.89883 5.04179 2.1439 5.66475L5.8085 14.7341C3.8352 18.0169 2.79576 21.7622 2.79931 25.577C2.79931 28.4617 3.36923 31.2454 4.49768 33.8607C5.57483 36.3862 7.13073 38.6647 9.12545 40.6234C11.1031 42.5765 13.4227 44.1086 15.993 45.1806C18.6546 46.2918 21.4814 46.853 24.3937 46.853C27.3174 46.853 30.1442 46.2862 32.8115 45.1806C35.3704 44.1199 37.6843 42.5821 39.6733 40.6234C41.651 38.6704 43.2125 36.3918 44.3011 33.8551C45.4279 31.2346 46.0056 28.4171 45.9995 25.5714C45.9881 22.6979 45.4238 19.9142 44.2954 17.2989ZM40.5111 32.2556C39.6323 34.3109 38.3568 36.1788 36.7553 37.7556C35.1367 39.3551 33.2617 40.601 31.1872 41.454H31.1815C29.0158 42.352 26.719 42.8122 24.3481 42.8122C22.045 42.8147 19.7642 42.3688 17.6368 41.5C15.5095 40.6312 13.5776 39.3568 11.9523 37.75C10.3337 36.1505 9.06846 34.304 8.20218 32.2612V32.2556C7.2903 30.1341 6.82866 27.8668 6.82866 25.5265C6.82866 22.4173 7.67215 19.3698 9.26794 16.7153L10.0202 15.475L9.47881 14.1336L6.5551 6.89383C7.40429 6.9275 8.60113 7.01169 9.95754 7.20811C12.4538 7.57291 14.6594 8.19026 16.506 9.03771L17.5888 9.5372L18.723 9.15556C20.5182 8.54944 22.4161 8.24638 24.3595 8.24638C26.6625 8.24383 28.9434 8.68978 31.0708 9.55856C33.1981 10.4273 35.13 11.7018 36.7553 13.3086C38.3739 14.9081 39.6391 16.7545 40.5054 18.7974L40.5111 18.803L40.5168 18.8086C41.4287 20.9188 41.8903 23.1862 41.896 25.5321C41.8903 27.8724 41.423 30.1341 40.5111 32.2556Z" fill="#7623FD"/>
<path d="M44.2954 17.2989C43.2182 14.7678 41.6567 12.4948 39.6676 10.5306C37.6999 8.58769 35.3675 7.03994 32.8001 5.97342C30.1412 4.86331 27.2817 4.29441 24.3937 4.30097C22.0057 4.30097 19.669 4.67699 17.4463 5.42342C12.2543 3.03822 6.25874 2.85301 4.53758 2.85301C4.41219 2.85301 4.11583 2.85301 4.00185 2.86424C3.32364 2.88669 2.70242 3.22903 2.33767 3.78465C1.96722 4.34026 1.89883 5.04179 2.1439 5.66475L5.8085 14.7341C3.8352 18.0169 2.79576 21.7622 2.79931 25.577C2.79931 28.4617 3.36923 31.2454 4.49768 33.8607C5.57483 36.3862 7.13073 38.6647 9.12545 40.6234C11.1031 42.5765 13.4227 44.1086 15.993 45.1806C18.6546 46.2918 21.4814 46.853 24.3937 46.853C27.3174 46.853 30.1442 46.2862 32.8115 45.1806C35.3704 44.1199 37.6843 42.5821 39.6733 40.6234C41.651 38.6704 43.2125 36.3918 44.3011 33.8551C45.4279 31.2346 46.0056 28.4171 45.9995 25.5714C45.9881 22.6979 45.4238 19.9142 44.2954 17.2989ZM40.5111 32.2556C39.6323 34.3109 38.3568 36.1788 36.7553 37.7556C35.1367 39.3551 33.2617 40.601 31.1872 41.454H31.1815C29.0158 42.352 26.719 42.8122 24.3481 42.8122C22.045 42.8147 19.7642 42.3688 17.6368 41.5C15.5095 40.6312 13.5776 39.3568 11.9523 37.75C10.3337 36.1505 9.06846 34.304 8.20218 32.2612V32.2556C7.2903 30.1341 6.82866 27.8668 6.82866 25.5265C6.82866 22.4173 7.67215 19.3698 9.26794 16.7153L10.0202 15.475L9.47881 14.1336L6.5551 6.89383C7.40429 6.9275 8.60113 7.01169 9.95754 7.20811C12.4538 7.57291 14.6594 8.19026 16.506 9.03771L17.5888 9.5372L18.723 9.15556C20.5182 8.54944 22.4161 8.24638 24.3595 8.24638C26.6625 8.24383 28.9434 8.68978 31.0708 9.55856C33.1981 10.4273 35.13 11.7018 36.7553 13.3086C38.3739 14.9081 39.6391 16.7545 40.5054 18.7974L40.5111 18.803L40.5168 18.8086C41.4287 20.9188 41.8903 23.1862 41.896 25.5321C41.8903 27.8724 41.423 30.1341 40.5111 32.2556Z" stroke="#7623FD" stroke-width="2" mask="url(#path-3-inside-1_2390_42)"/>
</g>
<mask id="path-4-inside-2_2390_42" fill="white">
<path d="M23.9995 10.853C23.3365 10.853 22.7006 11.1016 22.2317 11.5441C21.7629 11.9866 21.4995 12.5868 21.4995 13.2125V22.6506H11.4995C10.8365 22.6506 10.2006 22.8992 9.73174 23.3417C9.2629 23.7842 8.99951 24.3843 8.99951 25.0101C8.99951 25.6359 9.2629 26.2361 9.73174 26.6785C10.2006 27.121 10.8365 27.3696 11.4995 27.3696H21.4995V36.8077C21.4995 37.4335 21.7629 38.0336 22.2317 38.4761C22.7006 38.9186 23.3365 39.1672 23.9995 39.1672C24.6626 39.1672 25.2984 38.9186 25.7673 38.4761C26.2361 38.0336 26.4995 37.4335 26.4995 36.8077V27.3696H36.4995C37.1626 27.3696 37.7984 27.121 38.2673 26.6785C38.7361 26.2361 38.9995 25.6359 38.9995 25.0101C38.9995 24.3843 38.7361 23.7842 38.2673 23.3417C37.7984 22.8992 37.1626 22.6506 36.4995 22.6506H26.4995V13.2125C26.4995 12.5868 26.2361 11.9866 25.7673 11.5441C25.2984 11.1016 24.6626 10.853 23.9995 10.853Z"/>
</mask>
<path d="M23.9995 10.853C23.3365 10.853 22.7006 11.1016 22.2317 11.5441C21.7629 11.9866 21.4995 12.5868 21.4995 13.2125V22.6506H11.4995C10.8365 22.6506 10.2006 22.8992 9.73174 23.3417C9.2629 23.7842 8.99951 24.3843 8.99951 25.0101C8.99951 25.6359 9.2629 26.2361 9.73174 26.6785C10.2006 27.121 10.8365 27.3696 11.4995 27.3696H21.4995V36.8077C21.4995 37.4335 21.7629 38.0336 22.2317 38.4761C22.7006 38.9186 23.3365 39.1672 23.9995 39.1672C24.6626 39.1672 25.2984 38.9186 25.7673 38.4761C26.2361 38.0336 26.4995 37.4335 26.4995 36.8077V27.3696H36.4995C37.1626 27.3696 37.7984 27.121 38.2673 26.6785C38.7361 26.2361 38.9995 25.6359 38.9995 25.0101C38.9995 24.3843 38.7361 23.7842 38.2673 23.3417C37.7984 22.8992 37.1626 22.6506 36.4995 22.6506H26.4995V13.2125C26.4995 12.5868 26.2361 11.9866 25.7673 11.5441C25.2984 11.1016 24.6626 10.853 23.9995 10.853Z" fill="white" stroke="#7623FD" mask="url(#path-4-inside-2_2390_42)"/>
<defs>
<filter id="filter0_b_2390_42" x="-2.00049" y="-1.14697" width="52" height="52" filterUnits="userSpaceOnUse" color-interpolation-filters="sRGB">
<feFlood flood-opacity="0" result="BackgroundImageFix"/>
<feGaussianBlur in="BackgroundImageFix" stdDeviation="2"/>
<feComposite in2="SourceAlpha" operator="in" result="effect1_backgroundBlur_2390_42"/>
<feBlend mode="normal" in="SourceGraphic" in2="effect1_backgroundBlur_2390_42" result="shape"/>
</filter>
</defs>
</svg>
