<svg width="25" height="25" viewBox="0 0 25 25" fill="none" xmlns="http://www.w3.org/2000/svg">
<path d="M23.6106 7.52092L15.2773 0.953774C14.5134 0.339565 13.5245 0 12.4996 0C11.4747 0 10.4857 0.339565 9.7218 0.953774L1.38852 7.52092C0.947371 7.87558 0.595334 8.31067 0.355852 8.79719C0.11637 9.28372 -0.00506125 9.81053 -0.000356624 10.3425V21.2545C-0.000356624 22.2479 0.438627 23.2005 1.22002 23.903C2.00142 24.6054 3.06122 25 4.16628 25H20.8328C21.9379 25 22.9977 24.6054 23.7791 23.903C24.5605 23.2005 24.9995 22.2479 24.9995 21.2545V10.3301C25.0022 9.80014 24.8798 9.27574 24.6404 8.7915C24.401 8.30725 24.05 7.87419 23.6106 7.52092ZM15.2773 22.503H9.7218V16.2605C9.7218 15.9293 9.86812 15.6118 10.1286 15.3776C10.3891 15.1435 10.7423 15.012 11.1107 15.012H13.8884C14.2568 15.012 14.6101 15.1435 14.8705 15.3776C15.131 15.6118 15.2773 15.9293 15.2773 16.2605V22.503ZM22.2217 21.2545C22.2217 21.5856 22.0754 21.9032 21.8149 22.1373C21.5545 22.3715 21.2012 22.503 20.8328 22.503H18.0551V16.2605C18.0551 15.2671 17.6161 14.3144 16.8347 13.612C16.0533 12.9096 14.9935 12.5149 13.8884 12.5149H11.1107C10.0056 12.5149 8.94581 12.9096 8.16442 13.612C7.38302 14.3144 6.94404 15.2671 6.94404 16.2605V22.503H4.16628C3.79793 22.503 3.44466 22.3715 3.1842 22.1373C2.92373 21.9032 2.7774 21.5856 2.7774 21.2545V10.3301C2.77765 10.1528 2.81989 9.9776 2.90131 9.81614C2.98274 9.65469 3.10147 9.51067 3.24962 9.39367L11.5829 2.83902C11.8363 2.63886 12.1622 2.52847 12.4996 2.52847C12.8369 2.52847 13.1628 2.63886 13.4162 2.83902L21.7495 9.39367C21.8976 9.51067 22.0164 9.65469 22.0978 9.81614C22.1792 9.9776 22.2215 10.1528 22.2217 10.3301V21.2545Z" fill="black"/>
</svg>
