<svg width="29" height="29" viewBox="0 0 29 29" fill="none" xmlns="http://www.w3.org/2000/svg">
<path d="M4.14233 4.14286C4.14233 1.85482 5.99715 0 8.28519 0C10.5732 0 12.428 1.85482 12.428 4.14286C12.428 5.47843 11.7961 6.6664 10.8148 7.424C10.7853 7.44577 10.756 7.46781 10.7268 7.49008C10.0422 7.99039 9.19815 8.28571 8.28519 8.28571C5.99715 8.28571 4.14233 6.43089 4.14233 4.14286ZM8.28519 2.07143C7.14118 2.07143 6.21376 2.99885 6.21376 4.14286C6.21376 5.28687 7.14118 6.21429 8.28519 6.21429C9.4292 6.21429 10.3566 5.28687 10.3566 4.14286C10.3566 2.99885 9.4292 2.07143 8.28519 2.07143Z" fill="#212121"/>
<path d="M18.1843 7.424C17.203 6.6664 16.571 5.47843 16.571 4.14286C16.571 1.85482 18.4259 0 20.7139 0C23.002 0 24.8568 1.85482 24.8568 4.14286C24.8568 6.43089 23.002 8.28571 20.7139 8.28571C19.801 8.28571 18.9569 7.99041 18.2722 7.4901C18.2431 7.46781 18.2138 7.44577 18.1843 7.424ZM20.7139 2.07143C19.5699 2.07143 18.6425 2.99885 18.6425 4.14286C18.6425 5.28687 19.5699 6.21429 20.7139 6.21429C21.858 6.21429 22.7853 5.28687 22.7853 4.14286C22.7853 2.99885 21.858 2.07143 20.7139 2.07143Z" fill="#212121"/>
<path d="M3.10661 10.3569H8.63884C8.40982 11.0048 8.28523 11.702 8.28523 12.4284H3.10661C2.53467 12.4284 2.07094 12.8921 2.07094 13.4641C2.07094 15.1562 2.74318 16.4112 3.807 17.265C4.29615 17.6577 4.88195 17.9756 5.54415 18.2067C5.06316 18.7193 4.68531 19.3297 4.4437 20.0048C3.7395 19.7183 3.08797 19.344 2.51039 18.8804C0.950235 17.6282 -0.000488281 15.776 -0.000488281 13.4641C-0.000488281 11.7481 1.3906 10.3569 3.10661 10.3569Z" fill="#212121"/>
<path d="M10.9109 10.3571C10.5584 10.9664 10.3567 11.6739 10.3567 12.4285C10.3567 14.1758 11.4384 15.6705 12.9688 16.2794C13.4423 16.4678 13.9588 16.5714 14.4995 16.5714C15.0403 16.5714 15.5568 16.4678 16.0303 16.2794C17.5607 15.6705 18.6424 14.1758 18.6424 12.4285C18.6424 11.6739 18.4407 10.9664 18.0882 10.3571C17.3719 9.11877 16.033 8.28564 14.4995 8.28564C12.9661 8.28564 11.6272 9.11877 10.9109 10.3571ZM14.0348 10.4094C14.1842 10.3752 14.3398 10.3571 14.4995 10.3571C14.6593 10.3571 14.8149 10.3752 14.9643 10.4094C15.8845 10.6204 16.571 11.4443 16.571 12.4285C16.571 12.5883 16.5529 12.7439 16.5186 12.8933C16.3077 13.8135 15.4838 14.4999 14.4995 14.4999C13.5153 14.4999 12.6914 13.8135 12.4805 12.8933C12.4462 12.7439 12.4281 12.5883 12.4281 12.4285C12.4281 11.4443 13.1145 10.6204 14.0348 10.4094Z" fill="#212121"/>
<path d="M25.1919 17.265C24.7029 17.6577 24.1171 17.9756 23.4548 18.2067C23.9358 18.7193 24.3136 19.3297 24.5552 20.0048C25.2594 19.7183 25.9109 19.344 26.4886 18.8804C28.0486 17.6282 28.9994 15.776 28.9994 13.4641C28.9994 11.748 27.6082 10.3569 25.8923 10.3569H20.3601C20.589 11.0048 20.7137 11.702 20.7137 12.4284H25.8923C26.4642 12.4284 26.928 12.8921 26.928 13.4641C26.928 15.1562 26.2558 16.4112 25.1919 17.265Z" fill="#212121"/>
<path d="M19.6782 18.6431C20.9747 18.6431 22.0856 19.437 22.5514 20.5654C22.702 20.9305 22.7853 21.3307 22.7853 21.7502C22.7853 24.0621 21.8345 25.9144 20.2745 27.1666C18.739 28.3991 16.681 29.0002 14.4996 29.0002C12.3182 29.0002 10.2602 28.3991 8.72475 27.1666C7.16459 25.9144 6.21387 24.0621 6.21387 21.7502C6.21387 21.3307 6.29703 20.9305 6.44777 20.5654C6.91355 19.437 8.02454 18.6431 9.32097 18.6431H19.6782ZM19.6782 20.7145H9.32097C8.74903 20.7145 8.2853 21.1783 8.2853 21.7502C8.2853 23.4424 8.95754 24.6972 10.0214 25.5511C11.1099 26.4248 12.6769 26.9288 14.4996 26.9288C16.3223 26.9288 17.8893 26.4248 18.9778 25.5511C20.0417 24.6972 20.7139 23.4424 20.7139 21.7502C20.7139 21.1783 20.2501 20.7145 19.6782 20.7145Z" fill="#212121"/>
</svg>
