<svg width="29" height="26" viewBox="0 0 29 26" fill="none" xmlns="http://www.w3.org/2000/svg">
<path d="M28.8783 7.34748L26.8197 0.97248C26.7481 0.752563 26.6087 0.562889 26.4229 0.432427C26.237 0.301965 26.0149 0.237887 25.7904 0.24998H3.14589C2.92143 0.237887 2.69931 0.301965 2.51345 0.432427C2.32759 0.562889 2.18821 0.752563 2.11659 0.97248L0.0579969 7.34748C0.0431677 7.4603 0.0431677 7.57466 0.0579969 7.68748V14.0625C0.0579969 14.3443 0.16644 14.6145 0.359471 14.8138C0.552501 15.013 0.814307 15.125 1.08729 15.125H2.11659V25.75H4.17518V15.125H10.351V25.75H26.8197V15.125H27.849C28.122 15.125 28.3838 15.013 28.5768 14.8138C28.7699 14.6145 28.8783 14.3443 28.8783 14.0625V7.68748C28.8931 7.57466 28.8931 7.4603 28.8783 7.34748ZM24.7611 23.625H12.4096V15.125H24.7611V23.625ZM26.8197 13H22.7025V8.74998H20.6439V13H15.4974V8.74998H13.4389V13H8.29237V8.74998H6.23378V13H2.11659V7.85748L3.88698 2.37498H25.0493L26.8197 7.85748V13Z" fill="black"/>
</svg>
