<svg width="24" height="24" viewBox="0 0 24 24" fill="none" xmlns="http://www.w3.org/2000/svg">
<path d="M23.6129 21.72L19.0795 17.2C20.5422 15.3366 21.3358 13.0355 21.3329 10.6667C21.3329 8.557 20.7073 6.49471 19.5352 4.74059C18.3631 2.98646 16.6972 1.61929 14.7481 0.811956C12.7991 0.00462166 10.6544 -0.206614 8.58522 0.204962C6.51609 0.616538 4.61547 1.63244 3.12371 3.1242C1.63195 4.61596 0.616049 6.51658 0.204474 8.58571C-0.207102 10.6548 0.00413338 12.7996 0.811468 14.7486C1.6188 16.6977 2.98598 18.3636 4.7401 19.5357C6.49423 20.7077 8.55652 21.3333 10.6662 21.3333C13.0351 21.3363 15.3361 20.5427 17.1995 19.08L21.7195 23.6133C21.8435 23.7383 21.9909 23.8375 22.1534 23.9052C22.3159 23.9729 22.4902 24.0077 22.6662 24.0077C22.8422 24.0077 23.0165 23.9729 23.179 23.9052C23.3414 23.8375 23.4889 23.7383 23.6129 23.6133C23.7378 23.4894 23.837 23.3419 23.9047 23.1794C23.9724 23.017 24.0072 22.8427 24.0072 22.6667C24.0072 22.4907 23.9724 22.3164 23.9047 22.1539C23.837 21.9914 23.7378 21.844 23.6129 21.72ZM2.66618 10.6667C2.66618 9.08442 3.13538 7.5377 4.01443 6.22211C4.89348 4.90652 6.14291 3.88114 7.60472 3.27564C9.06653 2.67013 10.6751 2.51171 12.2269 2.82039C13.7788 3.12907 15.2042 3.891 16.323 5.00982C17.4419 6.12864 18.2038 7.5541 18.5125 9.10595C18.8211 10.6578 18.6627 12.2663 18.0572 13.7281C17.4517 15.1899 16.4263 16.4394 15.1107 17.3184C13.7952 18.1975 12.2484 18.6667 10.6662 18.6667C8.54445 18.6667 6.50962 17.8238 5.00933 16.3235C3.50904 14.8232 2.66618 12.7884 2.66618 10.6667Z" fill="#231F20"/>
</svg>
