<svg width="1112" height="1128" viewBox="0 0 1112 1128" fill="none" xmlns="http://www.w3.org/2000/svg">
<path d="M1068.93 370.341C1041.71 305.452 1002.24 247.182 951.976 196.824C902.246 147.016 843.299 107.338 778.414 79.9959C711.216 51.5367 638.949 36.9522 565.962 37.1204C505.611 37.1204 446.557 46.7602 390.383 65.8959C259.167 4.74797 107.642 0 64.1438 0C60.975 0 53.4852 -4.38094e-06 50.6045 0.287751C33.4643 0.863261 17.7645 9.6398 8.54623 23.8837C-0.816051 38.1276 -2.54446 56.1123 3.64904 72.0827L96.2636 304.589C46.3928 388.747 20.1234 484.764 20.2131 582.56C20.2131 656.513 34.6166 727.877 63.1355 794.923C90.3581 859.668 129.68 918.083 180.092 968.296C230.072 1018.37 288.694 1057.64 353.654 1085.12C420.919 1113.61 492.36 1128 565.962 1128C639.852 1128 711.293 1113.47 778.702 1085.12C843.373 1057.93 901.852 1018.51 952.12 968.296C1002.1 918.227 1041.57 859.812 1069.08 794.78C1097.55 727.601 1112.15 655.369 1112 582.416C1111.71 508.751 1097.45 437.388 1068.93 370.341ZM973.293 753.775C951.083 806.466 918.848 854.351 878.374 894.775C837.468 935.78 790.08 967.72 737.652 989.59H737.508C682.774 1012.61 624.728 1024.41 564.81 1024.41C506.605 1024.47 448.962 1013.04 395.198 990.769C341.433 968.496 292.609 935.824 251.533 894.631C210.627 853.626 178.652 806.29 156.758 753.918V753.775C133.713 699.389 122.046 641.262 122.046 581.265C122.046 501.557 143.363 423.432 183.693 355.378L202.705 323.581L115.132 103.592C136.593 104.455 166.841 106.613 201.121 111.649C264.208 121.001 319.95 136.828 366.617 158.553L393.984 171.358L422.647 161.574C468.018 146.036 515.982 138.266 565.098 138.266C623.302 138.201 680.945 149.634 734.71 171.906C788.474 194.178 837.299 226.851 878.374 268.044C919.28 309.049 951.256 356.385 973.149 408.756L973.437 409.044C996.483 463.142 1008.15 521.268 1008.29 581.409C1008.15 641.406 996.339 699.389 973.293 753.775Z" fill="#8B45FF"/>
<path d="M424 511.062C424 521.953 428.326 532.397 436.027 540.098C443.728 547.799 454.172 552.125 465.062 552.125C475.953 552.125 486.397 547.799 494.098 540.098C501.799 532.397 506.125 521.953 506.125 511.062C506.125 500.172 501.799 489.728 494.098 482.027C486.397 474.326 475.953 470 465.062 470C454.172 470 443.728 474.326 436.027 482.027C428.326 489.728 424 500.172 424 511.062ZM725.125 511.062C725.125 521.953 729.451 532.397 737.152 540.098C744.853 547.799 755.297 552.125 766.188 552.125C777.078 552.125 787.522 547.799 795.223 540.098C802.924 532.397 807.25 521.953 807.25 511.062C807.25 500.172 802.924 489.728 795.223 482.027C787.522 474.326 777.078 470 766.188 470C755.297 470 744.853 474.326 737.152 482.027C729.451 489.728 725.125 500.172 725.125 511.062ZM615.625 606.875C542.482 606.875 482.514 664.448 478.75 736.564C478.704 737.491 478.846 738.418 479.169 739.288C479.492 740.158 479.989 740.954 480.629 741.626C481.27 742.298 482.04 742.833 482.893 743.198C483.747 743.563 484.665 743.751 485.594 743.75H526.742C530.335 743.75 533.414 741.012 533.671 737.419C536.922 695.074 572.424 661.625 615.625 661.625C658.826 661.625 694.414 695.074 697.579 737.419C697.835 741.012 700.915 743.75 704.508 743.75H745.656C746.585 743.751 747.503 743.563 748.357 743.198C749.21 742.833 749.98 742.298 750.621 741.626C751.261 740.954 751.758 740.158 752.081 739.288C752.404 738.418 752.546 737.491 752.5 736.564C748.736 664.448 688.768 606.875 615.625 606.875Z" fill="#8B45FF"/>
</svg>
