<svg width="27" height="29" viewBox="0 0 27 29" fill="none" xmlns="http://www.w3.org/2000/svg">
<path d="M1.00098 6.4L5.05098 1H21.251L25.301 6.4M1.00098 6.4V25.3C1.00098 26.0161 1.28544 26.7028 1.79179 27.2092C2.29814 27.7155 2.98489 28 3.70098 28H22.601C23.3171 28 24.0038 27.7155 24.5102 27.2092C25.0165 26.7028 25.301 26.0161 25.301 25.3V6.4M1.00098 6.4H25.301" stroke="#8B45FF" stroke-width="2" stroke-linecap="round" stroke-linejoin="round"/>
<path d="M18.551 11.7998C18.551 13.232 17.9821 14.6055 16.9694 15.6182C15.9567 16.6309 14.5831 17.1998 13.151 17.1998C11.7188 17.1998 10.3453 16.6309 9.3326 15.6182C8.3199 14.6055 7.75098 13.232 7.75098 11.7998" stroke="#8B45FF" stroke-width="2" stroke-linecap="round" stroke-linejoin="round"/>
</svg>
