<svg width="29" height="29" viewBox="0 0 29 29" fill="none" xmlns="http://www.w3.org/2000/svg">
<path d="M27.3896 8.72426L17.723 1.10638C16.8368 0.393895 15.6897 0 14.5008 0C13.3119 0 12.1647 0.393895 11.2786 1.10638L1.61198 8.72426C1.10025 9.13568 0.691886 9.64037 0.414087 10.2047C0.136288 10.7691 -0.00457222 11.3802 0.000885145 11.9973V24.6552C0.000885145 25.8075 0.510106 26.9126 1.41653 27.7274C2.32295 28.5422 3.55231 29 4.83418 29H24.1674C25.4493 29 26.6786 28.5422 27.585 27.7274C28.4915 26.9126 29.0007 25.8075 29.0007 24.6552V11.9829C29.0039 11.3682 28.8619 10.7599 28.5842 10.1981C28.3064 9.63641 27.8993 9.13406 27.3896 8.72426ZM17.723 26.1035H11.2786V18.8621C11.2786 18.478 11.4483 18.1097 11.7505 17.8381C12.0526 17.5664 12.4624 17.4139 12.8897 17.4139H16.1119C16.5392 17.4139 16.949 17.5664 17.2511 17.8381C17.5532 18.1097 17.723 18.478 17.723 18.8621V26.1035ZM25.7785 24.6552C25.7785 25.0393 25.6087 25.4077 25.3066 25.6793C25.0045 25.9509 24.5947 26.1035 24.1674 26.1035H20.9452V18.8621C20.9452 17.7098 20.436 16.6047 19.5295 15.7899C18.6231 14.9751 17.3938 14.5173 16.1119 14.5173H12.8897C11.6078 14.5173 10.3784 14.9751 9.47202 15.7899C8.5656 16.6047 8.05638 17.7098 8.05638 18.8621V26.1035H4.83418C4.40689 26.1035 3.99711 25.9509 3.69497 25.6793C3.39283 25.4077 3.22308 25.0393 3.22308 24.6552V11.9829C3.22337 11.7772 3.27237 11.574 3.36682 11.3867C3.46127 11.1994 3.59901 11.0324 3.77086 10.8967L13.4375 3.29326C13.7315 3.06108 14.1094 2.93303 14.5008 2.93303C14.8921 2.93303 15.2701 3.06108 15.5641 3.29326L25.2307 10.8967C25.4026 11.0324 25.5403 11.1994 25.6347 11.3867C25.7292 11.574 25.7782 11.7772 25.7785 11.9829V24.6552Z" fill="#8B45FF"/>
</svg>
