<svg width="29" height="29" viewBox="0 0 29 29" fill="none" xmlns="http://www.w3.org/2000/svg">
<path d="M4.14355 4.14286C4.14355 1.85482 5.99837 0 8.28641 0C10.5744 0 12.4293 1.85482 12.4293 4.14286C12.4293 5.47843 11.7973 6.6664 10.816 7.424C10.7865 7.44577 10.7572 7.46781 10.7281 7.49008C10.0434 7.99039 9.19937 8.28571 8.28641 8.28571C5.99837 8.28571 4.14355 6.43089 4.14355 4.14286ZM8.28641 2.07143C7.1424 2.07143 6.21498 2.99885 6.21498 4.14286C6.21498 5.28687 7.1424 6.21429 8.28641 6.21429C9.43042 6.21429 10.3578 5.28687 10.3578 4.14286C10.3578 2.99885 9.43042 2.07143 8.28641 2.07143Z" fill="#8B45FF"/>
<path d="M18.1855 7.424C17.2043 6.6664 16.5723 5.47843 16.5723 4.14286C16.5723 1.85482 18.4271 0 20.7151 0C23.0032 0 24.858 1.85482 24.858 4.14286C24.858 6.43089 23.0032 8.28571 20.7151 8.28571C19.8022 8.28571 18.9581 7.99041 18.2735 7.4901C18.2443 7.46781 18.215 7.44577 18.1855 7.424ZM20.7151 2.07143C19.5711 2.07143 18.6437 2.99885 18.6437 4.14286C18.6437 5.28687 19.5711 6.21429 20.7151 6.21429C21.8592 6.21429 22.7866 5.28687 22.7866 4.14286C22.7866 2.99885 21.8592 2.07143 20.7151 2.07143Z" fill="#8B45FF"/>
<path d="M3.10783 10.3569H8.64006C8.41104 11.0048 8.28645 11.702 8.28645 12.4284H3.10783C2.53589 12.4284 2.07216 12.8921 2.07216 13.4641C2.07216 15.1562 2.7444 16.4112 3.80823 17.265C4.29737 17.6577 4.88317 17.9756 5.54537 18.2067C5.06438 18.7193 4.68653 19.3297 4.44492 20.0048C3.74072 19.7183 3.08919 19.344 2.51161 18.8804C0.951456 17.6282 0.000732422 15.776 0.000732422 13.4641C0.000732422 11.7481 1.39182 10.3569 3.10783 10.3569Z" fill="#8B45FF"/>
<path d="M10.9121 10.3571C10.5596 10.9664 10.3579 11.6739 10.3579 12.4285C10.3579 14.1758 11.4397 15.6705 12.97 16.2794C13.4436 16.4678 13.9601 16.5714 14.5008 16.5714C15.0415 16.5714 15.558 16.4678 16.0316 16.2794C17.5619 15.6705 18.6436 14.1758 18.6436 12.4285C18.6436 11.6739 18.4419 10.9664 18.0894 10.3571C17.3731 9.11877 16.0342 8.28564 14.5008 8.28564C12.9673 8.28564 11.6285 9.11877 10.9121 10.3571ZM14.036 10.4094C14.1854 10.3752 14.341 10.3571 14.5008 10.3571C14.6606 10.3571 14.8161 10.3752 14.9655 10.4094C15.8858 10.6204 16.5722 11.4443 16.5722 12.4285C16.5722 12.5883 16.5541 12.7439 16.5198 12.8933C16.3089 13.8135 15.485 14.4999 14.5008 14.4999C13.5165 14.4999 12.6926 13.8135 12.4817 12.8933C12.4474 12.7439 12.4293 12.5883 12.4293 12.4285C12.4293 11.4443 13.1158 10.6204 14.036 10.4094Z" fill="#8B45FF"/>
<path d="M25.1931 17.265C24.7041 17.6577 24.1183 17.9756 23.456 18.2067C23.937 18.7193 24.3149 19.3297 24.5564 20.0048C25.2607 19.7183 25.9121 19.344 26.4899 18.8804C28.0498 17.6282 29.0006 15.776 29.0006 13.4641C29.0006 11.748 27.6095 10.3569 25.8935 10.3569H20.3613C20.5902 11.0048 20.7149 11.702 20.7149 12.4284H25.8935C26.4654 12.4284 26.9292 12.8921 26.9292 13.4641C26.9292 15.1562 26.257 16.4112 25.1931 17.265Z" fill="#8B45FF"/>
<path d="M19.6794 18.6431C20.9759 18.6431 22.0868 19.437 22.5527 20.5654C22.7032 20.9305 22.7865 21.3307 22.7865 21.7502C22.7865 24.0621 21.8357 25.9144 20.2757 27.1666C18.7402 28.3991 16.6822 29.0002 14.5008 29.0002C12.3194 29.0002 10.2615 28.3991 8.72597 27.1666C7.16581 25.9144 6.21509 24.0621 6.21509 21.7502C6.21509 21.3307 6.29826 20.9305 6.44899 20.5654C6.91477 19.437 8.02576 18.6431 9.32219 18.6431H19.6794ZM19.6794 20.7145H9.32219C8.75025 20.7145 8.28652 21.1783 8.28652 21.7502C8.28652 23.4424 8.95876 24.6972 10.0226 25.5511C11.1111 26.4248 12.6781 26.9288 14.5008 26.9288C16.3235 26.9288 17.8905 26.4248 18.979 25.5511C20.0429 24.6972 20.7151 23.4424 20.7151 21.7502C20.7151 21.1783 20.2513 20.7145 19.6794 20.7145Z" fill="#8B45FF"/>
</svg>
