<svg width="24" height="24" viewBox="0 0 24 24" fill="none" xmlns="http://www.w3.org/2000/svg">
<mask id="path-1-inside-1_2388_63" fill="white">
<path d="M2.73038 12.7421H15.7253C16.14 12.7421 16.4753 12.4061 16.4753 11.9921C16.4753 11.5781 16.14 11.2421 15.7253 11.2421H2.77725L5.49038 8.529C5.78325 8.23612 5.78325 7.76137 5.49038 7.4685C5.1975 7.17563 4.72275 7.17563 4.42987 7.4685L0 12.0154L4.42987 16.5623C4.5765 16.7089 4.76813 16.782 4.96012 16.782C5.15212 16.782 5.34375 16.7089 5.49038 16.5623C5.78325 16.2694 5.78325 15.7946 5.49038 15.5018L2.73038 12.7421ZM22.4842 0H9.73423C8.90548 0 8.23423 0.671625 8.23423 1.5V8.25H9.74398V2.41463C9.74398 1.91363 10.1505 1.50713 10.6515 1.50713H21.5434C22.0447 1.50713 22.4509 1.91363 22.4509 2.41463L22.4745 21.5933C22.4745 22.0942 22.0683 22.5007 21.567 22.5007H10.6519C10.1509 22.5007 9.74438 22.0942 9.74438 21.5933V15.7252L8.23462 15.7271V22.5C8.23462 23.3284 8.90588 24 9.73462 24H22.4842C23.313 24 23.9846 23.3284 23.9846 22.5V1.5C23.9843 0.671625 23.3126 0 22.4842 0Z"/>
</mask>
<path d="M2.73038 12.7421H15.7253C16.14 12.7421 16.4753 12.4061 16.4753 11.9921C16.4753 11.5781 16.14 11.2421 15.7253 11.2421H2.77725L5.49038 8.529C5.78325 8.23612 5.78325 7.76137 5.49038 7.4685C5.1975 7.17563 4.72275 7.17563 4.42987 7.4685L0 12.0154L4.42987 16.5623C4.5765 16.7089 4.76813 16.782 4.96012 16.782C5.15212 16.782 5.34375 16.7089 5.49038 16.5623C5.78325 16.2694 5.78325 15.7946 5.49038 15.5018L2.73038 12.7421ZM22.4842 0H9.73423C8.90548 0 8.23423 0.671625 8.23423 1.5V8.25H9.74398V2.41463C9.74398 1.91363 10.1505 1.50713 10.6515 1.50713H21.5434C22.0447 1.50713 22.4509 1.91363 22.4509 2.41463L22.4745 21.5933C22.4745 22.0942 22.0683 22.5007 21.567 22.5007H10.6519C10.1509 22.5007 9.74438 22.0942 9.74438 21.5933V15.7252L8.23462 15.7271V22.5C8.23462 23.3284 8.90588 24 9.73462 24H22.4842C23.313 24 23.9846 23.3284 23.9846 22.5V1.5C23.9843 0.671625 23.3126 0 22.4842 0Z" fill="#8B45FF"/>
<path d="M2.73038 12.7421V4.74213H-16.5852L-2.9261 18.3994L2.73038 12.7421ZM2.77725 11.2421L-2.8796 5.58527L-16.5365 19.2421H2.77725V11.2421ZM5.49038 8.529L-0.166479 2.87215L-0.16648 2.87215L5.49038 8.529ZM4.42987 7.4685L-1.22698 1.81165L-1.26384 1.84851L-1.30022 1.88585L4.42987 7.4685ZM0 12.0154L-5.7301 6.43272L-11.1691 12.0154L-5.7301 17.598L0 12.0154ZM4.42987 16.5623L-1.30022 22.1449L-1.26384 22.1822L-1.22698 22.2191L4.42987 16.5623ZM5.49038 15.5018L11.1472 9.8449L11.1468 9.84451L5.49038 15.5018ZM8.23423 8.25H0.234226V16.25H8.23423V8.25ZM9.74398 8.25V16.25H17.744V8.25H9.74398ZM22.4509 2.41463H14.4508L14.4509 2.42447L22.4509 2.41463ZM22.4745 21.5933H30.4745L30.4744 21.5834L22.4745 21.5933ZM9.74438 15.7252H17.7444V7.71531L9.73444 7.72526L9.74438 15.7252ZM8.23462 15.7271L8.22469 7.72713L0.234625 7.73706V15.7271H8.23462ZM23.9846 1.5H31.9846V1.4966L23.9846 1.5ZM2.73038 20.7421H15.7253V4.74213H2.73038V20.7421ZM15.7253 20.7421C20.5635 20.7421 24.4753 16.8192 24.4753 11.9921H8.47525C8.47525 7.99306 11.7165 4.74213 15.7253 4.74213V20.7421ZM24.4753 11.9921C24.4753 7.16506 20.5635 3.24213 15.7253 3.24213V19.2421C11.7165 19.2421 8.47525 15.9912 8.47525 11.9921H24.4753ZM15.7253 3.24213H2.77725V19.2421H15.7253V3.24213ZM8.4341 16.899L11.1472 14.1859L-0.16648 2.87215L-2.8796 5.58527L8.4341 16.899ZM11.1472 14.1859C14.5643 10.7688 14.5643 5.22872 11.1472 1.81165L-0.166479 13.1254C-2.9978 10.294 -2.9978 5.70346 -0.166479 2.87215L11.1472 14.1859ZM11.1472 1.81165C7.73016 -1.60542 2.19009 -1.60542 -1.22698 1.81165L10.0867 13.1254C7.25541 15.9567 2.66484 15.9567 -0.166479 13.1254L11.1472 1.81165ZM-1.30022 1.88585L-5.7301 6.43272L5.7301 17.598L10.16 13.0512L-1.30022 1.88585ZM-5.7301 17.598L-1.30022 22.1449L10.16 10.9796L5.7301 6.43272L-5.7301 17.598ZM-1.22698 22.2191C0.47883 23.9249 2.73116 24.782 4.96012 24.782V8.782C6.80509 8.782 8.67417 9.49284 10.0867 10.9054L-1.22698 22.2191ZM4.96012 24.782C7.1891 24.782 9.44142 23.9249 11.1472 22.2191L-0.166479 10.9054C1.24608 9.49284 3.11515 8.782 4.96012 8.782V24.782ZM11.1472 22.2191C14.5643 18.802 14.5643 13.262 11.1472 9.8449L-0.166479 21.1586C-2.9978 18.3273 -2.9978 13.7367 -0.166479 10.9054L11.1472 22.2191ZM11.1468 9.84451L8.38685 7.08489L-2.9261 18.3994L-0.166096 21.159L11.1468 9.84451ZM22.4842 -8H9.73423V8H22.4842V-8ZM9.73423 -8C4.4859 -8 0.234226 -3.74535 0.234226 1.5H16.2342C16.2342 5.0886 13.3251 8 9.73423 8V-8ZM0.234226 1.5V8.25H16.2342V1.5H0.234226ZM8.23423 16.25H9.74398V0.25H8.23423V16.25ZM17.744 8.25V2.41463H1.74398V8.25H17.744ZM17.744 2.41463C17.744 6.3319 14.5688 9.50712 10.6515 9.50712V-6.49288C5.7322 -6.49288 1.74398 -2.50465 1.74398 2.41463H17.744ZM10.6515 9.50712H21.5434V-6.49288H10.6515V9.50712ZM21.5434 9.50712C17.6244 9.50712 14.4509 6.32989 14.4509 2.41463H30.4509C30.4509 -2.50264 26.465 -6.49288 21.5434 -6.49288V9.50712ZM14.4509 2.42447L14.4745 21.6031L30.4744 21.5834L30.4508 2.40478L14.4509 2.42447ZM14.4745 21.5933C14.4745 17.6781 17.6479 14.5007 21.567 14.5007V30.5007C26.4888 30.5007 30.4745 26.5104 30.4745 21.5933H14.4745ZM21.567 14.5007H10.6519V30.5007H21.567V14.5007ZM10.6519 14.5007C14.5691 14.5007 17.7444 17.676 17.7444 21.5933H1.74438C1.74438 26.5125 5.73261 30.5007 10.6519 30.5007V14.5007ZM17.7444 21.5933V15.7252H1.74438V21.5933H17.7444ZM9.73444 7.72526L8.22469 7.72713L8.24456 23.7271L9.75431 23.7252L9.73444 7.72526ZM0.234625 15.7271V22.5H16.2346V15.7271H0.234625ZM0.234625 22.5C0.234625 27.7453 4.48629 32 9.73462 32V16C13.3255 16 16.2346 18.9114 16.2346 22.5H0.234625ZM9.73462 32H22.4842V16H9.73462V32ZM22.4842 32C27.73 32 31.9846 27.748 31.9846 22.5H15.9846C15.9846 18.9088 18.896 16 22.4842 16V32ZM31.9846 22.5V1.5H15.9846V22.5H31.9846ZM31.9846 1.4966C31.9824 -3.7469 27.7314 -8 22.4842 -8V8C18.8939 8 15.9861 5.09015 15.9846 1.5034L31.9846 1.4966Z" fill="#8B45FF" mask="url(#path-1-inside-1_2388_63)"/>
</svg>
