<svg width="29" height="26" viewBox="0 0 29 26" fill="none" xmlns="http://www.w3.org/2000/svg">
<path d="M28.8798 7.34748L26.8212 0.97248C26.7496 0.752563 26.6102 0.562889 26.4243 0.432427C26.2385 0.301965 26.0163 0.237887 25.7919 0.24998H3.14735C2.9229 0.237887 2.70078 0.301965 2.51492 0.432427C2.32906 0.562889 2.18967 0.752563 2.11806 0.97248L0.0594618 7.34748C0.0446325 7.4603 0.0446325 7.57466 0.0594618 7.68748V14.0625C0.0594618 14.3443 0.167905 14.6145 0.360936 14.8138C0.553966 15.013 0.815772 15.125 1.08876 15.125H2.11806V25.75H4.17665V15.125H10.3524V25.75H26.8212V15.125H27.8505C28.1235 15.125 28.3853 15.013 28.5783 14.8138C28.7713 14.6145 28.8798 14.3443 28.8798 14.0625V7.68748C28.8946 7.57466 28.8946 7.4603 28.8798 7.34748ZM24.7626 23.625H12.411V15.125H24.7626V23.625ZM26.8212 13H22.704V8.74998H20.6454V13H15.4989V8.74998H13.4403V13H8.29384V8.74998H6.23524V13H2.11806V7.85748L3.88845 2.37498H25.0508L26.8212 7.85748V13Z" fill="#8B45FF"/>
</svg>
