<svg width="27" height="27" viewBox="0 0 27 27" fill="none" xmlns="http://www.w3.org/2000/svg">
<path d="M26.9828 12.4796C26.9469 12.1813 26.8348 11.9071 26.6639 11.6763H26.6681L26.6449 11.6531C26.5584 11.5392 26.4572 11.4388 26.3441 11.3498L15.3416 0.713061C14.3865 -0.242038 12.718 -0.243752 11.7616 0.713061L0.760752 11.2667C0.522814 11.4881 -0.000732422 12.0864 -0.000732422 12.6732V25.3168C-0.000732422 26.2445 0.759064 27.0043 1.68677 27.0043H25.3118C26.2394 27.0043 26.9993 26.2445 26.9993 25.3168V12.7065C27.0051 12.6306 26.9976 12.5547 26.9828 12.4796V12.4796ZM7.11469 19.1515L1.68685 24.1499V14.3628L7.11469 19.1515ZM8.84899 19.8472C8.90932 19.8071 8.96672 19.7615 9.01695 19.7046C9.02663 19.6936 9.03338 19.6805 9.04226 19.6691L12.7644 16.2414C12.9556 16.0874 13.1821 16.0064 13.4205 16.0064C13.6626 16.0064 13.9047 16.0912 14.0672 16.2174L24.1816 25.3168H2.91026L8.84899 19.8472ZM19.973 19.2629L25.3118 14.5248V24.0655L19.973 19.2629ZM2.73732 11.6762L12.9546 1.90604C13.1145 1.747 13.3263 1.65883 13.5512 1.65883C13.7769 1.65883 13.9887 1.747 14.1486 1.90604L23.677 10.9856H23.6513L25.0988 12.4567L18.7099 18.1267L15.1438 14.9188C14.1503 14.14 12.7239 14.1062 11.6718 14.9551L8.36257 18.0027L1.98722 12.3774L2.69892 11.6762H2.73732Z" fill="#8B45FF"/>
</svg>
