<svg width="23" height="21" viewBox="0 0 23 21" fill="none" xmlns="http://www.w3.org/2000/svg">
<path d="M22.4081 5.40943C23.2591 6.28236 22.7147 7.75125 21.5621 7.86677L21.4152 7.87464H1.27742C0.951718 7.87427 0.638448 7.74616 0.401615 7.51648C0.164782 7.2868 0.022262 6.97289 0.00317452 6.63889C-0.015913 6.30489 0.0898729 5.97601 0.298918 5.71944C0.507963 5.46288 0.804488 5.29799 1.12791 5.25847L1.27742 5.24928H18.6384L15.7083 2.23931C15.4791 2.00308 15.346 1.6861 15.3361 1.35275C15.3262 1.01939 15.4402 0.694663 15.6549 0.444512C15.8696 0.19436 16.169 0.0375461 16.4922 0.00591893C16.8154 -0.0257083 17.1382 0.0702236 17.395 0.274229L17.5151 0.383182L22.4081 5.40943ZM23.001 14.438C23.0009 14.7596 22.886 15.0699 22.678 15.3101C22.4701 15.5504 22.1835 15.7039 21.8726 15.7415L21.7231 15.7507H4.36216L7.29229 18.7607C7.52147 18.9969 7.65453 19.3139 7.66444 19.6473C7.67435 19.9806 7.56036 20.3053 7.34564 20.5555C7.13092 20.8056 6.83156 20.9625 6.50836 20.9941C6.18516 21.0257 5.86236 20.9298 5.60552 20.7258L5.4854 20.6168L0.591209 15.5893C-0.258566 14.7163 0.285801 13.2488 1.43843 13.1332L1.58538 13.1254H21.7231C22.062 13.1254 22.3871 13.2637 22.6267 13.5098C22.8663 13.756 23.001 14.0899 23.001 14.438Z" fill="#8B45FF"/>
</svg>
